<svg xmlns="http://www.w3.org/2000/svg" width="204.93" height="41.355" viewBox="0 0 204.93 41.355">
  <g id="Grupo_356" data-name="Grupo 356" transform="translate(0 -98.072)">
    <g id="Grupo_239" data-name="Grupo 239" transform="translate(0 98.072)">
      <path id="Trazado_16" data-name="Trazado 16" d="M110.66,389.6a2.718,2.718,0,0,1,1.763.51,1.753,1.753,0,0,1,.625,1.439,2.009,2.009,0,0,1-.2.92,1.786,1.786,0,0,1-.605.675,1.911,1.911,0,0,1-.641.277,4.25,4.25,0,0,1-.938.084h-1.6v-.239l.366-.028.111-.083v-3.207l-.111-.083-.366-.034V389.6Zm-.537.267v3.372h.512a1.843,1.843,0,0,0,1.322-.42,2.061,2.061,0,0,0,0-2.535,1.855,1.855,0,0,0-1.325-.417Z" transform="translate(-77.18 -352.25)" fill="#153a33"/>
      <path id="Trazado_17" data-name="Trazado 17" d="M134.711,393.509v-.239l.366-.028.111-.083v-3.207l-.111-.082-.366-.034V389.6h3.1v.85h-.363l-.092-.495-.089-.088h-1.5v1.473h1.061l.092-.083.063-.424h.306v1.283h-.306l-.063-.421-.092-.088h-1.061v1.632H137.5l.092-.094.11-.589h.335v.95Z" transform="translate(-95.328 -352.249)" fill="#153a33"/>
      <path id="Trazado_18" data-name="Trazado 18" d="M158.368,393.221V392.2h.382l.076.668.085.1a1.359,1.359,0,0,0,.326.1,2.147,2.147,0,0,0,.4.034,1.212,1.212,0,0,0,.716-.189.6.6,0,0,0,.264-.511q0-.445-.929-.8l-.155-.06a2.63,2.63,0,0,1-.878-.482.8.8,0,0,1-.215-.579.967.967,0,0,1,.409-.809,1.756,1.756,0,0,1,1.085-.309,3.619,3.619,0,0,1,.545.042,4.325,4.325,0,0,1,.558.123v.9H160.7l-.1-.554-.095-.1a1.1,1.1,0,0,0-.268-.092,1.59,1.59,0,0,0-.316-.03,1,1,0,0,0-.641.189.622.622,0,0,0-.237.514.51.51,0,0,0,.165.39,2.576,2.576,0,0,0,.741.374l.161.057a2.517,2.517,0,0,1,.815.421.81.81,0,0,1,.213.287.868.868,0,0,1,.071.353.993.993,0,0,1-.458.848,2.071,2.071,0,0,1-1.216.322,3.991,3.991,0,0,1-.636-.048,2.533,2.533,0,0,1-.529-.139" transform="translate(-112.069 -352.077)" fill="#153a33"/>
      <path id="Trazado_19" data-name="Trazado 19" d="M181.374,389.437h.427l1.551,3.645.389.071v.239h-1.469v-.239l.4-.028.047-.082-.467-1.112h-1.526l-.461,1.112.066.082.42.028v.239h-1.267v-.239l.373-.071Zm.1.611-.638,1.616h1.3Z" transform="translate(-127.013 -352.132)" fill="#153a33"/>
      <path id="Trazado_20" data-name="Trazado 20" d="M204.85,389.6H206.5a2.137,2.137,0,0,1,1.175.257.884.884,0,0,1,.382.788.809.809,0,0,1-.262.621,1.581,1.581,0,0,1-.783.345,1.533,1.533,0,0,1,.407.156.758.758,0,0,1,.259.237,1.435,1.435,0,0,1,.183.46,3.054,3.054,0,0,0,.12.4.6.6,0,0,0,.268.326,1.365,1.365,0,0,0,.572.087h.057v.222c-.1.017-.186.03-.269.038s-.16.013-.234.013a1.58,1.58,0,0,1-.384-.041.745.745,0,0,1-.27-.127,1.384,1.384,0,0,1-.382-.711q-.057-.19-.092-.284a.924.924,0,0,0-.349-.492,1.285,1.285,0,0,0-.665-.137c-.063,0-.164,0-.3.009l-.022,0v1.385l.111.083.37.028v.239H204.85v-.239l.366-.028.111-.083v-3.207l-.111-.083-.366-.034Zm1.058.267v1.621l.187,0h.17a1.559,1.559,0,0,0,.874-.19.691.691,0,0,0,.273-.61.714.714,0,0,0-.281-.631,1.631,1.631,0,0,0-.909-.2Z" transform="translate(-144.963 -352.25)" fill="#153a33"/>
      <path id="Trazado_21" data-name="Trazado 21" d="M229.459,389.6h1.649a2.137,2.137,0,0,1,1.175.257.884.884,0,0,1,.382.788.809.809,0,0,1-.262.621,1.581,1.581,0,0,1-.783.345,1.532,1.532,0,0,1,.407.156.759.759,0,0,1,.259.237,1.436,1.436,0,0,1,.183.46,3.061,3.061,0,0,0,.12.4.6.6,0,0,0,.268.326,1.365,1.365,0,0,0,.572.087h.057v.222c-.1.017-.186.03-.269.038s-.16.013-.234.013a1.581,1.581,0,0,1-.384-.041.745.745,0,0,1-.27-.127,1.383,1.383,0,0,1-.382-.711q-.057-.19-.092-.284a.924.924,0,0,0-.349-.492,1.285,1.285,0,0,0-.665-.137c-.063,0-.164,0-.3.009l-.022,0v1.385l.111.083.37.028v.239h-1.539v-.239l.366-.028.111-.083v-3.207l-.111-.083-.366-.034Zm1.058.267v1.621l.187,0h.17a1.559,1.559,0,0,0,.874-.19.691.691,0,0,0,.273-.61.714.714,0,0,0-.281-.631,1.631,1.631,0,0,0-.91-.2Z" transform="translate(-162.377 -352.25)" fill="#153a33"/>
      <path id="Trazado_22" data-name="Trazado 22" d="M256.375,389.264a2.268,2.268,0,0,1,.771.128,2.041,2.041,0,0,1,.651.384,1.9,1.9,0,0,1,.5.677,2.141,2.141,0,0,1,.169.862,2.213,2.213,0,0,1-.082.611,2,2,0,0,1-.247.541,1.885,1.885,0,0,1-.739.661,2.206,2.206,0,0,1-1.02.238,2.321,2.321,0,0,1-.779-.129,1.95,1.95,0,0,1-.646-.372,1.886,1.886,0,0,1-.5-.68,2.318,2.318,0,0,1,0-1.734,1.864,1.864,0,0,1,.493-.674,2.038,2.038,0,0,1,.652-.382,2.3,2.3,0,0,1,.779-.129m0,.315a1.27,1.27,0,0,0-1.035.468,2.278,2.278,0,0,0,0,2.535,1.267,1.267,0,0,0,1.032.472,1.254,1.254,0,0,0,1.023-.473,2.269,2.269,0,0,0,0-2.53,1.257,1.257,0,0,0-1.023-.471" transform="translate(-179.945 -352.009)" fill="#153a33"/>
      <path id="Trazado_23" data-name="Trazado 23" d="M280.416,393.509v-.239l.408-.028.11-.083v-3.207l-.11-.082-.408-.034V389.6H282v.233l-.37.034-.11.082v3.29h1.463l.091-.094.111-.7h.335v1.06Z" transform="translate(-198.437 -352.249)" fill="#153a33"/>
      <path id="Trazado_24" data-name="Trazado 24" d="M302.236,393.509v-.239l.408-.028.111-.083v-3.207l-.111-.082-.408-.034V389.6h1.58v.233l-.37.034-.111.082v3.29H304.8l.091-.094.111-.7h.335v1.06Z" transform="translate(-213.878 -352.249)" fill="#153a33"/>
      <path id="Trazado_25" data-name="Trazado 25" d="M326.5,389.264a2.267,2.267,0,0,1,.771.128,2.04,2.04,0,0,1,.651.384,1.9,1.9,0,0,1,.5.677,2.141,2.141,0,0,1,.169.862,2.213,2.213,0,0,1-.082.611,1.991,1.991,0,0,1-.247.541,1.884,1.884,0,0,1-.739.661,2.206,2.206,0,0,1-1.02.238,2.32,2.32,0,0,1-.779-.129,1.949,1.949,0,0,1-.646-.372,1.885,1.885,0,0,1-.5-.68,2.318,2.318,0,0,1,0-1.734,1.865,1.865,0,0,1,.493-.674,2.036,2.036,0,0,1,.652-.382,2.3,2.3,0,0,1,.779-.129m0,.315a1.27,1.27,0,0,0-1.035.468,2.278,2.278,0,0,0,0,2.535,1.267,1.267,0,0,0,1.032.472,1.254,1.254,0,0,0,1.023-.473,2.269,2.269,0,0,0,0-2.53,1.258,1.258,0,0,0-1.023-.471" transform="translate(-229.571 -352.009)" fill="#153a33"/>
      <path id="Trazado_26" data-name="Trazado 26" d="M351.28,393.221V392.2h.382l.076.668.085.1a1.358,1.358,0,0,0,.326.1,2.144,2.144,0,0,0,.4.034,1.212,1.212,0,0,0,.716-.189.6.6,0,0,0,.264-.511q0-.445-.929-.8l-.155-.06a2.63,2.63,0,0,1-.878-.482.8.8,0,0,1-.215-.579.967.967,0,0,1,.409-.809,1.756,1.756,0,0,1,1.085-.309,3.62,3.62,0,0,1,.545.042,4.323,4.323,0,0,1,.557.123v.9h-.338l-.1-.554-.095-.1a1.1,1.1,0,0,0-.268-.092,1.59,1.59,0,0,0-.316-.03,1,1,0,0,0-.641.189.622.622,0,0,0-.237.514.51.51,0,0,0,.165.39,2.576,2.576,0,0,0,.741.374l.161.057a2.518,2.518,0,0,1,.815.421.81.81,0,0,1,.213.287.869.869,0,0,1,.071.353.993.993,0,0,1-.458.848,2.071,2.071,0,0,1-1.216.322,3.991,3.991,0,0,1-.636-.048,2.534,2.534,0,0,1-.529-.139" transform="translate(-248.584 -352.077)" fill="#153a33"/>
      <path id="Trazado_27" data-name="Trazado 27" d="M393.507,393.2a4.649,4.649,0,0,1-.651.152,4.17,4.17,0,0,1-.654.053,2.809,2.809,0,0,1-.6-.06,2.126,2.126,0,0,1-.5-.173,2.042,2.042,0,0,1-.82-.747,1.945,1.945,0,0,1-.3-1.048,1.875,1.875,0,0,1,.617-1.465,2.341,2.341,0,0,1,1.629-.556,3.934,3.934,0,0,1,.611.05,5.551,5.551,0,0,1,.668.149v.9h-.36l-.1-.529-.085-.105a2.11,2.11,0,0,0-.364-.113,1.764,1.764,0,0,0-.36-.037,1.532,1.532,0,0,0-1.162.449,1.7,1.7,0,0,0-.43,1.223,1.787,1.787,0,0,0,.449,1.29,1.639,1.639,0,0,0,1.241.467,2.194,2.194,0,0,0,.28-.018,2.068,2.068,0,0,0,.283-.059l.1-.091.158-.648h.347Z" transform="translate(-275.972 -352.077)" fill="#153a33"/>
      <path id="Trazado_28" data-name="Trazado 28" d="M416.369,389.264a2.268,2.268,0,0,1,.771.128,2.041,2.041,0,0,1,.651.384,1.9,1.9,0,0,1,.5.677,2.14,2.14,0,0,1,.169.862,2.212,2.212,0,0,1-.082.611,2,2,0,0,1-.247.541,1.884,1.884,0,0,1-.739.661,2.206,2.206,0,0,1-1.02.238,2.321,2.321,0,0,1-.779-.129,1.949,1.949,0,0,1-.646-.372,1.885,1.885,0,0,1-.5-.68,2.318,2.318,0,0,1,0-1.734,1.863,1.863,0,0,1,.493-.674,2.036,2.036,0,0,1,.652-.382,2.3,2.3,0,0,1,.779-.129m0,.315a1.27,1.27,0,0,0-1.035.468,2.278,2.278,0,0,0,0,2.535,1.267,1.267,0,0,0,1.032.472,1.254,1.254,0,0,0,1.023-.473,2.269,2.269,0,0,0,0-2.53,1.257,1.257,0,0,0-1.023-.471" transform="translate(-293.165 -352.009)" fill="#153a33"/>
      <path id="Trazado_29" data-name="Trazado 29" d="M440.406,393.509v-.239l.395-.046.117-.111v-3.161l-.117-.082-.414-.034V389.6H441.6v.146l2.208,2.982v-2.738l-.117-.1-.389-.051V389.6h1.358v.233l-.389.051-.117.1v3.517h-.427l-2.464-3.306v2.911l.116.111.389.046v.239Z" transform="translate(-311.641 -352.249)" fill="#153a33"/>
      <path id="Trazado_30" data-name="Trazado 30" d="M481.857,389.6h1.507v.234l-.376.034-.07.083,1.216,2.934,1.169-2.934-.063-.083-.4-.034V389.6h1.289v.234l-.4.068-1.488,3.634h-.449l-1.52-3.634-.414-.068Z" transform="translate(-340.987 -352.249)" fill="#153a33"/>
      <path id="Trazado_31" data-name="Trazado 31" d="M506.354,389.437h.426l1.551,3.645.389.071v.239h-1.469v-.239l.4-.028.047-.082-.467-1.112h-1.526l-.461,1.112.066.082.42.028v.239h-1.267v-.239l.373-.071Zm.1.611-.638,1.616h1.3Z" transform="translate(-356.986 -352.132)" fill="#153a33"/>
      <path id="Trazado_32" data-name="Trazado 32" d="M529.69,393.509v-.239l.408-.028.11-.083v-3.207l-.11-.082-.408-.034V389.6h1.58v.233l-.37.034-.11.082v3.29h1.463l.091-.094.111-.7h.335v1.06Z" transform="translate(-374.836 -352.249)" fill="#153a33"/>
      <path id="Trazado_33" data-name="Trazado 33" d="M553.958,389.264a2.267,2.267,0,0,1,.771.128,2.043,2.043,0,0,1,.651.384,1.9,1.9,0,0,1,.5.677,2.14,2.14,0,0,1,.169.862,2.215,2.215,0,0,1-.082.611,2,2,0,0,1-.247.541,1.884,1.884,0,0,1-.739.661,2.206,2.206,0,0,1-1.02.238,2.321,2.321,0,0,1-.779-.129,1.949,1.949,0,0,1-.646-.372,1.887,1.887,0,0,1-.5-.68,2.318,2.318,0,0,1,0-1.734,1.864,1.864,0,0,1,.493-.674,2.036,2.036,0,0,1,.652-.382,2.3,2.3,0,0,1,.779-.129m0,.315a1.269,1.269,0,0,0-1.035.468,2.276,2.276,0,0,0,0,2.535,1.267,1.267,0,0,0,1.032.472,1.254,1.254,0,0,0,1.023-.473,2.27,2.27,0,0,0,0-2.53,1.258,1.258,0,0,0-1.023-.471" transform="translate(-390.53 -352.009)" fill="#153a33"/>
      <path id="Trazado_34" data-name="Trazado 34" d="M578.139,389.6h1.649a2.137,2.137,0,0,1,1.175.257.884.884,0,0,1,.382.788.808.808,0,0,1-.262.621,1.581,1.581,0,0,1-.784.345,1.53,1.53,0,0,1,.407.156.758.758,0,0,1,.259.237,1.45,1.45,0,0,1,.183.46,3.012,3.012,0,0,0,.12.4.6.6,0,0,0,.268.326,1.365,1.365,0,0,0,.572.087h.057v.222c-.1.017-.186.03-.269.038s-.16.013-.234.013a1.579,1.579,0,0,1-.384-.041.745.745,0,0,1-.27-.127,1.381,1.381,0,0,1-.382-.711q-.057-.19-.092-.284a.924.924,0,0,0-.349-.492,1.286,1.286,0,0,0-.665-.137c-.063,0-.164,0-.3.009l-.022,0v1.385l.111.083.37.028v.239h-1.539v-.239l.366-.028.111-.083v-3.207l-.111-.083-.366-.034Zm1.058.267v1.621l.187,0h.17a1.56,1.56,0,0,0,.874-.19.691.691,0,0,0,.273-.61.714.714,0,0,0-.281-.631,1.631,1.631,0,0,0-.909-.2Z" transform="translate(-409.121 -352.25)" fill="#153a33"/>
      <path id="Trazado_35" data-name="Trazado 35" d="M2.151,261.93H12.29v2.151H2.151v11.055h8.564v2.151H2.151v4H12.29v2.151H0V261.93Z" transform="translate(0 -261.901)" fill="#153a33"/>
      <path id="Trazado_36" data-name="Trazado 36" d="M67.309,261.93v19.357H77.448v2.151H65.158V261.93Z" transform="translate(-46.109 -261.901)" fill="#153a33"/>
      <path id="Trazado_37" data-name="Trazado 37" d="M188.558,265.015l-1.532,1.51a8.491,8.491,0,0,0-9.319-1.9,8.663,8.663,0,0,0-.025,15.96,8.492,8.492,0,0,0,9.325-1.867l1.527,1.515a10.663,10.663,0,0,1-11.683,2.337,10.815,10.815,0,0,1,.031-19.932,10.657,10.657,0,0,1,11.675,2.374" transform="translate(-120.48 -261.831)" fill="#153a33"/>
      <path id="Trazado_38" data-name="Trazado 38" d="M269.9,272.684a10.677,10.677,0,1,1-10.677-10.753A10.731,10.731,0,0,1,269.9,272.684m-19.2,0a8.526,8.526,0,1,0,8.526-8.6,8.548,8.548,0,0,0-8.526,8.6" transform="translate(-175.886 -261.902)" fill="#153a33"/>
      <path id="Trazado_39" data-name="Trazado 39" d="M358.082,261.93v21.508h0l-2.149-2.511L344.655,267.75v15.687H342.5V261.93l2.151,2.513,11.277,13.176V261.93Z" transform="translate(-242.374 -261.901)" fill="#153a33"/>
      <path id="Trazado_40" data-name="Trazado 40" d="M421.055,262.032h1.614a10.754,10.754,0,0,1,0,21.507H418.9V262.032Zm0,19.356h1.614a8.6,8.6,0,0,0,0-17.206h-1.619Z" transform="translate(-296.438 -261.973)" fill="#153a33"/>
      <path id="Trazado_41" data-name="Trazado 41" d="M486.93,264.7l7.888,18.736h-2.333l-1.361-3.234H480.4l-1.361,3.234h-2.333l9.055-21.508Zm-5.621,13.352h8.909l-4.455-10.581Z" transform="translate(-337.343 -261.901)" fill="#153a33"/>
      <path id="Trazado_42" data-name="Trazado 42" d="M559.677,262.032h1.614a10.754,10.754,0,0,1,0,21.507h-3.765V262.032Zm0,19.356h1.614a8.6,8.6,0,0,0,0-17.206h-1.619Z" transform="translate(-394.534 -261.973)" fill="#153a33"/>
      <path id="Trazado_43" data-name="Trazado 43" d="M649.293,272.684a10.677,10.677,0,1,1-10.677-10.753,10.731,10.731,0,0,1,10.677,10.753m-19.2,0a8.526,8.526,0,1,0,8.526-8.6,8.548,8.548,0,0,0-8.526,8.6" transform="translate(-444.362 -261.902)" fill="#153a33"/>
      <path id="Trazado_59" data-name="Trazado 59" d="M110.66,389.6a2.718,2.718,0,0,1,1.763.51,1.753,1.753,0,0,1,.625,1.439,2.009,2.009,0,0,1-.2.92,1.786,1.786,0,0,1-.605.675,1.911,1.911,0,0,1-.641.277,4.25,4.25,0,0,1-.938.084h-1.6v-.239l.366-.028.111-.083v-3.207l-.111-.083-.366-.034V389.6Zm-.537.267v3.372h.512a1.843,1.843,0,0,0,1.322-.42,2.061,2.061,0,0,0,0-2.535,1.855,1.855,0,0,0-1.325-.417Z" transform="translate(-77.18 -352.25)" fill="#153a33"/>
      <path id="Trazado_60" data-name="Trazado 60" d="M134.711,393.509v-.239l.366-.028.111-.083v-3.207l-.111-.082-.366-.034V389.6h3.1v.85h-.363l-.092-.495-.089-.088h-1.5v1.473h1.061l.092-.083.063-.424h.306v1.283h-.306l-.063-.421-.092-.088h-1.061v1.632H137.5l.092-.094.11-.589h.335v.95Z" transform="translate(-95.328 -352.249)" fill="#153a33"/>
      <path id="Trazado_61" data-name="Trazado 61" d="M158.368,393.221V392.2h.382l.076.668.085.1a1.359,1.359,0,0,0,.326.1,2.147,2.147,0,0,0,.4.034,1.212,1.212,0,0,0,.716-.189.6.6,0,0,0,.264-.511q0-.445-.929-.8l-.155-.06a2.63,2.63,0,0,1-.878-.482.8.8,0,0,1-.215-.579.967.967,0,0,1,.409-.809,1.756,1.756,0,0,1,1.085-.309,3.619,3.619,0,0,1,.545.042,4.325,4.325,0,0,1,.558.123v.9H160.7l-.1-.554-.095-.1a1.1,1.1,0,0,0-.268-.092,1.59,1.59,0,0,0-.316-.03,1,1,0,0,0-.641.189.622.622,0,0,0-.237.514.51.51,0,0,0,.165.39,2.576,2.576,0,0,0,.741.374l.161.057a2.517,2.517,0,0,1,.815.421.81.81,0,0,1,.213.287.868.868,0,0,1,.071.353.993.993,0,0,1-.458.848,2.071,2.071,0,0,1-1.216.322,3.991,3.991,0,0,1-.636-.048,2.533,2.533,0,0,1-.529-.139" transform="translate(-112.069 -352.077)" fill="#153a33"/>
      <path id="Trazado_62" data-name="Trazado 62" d="M181.374,389.437h.427l1.551,3.645.389.071v.239h-1.469v-.239l.4-.028.047-.082-.467-1.112h-1.526l-.461,1.112.066.082.42.028v.239h-1.267v-.239l.373-.071Zm.1.611-.638,1.616h1.3Z" transform="translate(-127.013 -352.132)" fill="#153a33"/>
      <path id="Trazado_63" data-name="Trazado 63" d="M204.85,389.6H206.5a2.137,2.137,0,0,1,1.175.257.884.884,0,0,1,.382.788.809.809,0,0,1-.262.621,1.581,1.581,0,0,1-.783.345,1.533,1.533,0,0,1,.407.156.758.758,0,0,1,.259.237,1.435,1.435,0,0,1,.183.46,3.054,3.054,0,0,0,.12.4.6.6,0,0,0,.268.326,1.365,1.365,0,0,0,.572.087h.057v.222c-.1.017-.186.03-.269.038s-.16.013-.234.013a1.58,1.58,0,0,1-.384-.041.745.745,0,0,1-.27-.127,1.384,1.384,0,0,1-.382-.711q-.057-.19-.092-.284a.924.924,0,0,0-.349-.492,1.285,1.285,0,0,0-.665-.137c-.063,0-.164,0-.3.009l-.022,0v1.385l.111.083.37.028v.239H204.85v-.239l.366-.028.111-.083v-3.207l-.111-.083-.366-.034Zm1.058.267v1.621l.187,0h.17a1.559,1.559,0,0,0,.874-.19.691.691,0,0,0,.273-.61.714.714,0,0,0-.281-.631,1.631,1.631,0,0,0-.909-.2Z" transform="translate(-144.963 -352.25)" fill="#153a33"/>
      <path id="Trazado_64" data-name="Trazado 64" d="M229.459,389.6h1.649a2.137,2.137,0,0,1,1.175.257.884.884,0,0,1,.382.788.809.809,0,0,1-.262.621,1.581,1.581,0,0,1-.783.345,1.532,1.532,0,0,1,.407.156.759.759,0,0,1,.259.237,1.436,1.436,0,0,1,.183.46,3.061,3.061,0,0,0,.12.4.6.6,0,0,0,.268.326,1.365,1.365,0,0,0,.572.087h.057v.222c-.1.017-.186.03-.269.038s-.16.013-.234.013a1.581,1.581,0,0,1-.384-.041.745.745,0,0,1-.27-.127,1.383,1.383,0,0,1-.382-.711q-.057-.19-.092-.284a.924.924,0,0,0-.349-.492,1.285,1.285,0,0,0-.665-.137c-.063,0-.164,0-.3.009l-.022,0v1.385l.111.083.37.028v.239h-1.539v-.239l.366-.028.111-.083v-3.207l-.111-.083-.366-.034Zm1.058.267v1.621l.187,0h.17a1.559,1.559,0,0,0,.874-.19.691.691,0,0,0,.273-.61.714.714,0,0,0-.281-.631,1.631,1.631,0,0,0-.91-.2Z" transform="translate(-162.377 -352.25)" fill="#153a33"/>
      <path id="Trazado_65" data-name="Trazado 65" d="M256.375,389.264a2.268,2.268,0,0,1,.771.128,2.041,2.041,0,0,1,.651.384,1.9,1.9,0,0,1,.5.677,2.141,2.141,0,0,1,.169.862,2.213,2.213,0,0,1-.082.611,2,2,0,0,1-.247.541,1.885,1.885,0,0,1-.739.661,2.206,2.206,0,0,1-1.02.238,2.321,2.321,0,0,1-.779-.129,1.95,1.95,0,0,1-.646-.372,1.886,1.886,0,0,1-.5-.68,2.318,2.318,0,0,1,0-1.734,1.864,1.864,0,0,1,.493-.674,2.038,2.038,0,0,1,.652-.382,2.3,2.3,0,0,1,.779-.129m0,.315a1.27,1.27,0,0,0-1.035.468,2.278,2.278,0,0,0,0,2.535,1.267,1.267,0,0,0,1.032.472,1.254,1.254,0,0,0,1.023-.473,2.269,2.269,0,0,0,0-2.53,1.257,1.257,0,0,0-1.023-.471" transform="translate(-179.945 -352.009)" fill="#153a33"/>
      <path id="Trazado_66" data-name="Trazado 66" d="M280.416,393.509v-.239l.408-.028.11-.083v-3.207l-.11-.082-.408-.034V389.6H282v.233l-.37.034-.11.082v3.29h1.463l.091-.094.111-.7h.335v1.06Z" transform="translate(-198.437 -352.249)" fill="#153a33"/>
      <path id="Trazado_67" data-name="Trazado 67" d="M302.236,393.509v-.239l.408-.028.111-.083v-3.207l-.111-.082-.408-.034V389.6h1.58v.233l-.37.034-.111.082v3.29H304.8l.091-.094.111-.7h.335v1.06Z" transform="translate(-213.878 -352.249)" fill="#153a33"/>
      <path id="Trazado_68" data-name="Trazado 68" d="M326.5,389.264a2.267,2.267,0,0,1,.771.128,2.04,2.04,0,0,1,.651.384,1.9,1.9,0,0,1,.5.677,2.141,2.141,0,0,1,.169.862,2.213,2.213,0,0,1-.082.611,1.991,1.991,0,0,1-.247.541,1.884,1.884,0,0,1-.739.661,2.206,2.206,0,0,1-1.02.238,2.32,2.32,0,0,1-.779-.129,1.949,1.949,0,0,1-.646-.372,1.885,1.885,0,0,1-.5-.68,2.318,2.318,0,0,1,0-1.734,1.865,1.865,0,0,1,.493-.674,2.036,2.036,0,0,1,.652-.382,2.3,2.3,0,0,1,.779-.129m0,.315a1.27,1.27,0,0,0-1.035.468,2.278,2.278,0,0,0,0,2.535,1.267,1.267,0,0,0,1.032.472,1.254,1.254,0,0,0,1.023-.473,2.269,2.269,0,0,0,0-2.53,1.258,1.258,0,0,0-1.023-.471" transform="translate(-229.571 -352.009)" fill="#153a33"/>
      <path id="Trazado_69" data-name="Trazado 69" d="M351.28,393.221V392.2h.382l.076.668.085.1a1.358,1.358,0,0,0,.326.1,2.144,2.144,0,0,0,.4.034,1.212,1.212,0,0,0,.716-.189.6.6,0,0,0,.264-.511q0-.445-.929-.8l-.155-.06a2.63,2.63,0,0,1-.878-.482.8.8,0,0,1-.215-.579.967.967,0,0,1,.409-.809,1.756,1.756,0,0,1,1.085-.309,3.62,3.62,0,0,1,.545.042,4.323,4.323,0,0,1,.557.123v.9h-.338l-.1-.554-.095-.1a1.1,1.1,0,0,0-.268-.092,1.59,1.59,0,0,0-.316-.03,1,1,0,0,0-.641.189.622.622,0,0,0-.237.514.51.51,0,0,0,.165.39,2.576,2.576,0,0,0,.741.374l.161.057a2.518,2.518,0,0,1,.815.421.81.81,0,0,1,.213.287.869.869,0,0,1,.071.353.993.993,0,0,1-.458.848,2.071,2.071,0,0,1-1.216.322,3.991,3.991,0,0,1-.636-.048,2.534,2.534,0,0,1-.529-.139" transform="translate(-248.584 -352.077)" fill="#153a33"/>
      <path id="Trazado_70" data-name="Trazado 70" d="M393.507,393.2a4.649,4.649,0,0,1-.651.152,4.17,4.17,0,0,1-.654.053,2.809,2.809,0,0,1-.6-.06,2.126,2.126,0,0,1-.5-.173,2.042,2.042,0,0,1-.82-.747,1.945,1.945,0,0,1-.3-1.048,1.875,1.875,0,0,1,.617-1.465,2.341,2.341,0,0,1,1.629-.556,3.934,3.934,0,0,1,.611.05,5.551,5.551,0,0,1,.668.149v.9h-.36l-.1-.529-.085-.105a2.11,2.11,0,0,0-.364-.113,1.764,1.764,0,0,0-.36-.037,1.532,1.532,0,0,0-1.162.449,1.7,1.7,0,0,0-.43,1.223,1.787,1.787,0,0,0,.449,1.29,1.639,1.639,0,0,0,1.241.467,2.194,2.194,0,0,0,.28-.018,2.068,2.068,0,0,0,.283-.059l.1-.091.158-.648h.347Z" transform="translate(-275.972 -352.077)" fill="#153a33"/>
      <path id="Trazado_71" data-name="Trazado 71" d="M416.369,389.264a2.268,2.268,0,0,1,.771.128,2.041,2.041,0,0,1,.651.384,1.9,1.9,0,0,1,.5.677,2.14,2.14,0,0,1,.169.862,2.212,2.212,0,0,1-.082.611,2,2,0,0,1-.247.541,1.884,1.884,0,0,1-.739.661,2.206,2.206,0,0,1-1.02.238,2.321,2.321,0,0,1-.779-.129,1.949,1.949,0,0,1-.646-.372,1.885,1.885,0,0,1-.5-.68,2.318,2.318,0,0,1,0-1.734,1.863,1.863,0,0,1,.493-.674,2.036,2.036,0,0,1,.652-.382,2.3,2.3,0,0,1,.779-.129m0,.315a1.27,1.27,0,0,0-1.035.468,2.278,2.278,0,0,0,0,2.535,1.267,1.267,0,0,0,1.032.472,1.254,1.254,0,0,0,1.023-.473,2.269,2.269,0,0,0,0-2.53,1.257,1.257,0,0,0-1.023-.471" transform="translate(-293.165 -352.009)" fill="#153a33"/>
      <path id="Trazado_72" data-name="Trazado 72" d="M440.406,393.509v-.239l.395-.046.117-.111v-3.161l-.117-.082-.414-.034V389.6H441.6v.146l2.208,2.982v-2.738l-.117-.1-.389-.051V389.6h1.358v.233l-.389.051-.117.1v3.517h-.427l-2.464-3.306v2.911l.116.111.389.046v.239Z" transform="translate(-311.641 -352.249)" fill="#153a33"/>
      <path id="Trazado_73" data-name="Trazado 73" d="M481.857,389.6h1.507v.234l-.376.034-.07.083,1.216,2.934,1.169-2.934-.063-.083-.4-.034V389.6h1.289v.234l-.4.068-1.488,3.634h-.449l-1.52-3.634-.414-.068Z" transform="translate(-340.987 -352.249)" fill="#153a33"/>
      <path id="Trazado_74" data-name="Trazado 74" d="M506.354,389.437h.426l1.551,3.645.389.071v.239h-1.469v-.239l.4-.028.047-.082-.467-1.112h-1.526l-.461,1.112.066.082.42.028v.239h-1.267v-.239l.373-.071Zm.1.611-.638,1.616h1.3Z" transform="translate(-356.986 -352.132)" fill="#153a33"/>
      <path id="Trazado_75" data-name="Trazado 75" d="M529.69,393.509v-.239l.408-.028.11-.083v-3.207l-.11-.082-.408-.034V389.6h1.58v.233l-.37.034-.11.082v3.29h1.463l.091-.094.111-.7h.335v1.06Z" transform="translate(-374.836 -352.249)" fill="#153a33"/>
      <path id="Trazado_76" data-name="Trazado 76" d="M553.958,389.264a2.267,2.267,0,0,1,.771.128,2.043,2.043,0,0,1,.651.384,1.9,1.9,0,0,1,.5.677,2.14,2.14,0,0,1,.169.862,2.215,2.215,0,0,1-.082.611,2,2,0,0,1-.247.541,1.884,1.884,0,0,1-.739.661,2.206,2.206,0,0,1-1.02.238,2.321,2.321,0,0,1-.779-.129,1.949,1.949,0,0,1-.646-.372,1.887,1.887,0,0,1-.5-.68,2.318,2.318,0,0,1,0-1.734,1.864,1.864,0,0,1,.493-.674,2.036,2.036,0,0,1,.652-.382,2.3,2.3,0,0,1,.779-.129m0,.315a1.269,1.269,0,0,0-1.035.468,2.276,2.276,0,0,0,0,2.535,1.267,1.267,0,0,0,1.032.472,1.254,1.254,0,0,0,1.023-.473,2.27,2.27,0,0,0,0-2.53,1.258,1.258,0,0,0-1.023-.471" transform="translate(-390.53 -352.009)" fill="#153a33"/>
      <path id="Trazado_77" data-name="Trazado 77" d="M578.139,389.6h1.649a2.137,2.137,0,0,1,1.175.257.884.884,0,0,1,.382.788.808.808,0,0,1-.262.621,1.581,1.581,0,0,1-.784.345,1.53,1.53,0,0,1,.407.156.758.758,0,0,1,.259.237,1.45,1.45,0,0,1,.183.46,3.012,3.012,0,0,0,.12.4.6.6,0,0,0,.268.326,1.365,1.365,0,0,0,.572.087h.057v.222c-.1.017-.186.03-.269.038s-.16.013-.234.013a1.579,1.579,0,0,1-.384-.041.745.745,0,0,1-.27-.127,1.381,1.381,0,0,1-.382-.711q-.057-.19-.092-.284a.924.924,0,0,0-.349-.492,1.286,1.286,0,0,0-.665-.137c-.063,0-.164,0-.3.009l-.022,0v1.385l.111.083.37.028v.239h-1.539v-.239l.366-.028.111-.083v-3.207l-.111-.083-.366-.034Zm1.058.267v1.621l.187,0h.17a1.56,1.56,0,0,0,.874-.19.691.691,0,0,0,.273-.61.714.714,0,0,0-.281-.631,1.631,1.631,0,0,0-.909-.2Z" transform="translate(-409.121 -352.25)" fill="#153a33"/>
      <path id="Trazado_78" data-name="Trazado 78" d="M2.151,261.93H12.29v2.151H2.151v11.055h8.564v2.151H2.151v4H12.29v2.151H0V261.93Z" transform="translate(0 -261.901)" fill="#153a33"/>
      <path id="Trazado_79" data-name="Trazado 79" d="M67.309,261.93v19.357H77.448v2.151H65.158V261.93Z" transform="translate(-46.109 -261.901)" fill="#153a33"/>
      <path id="Trazado_80" data-name="Trazado 80" d="M188.558,265.015l-1.532,1.51a8.491,8.491,0,0,0-9.319-1.9,8.663,8.663,0,0,0-.025,15.96,8.492,8.492,0,0,0,9.325-1.867l1.527,1.515a10.663,10.663,0,0,1-11.683,2.337,10.815,10.815,0,0,1,.031-19.932,10.657,10.657,0,0,1,11.675,2.374" transform="translate(-120.48 -261.831)" fill="#153a33"/>
      <path id="Trazado_81" data-name="Trazado 81" d="M269.9,272.684a10.677,10.677,0,1,1-10.677-10.753A10.731,10.731,0,0,1,269.9,272.684m-19.2,0a8.526,8.526,0,1,0,8.526-8.6,8.548,8.548,0,0,0-8.526,8.6" transform="translate(-175.886 -261.902)" fill="#153a33"/>
      <path id="Trazado_82" data-name="Trazado 82" d="M358.082,261.93v21.508h0l-2.149-2.511L344.655,267.75v15.687H342.5V261.93l2.151,2.513,11.277,13.176V261.93Z" transform="translate(-242.374 -261.901)" fill="#153a33"/>
      <path id="Trazado_83" data-name="Trazado 83" d="M421.055,262.032h1.614a10.754,10.754,0,0,1,0,21.507H418.9V262.032Zm0,19.356h1.614a8.6,8.6,0,0,0,0-17.206h-1.619Z" transform="translate(-296.438 -261.973)" fill="#153a33"/>
      <path id="Trazado_84" data-name="Trazado 84" d="M486.93,264.7l7.888,18.736h-2.333l-1.361-3.234H480.4l-1.361,3.234h-2.333l9.055-21.508Zm-5.621,13.352h8.909l-4.455-10.581Z" transform="translate(-337.343 -261.901)" fill="#153a33"/>
      <path id="Trazado_85" data-name="Trazado 85" d="M559.677,262.032h1.614a10.754,10.754,0,0,1,0,21.507h-3.765V262.032Zm0,19.356h1.614a8.6,8.6,0,0,0,0-17.206h-1.619Z" transform="translate(-394.534 -261.973)" fill="#153a33"/>
      <path id="Trazado_86" data-name="Trazado 86" d="M649.293,272.684a10.677,10.677,0,1,1-10.677-10.753,10.731,10.731,0,0,1,10.677,10.753m-19.2,0a8.526,8.526,0,1,0,8.526-8.6,8.548,8.548,0,0,0-8.526,8.6" transform="translate(-444.362 -261.902)" fill="#153a33"/>
    </g>
  </g>
</svg>
