<svg id="Grupo_332" data-name="Grupo 332" xmlns="http://www.w3.org/2000/svg" xmlns:xlink="http://www.w3.org/1999/xlink" width="52.388" height="63.687" viewBox="0 0 52.388 63.687">
  <defs>
    <clipPath id="clip-path">
      <rect id="Rectángulo_162" data-name="Rectángulo 162" width="52.388" height="63.687" fill="#9e7955"/>
    </clipPath>
  </defs>
  <g id="Grupo_332-2" data-name="Grupo 332" clip-path="url(#clip-path)">
    <path id="Trazado_1743" data-name="Trazado 1743" d="M26.968.363,39.629,15.606a1.007,1.007,0,0,1-.275,1.518L36.815,18.57a1.007,1.007,0,0,0-.243,1.555l7.314,7.964a1.007,1.007,0,0,1-.333,1.6l-3.344,1.481a1.007,1.007,0,0,0-.286,1.65l8.366,7.956a1.008,1.008,0,0,1-.2,1.606l-2.4,1.363a1.007,1.007,0,0,0-.245,1.556l6.674,7.268a1.006,1.006,0,0,1-.741,1.686H1.008a1.006,1.006,0,0,1-.741-1.686L6.942,45.3A1.008,1.008,0,0,0,6.7,43.745L4.216,42.336a1.008,1.008,0,0,1-.244-1.557l7.406-8.065a1.007,1.007,0,0,0-.243-1.556L8.654,29.745a1.007,1.007,0,0,1-.243-1.556l7.407-8.065a1.007,1.007,0,0,0-.243-1.557L13.028,17.12a1,1,0,0,1-.269-1.513L25.418.363a1.008,1.008,0,0,1,1.55,0" transform="translate(0 0)" fill="#9e7955"/>
    <path id="Trazado_1744" data-name="Trazado 1744" d="M90.366,230.947h5.425a1.006,1.006,0,0,1,1.006,1.006v3.587a1.006,1.006,0,0,1-1.006,1.006H90.366a1.006,1.006,0,0,1-1.006-1.006v-3.587a1.006,1.006,0,0,1,1.006-1.006" transform="translate(-66.884 -172.859)" fill="#9e7955"/>
  </g>
</svg>
