<svg id="Grupo_339" data-name="Grupo 339" xmlns="http://www.w3.org/2000/svg" xmlns:xlink="http://www.w3.org/1999/xlink" width="30" height="30.014" viewBox="0 0 30 30.014">
  <defs>
    <clipPath id="clip-path">
      <rect id="Rectángulo_173" data-name="Rectángulo 173" width="30" height="30.014" fill="#9e7955"/>
    </clipPath>
  </defs>
  <g id="Grupo_338" data-name="Grupo 338" clip-path="url(#clip-path)">
    <path id="Trazado_1754" data-name="Trazado 1754" d="M13.641,24.546h-.416c-1.672,0-3.345.011-5.017,0a6.771,6.771,0,0,1-6.722-5.565,7.766,7.766,0,0,1-.112-1.461q-.012-7.173,0-14.347V2.754A1.475,1.475,0,0,1,.254,2.161,1.357,1.357,0,0,1,1.1.041,2.179,2.179,0,0,1,1.509,0Q14.994,0,28.48,0a1.4,1.4,0,0,1,1.37.759,1.355,1.355,0,0,1-.807,1.91c-.121.037-.248.058-.412.1V3.16c0,4.814.017,9.629-.007,14.443a6.656,6.656,0,0,1-4.093,6.38,6.41,6.41,0,0,1-2.826.566c-1.651-.008-3.3,0-4.953,0h-.39c0,.632-.007,1.235.008,1.837,0,.086.112.172.179.252a2.045,2.045,0,1,1-3.594,1.232,2.171,2.171,0,0,1,.5-1.253.886.886,0,0,0,.175-.476c.022-.51.008-1.021.008-1.591m1.346-13.631c2.257,0,4.514,0,6.771,0a1.36,1.36,0,0,0,1.359-1.772,1.4,1.4,0,0,0-1.459-.957H9.584c-.458,0-.916-.008-1.373,0a1.373,1.373,0,0,0-1.32.928,1.359,1.359,0,0,0,1.325,1.8c2.257.007,4.514,0,6.771,0M15,13.649h-4.63c-.756,0-1.512-.016-2.267.009a1.336,1.336,0,0,0-1.227,1.711,1.36,1.36,0,0,0,1.454.994q6.674,0,13.348,0c.074,0,.149,0,.223,0a1.355,1.355,0,0,0-.132-2.707c-2.257-.008-4.513,0-6.77,0" transform="translate(0 0)" fill="#9e7955"/>
  </g>
</svg>
