<svg id="Grupo_374" data-name="Grupo 374" xmlns="http://www.w3.org/2000/svg" xmlns:xlink="http://www.w3.org/1999/xlink" width="31.086" height="31.081" viewBox="0 0 31.086 31.081">
  <defs>
    <clipPath id="clip-path">
      <rect id="Rectángulo_165" data-name="Rectángulo 165" width="31.086" height="31.081" fill="#e0cbb0"/>
    </clipPath>
  </defs>
  <g id="Grupo_336" data-name="Grupo 336" transform="translate(0)">
    <g id="Grupo_335" data-name="Grupo 335" clip-path="url(#clip-path)">
      <path id="Trazado_1750" data-name="Trazado 1750" d="M6.845.009q2.139,0,4.277,0a2.388,2.388,0,0,1,2.54,2.548q0,4.277,0,8.553A2.394,2.394,0,0,1,11.1,13.666q-4.262,0-8.525,0A2.4,2.4,0,0,1,0,11.086Q0,6.839,0,2.593A2.394,2.394,0,0,1,2.6.009H6.845" transform="translate(-0.003 -0.007)" fill="#e0cbb0"/>
      <path id="Trazado_1751" data-name="Trazado 1751" d="M156.958,6.863q0,2.123,0,4.246a2.388,2.388,0,0,1-2.539,2.549q-4.292,0-8.585,0a2.387,2.387,0,0,1-2.534-2.525q-.005-4.307,0-8.614A2.381,2.381,0,0,1,145.81,0q4.323-.005,8.646,0a2.374,2.374,0,0,1,2.5,2.493c0,1.456,0,2.912,0,4.368" transform="translate(-125.874 0)" fill="#e0cbb0"/>
      <path id="Trazado_1752" data-name="Trazado 1752" d="M6.816,156.947q-2.139,0-4.277,0A2.385,2.385,0,0,1,0,154.4q0-4.277,0-8.553a2.39,2.39,0,0,1,2.564-2.555q4.262,0,8.525,0a2.4,2.4,0,0,1,2.571,2.581q0,4.247,0,8.493a2.4,2.4,0,0,1-2.6,2.583H6.816" transform="translate(0 -125.867)" fill="#e0cbb0"/>
      <path id="Trazado_1753" data-name="Trazado 1753" d="M156.961,150.13q0,2.123,0,4.246a2.387,2.387,0,0,1-2.553,2.563q-4.277,0-8.555,0A2.388,2.388,0,0,1,143.3,154.4q0-4.292,0-8.584a2.387,2.387,0,0,1,2.525-2.535q4.308-.005,8.615,0a2.382,2.382,0,0,1,2.518,2.509c0,1.446,0,2.892,0,4.337" transform="translate(-125.877 -125.86)" fill="#e0cbb0"/>
    </g>
  </g>
</svg>
