<svg xmlns="http://www.w3.org/2000/svg" xmlns:xlink="http://www.w3.org/1999/xlink" width="219.5" height="47.015" viewBox="0 0 219.5 47.015">
  <defs>
    <clipPath id="clip-path">
      <rect id="Rectángulo_121" data-name="Rectángulo 121" width="219.5" height="47.015" fill="#153a33"/>
    </clipPath>
  </defs>
  <g id="Grupo_237" data-name="Grupo 237" transform="translate(0)">
    <path id="Trazado_1662" data-name="Trazado 1662" d="M2.3.048H0V23.086H13.164v-2.3H2.3V16.5h9.173v-2.3H2.3V2.353h10.86V.048Z" transform="translate(0 -0.017)" fill="#153a33"/>
    <path id="Trazado_1663" data-name="Trazado 1663" d="M31.361.048V23.086H44.525v-2.3H33.665V.048Z" transform="translate(-10.958 -0.017)" fill="#153a33"/>
    <g id="Grupo_236" data-name="Grupo 236" transform="translate(0 0)">
      <g id="Grupo_235" data-name="Grupo 235" clip-path="url(#clip-path)">
        <path id="Trazado_1664" data-name="Trazado 1664" d="M101.55,3.411,99.91,5.028A9.094,9.094,0,0,0,89.928,3a9.28,9.28,0,0,0-.027,17.1,9.1,9.1,0,0,0,9.988-2l1.636,1.623a11.419,11.419,0,0,1-12.513,2.5A11.583,11.583,0,0,1,89.045.869a11.409,11.409,0,0,1,12.5,2.542" transform="translate(-28.632 0)" fill="#153a33"/>
        <path id="Trazado_1665" data-name="Trazado 1665" d="M142.5,11.568A11.437,11.437,0,1,1,131.064.049,11.495,11.495,0,0,1,142.5,11.568m-20.569,0a9.133,9.133,0,1,0,18.265,0,9.133,9.133,0,1,0-18.265,0" transform="translate(-41.799 -0.017)" fill="#153a33"/>
        <path id="Trazado_1666" data-name="Trazado 1666" d="M179.231.048h2.3V23.085h0l-2.3-2.69L167.152,6.283v16.8h-2.3V.048l2.3,2.692,12.079,14.112Z" transform="translate(-57.6 -0.017)" fill="#153a33"/>
        <path id="Trazado_1667" data-name="Trazado 1667" d="M203.924.1h1.729a11.519,11.519,0,0,1,0,23.037H201.62V.1Zm0,20.734h1.729a9.156,9.156,0,0,0,9.132-9.215A9.156,9.156,0,0,0,205.658,2.4h-1.734Z" transform="translate(-70.449 -0.034)" fill="#153a33"/>
        <path id="Trazado_1668" data-name="Trazado 1668" d="M240.389,3.017l8.45,20.069h-2.5l-1.458-3.464H233.4l-1.458,3.464h-2.5L239.14.048Zm-6.021,14.3h9.543L239.14,5.985Z" transform="translate(-80.169 -0.017)" fill="#153a33"/>
        <path id="Trazado_1669" data-name="Trazado 1669" d="M270.643.1h1.729a11.519,11.519,0,0,1,0,23.037h-4.033V.1Zm0,20.734h1.729a9.156,9.156,0,0,0,9.132-9.215A9.156,9.156,0,0,0,272.377,2.4h-1.734Z" transform="translate(-93.761 -0.034)" fill="#153a33"/>
        <path id="Trazado_1670" data-name="Trazado 1670" d="M325.1,11.568A11.437,11.437,0,1,1,313.666.049,11.5,11.5,0,0,1,325.1,11.568m-20.569,0a9.133,9.133,0,1,0,18.265,0,9.133,9.133,0,1,0-18.265,0" transform="translate(-105.603 -0.017)" fill="#153a33"/>
        <path id="Trazado_1671" data-name="Trazado 1671" d="M39.787,64.865a3.275,3.275,0,0,1,2.122.614,2.109,2.109,0,0,1,.753,1.734,2.409,2.409,0,0,1-.245,1.107,2.148,2.148,0,0,1-.728.813,2.278,2.278,0,0,1-.772.334,5.083,5.083,0,0,1-1.129.1H37.866V69.28l.441-.034.133-.1v-3.86l-.133-.1-.441-.041v-.28Zm-.647.321v4.059h.616a2.22,2.22,0,0,0,1.591-.5,2.483,2.483,0,0,0,0-3.053,2.229,2.229,0,0,0-1.6-.5Z" transform="translate(-13.231 -22.665)" fill="#153a33"/>
        <path id="Trazado_1672" data-name="Trazado 1672" d="M51.738,69.567v-.288l.441-.034.133-.1V65.285l-.133-.1-.441-.041v-.281h3.73v1.023h-.437l-.111-.6-.106-.106h-1.8v1.773h1.278l.11-.1.076-.51h.369v1.544h-.369l-.076-.507-.11-.106H53.012v1.965H55.1l.11-.113.133-.708h.4v1.143Z" transform="translate(-18.078 -22.664)" fill="#153a33"/>
        <path id="Trazado_1673" data-name="Trazado 1673" d="M64.534,69.381V68.149h.46l.091.8.1.12a1.658,1.658,0,0,0,.392.12,2.629,2.629,0,0,0,.479.041,1.454,1.454,0,0,0,.861-.228.718.718,0,0,0,.317-.614q0-.538-1.118-.965l-.186-.072a3.158,3.158,0,0,1-1.057-.58.962.962,0,0,1-.259-.7,1.164,1.164,0,0,1,.492-.973,2.115,2.115,0,0,1,1.306-.371,4.377,4.377,0,0,1,.656.05,5.291,5.291,0,0,1,.671.148v1.085h-.407l-.118-.668-.114-.116a1.29,1.29,0,0,0-.323-.111,1.88,1.88,0,0,0-.38-.036,1.2,1.2,0,0,0-.772.228.748.748,0,0,0-.285.617.616.616,0,0,0,.2.471,3.092,3.092,0,0,0,.891.45l.194.069a3.005,3.005,0,0,1,.981.506.983.983,0,0,1,.257.346,1.038,1.038,0,0,1,.085.424,1.194,1.194,0,0,1-.551,1.021,2.493,2.493,0,0,1-1.464.388,4.766,4.766,0,0,1-.766-.059,3.062,3.062,0,0,1-.637-.167" transform="translate(-22.549 -22.619)" fill="#153a33"/>
        <path id="Trazado_1674" data-name="Trazado 1674" d="M78.231,64.775h.513l1.867,4.388.468.085v.288H79.311v-.288l.483-.034.057-.1-.563-1.338H77.451L76.9,69.114l.079.1.506.034v.288H75.957v-.288l.449-.085Zm.122.736-.768,1.944h1.571Z" transform="translate(-26.54 -22.633)" fill="#153a33"/>
        <path id="Trazado_1675" data-name="Trazado 1675" d="M89.677,64.865h1.985a2.575,2.575,0,0,1,1.414.309,1.065,1.065,0,0,1,.461.949.971.971,0,0,1-.316.747,1.9,1.9,0,0,1-.943.416,1.89,1.89,0,0,1,.491.187.927.927,0,0,1,.312.286,1.743,1.743,0,0,1,.221.553,3.7,3.7,0,0,0,.144.485.719.719,0,0,0,.323.392,1.635,1.635,0,0,0,.688.1h.068v.267c-.116.021-.224.036-.323.046a2.689,2.689,0,0,1-.281.016,1.857,1.857,0,0,1-.462-.05.891.891,0,0,1-.325-.152,1.666,1.666,0,0,1-.46-.856c-.046-.152-.083-.267-.111-.342a1.116,1.116,0,0,0-.42-.592,1.548,1.548,0,0,0-.8-.164c-.076,0-.2,0-.365.01l-.027,0v1.666l.133.1.445.034v.287H89.677V69.28l.441-.034.133-.1v-3.86l-.133-.1-.441-.041Zm1.274.321v1.95l.224.005.2,0a1.88,1.88,0,0,0,1.051-.228.831.831,0,0,0,.329-.735.858.858,0,0,0-.338-.758,1.959,1.959,0,0,0-1.095-.236Z" transform="translate(-31.334 -22.665)" fill="#153a33"/>
        <path id="Trazado_1676" data-name="Trazado 1676" d="M102.988,64.865h1.985a2.575,2.575,0,0,1,1.414.309,1.065,1.065,0,0,1,.461.949.971.971,0,0,1-.316.747,1.9,1.9,0,0,1-.943.416,1.89,1.89,0,0,1,.491.187.927.927,0,0,1,.312.286,1.743,1.743,0,0,1,.221.553,3.7,3.7,0,0,0,.144.485.719.719,0,0,0,.323.392,1.635,1.635,0,0,0,.688.1h.068v.267c-.116.021-.224.036-.323.046a2.689,2.689,0,0,1-.281.016,1.857,1.857,0,0,1-.462-.05.891.891,0,0,1-.325-.152,1.666,1.666,0,0,1-.46-.856c-.046-.152-.083-.267-.111-.342a1.116,1.116,0,0,0-.42-.592,1.548,1.548,0,0,0-.8-.164c-.076,0-.2,0-.365.01l-.027,0v1.666l.133.1.444.034v.287h-1.852V69.28l.441-.034.133-.1v-3.86l-.133-.1-.441-.041Zm1.274.321v1.95l.224.005.2,0a1.88,1.88,0,0,0,1.051-.228.831.831,0,0,0,.329-.735.858.858,0,0,0-.338-.758,1.959,1.959,0,0,0-1.095-.236Z" transform="translate(-35.985 -22.665)" fill="#153a33"/>
        <path id="Trazado_1677" data-name="Trazado 1677" d="M118.933,64.68a2.727,2.727,0,0,1,.928.154,2.421,2.421,0,0,1,.783.462,2.275,2.275,0,0,1,.6.815,2.58,2.58,0,0,1,.2,1.037,2.653,2.653,0,0,1-.1.736,2.4,2.4,0,0,1-.3.65,2.279,2.279,0,0,1-.89.8,2.658,2.658,0,0,1-1.228.286,2.793,2.793,0,0,1-.937-.155,2.352,2.352,0,0,1-.777-.448,2.27,2.27,0,0,1-.6-.818,2.79,2.79,0,0,1,0-2.088,2.244,2.244,0,0,1,.593-.811,2.446,2.446,0,0,1,.785-.461,2.774,2.774,0,0,1,.937-.155m0,.38a1.526,1.526,0,0,0-1.245.563,2.741,2.741,0,0,0,0,3.051,1.629,1.629,0,0,0,2.474,0,2.732,2.732,0,0,0,0-3.046,1.514,1.514,0,0,0-1.232-.566" transform="translate(-40.677 -22.6)" fill="#153a33"/>
        <path id="Trazado_1678" data-name="Trazado 1678" d="M130.551,69.567v-.288l.491-.034.133-.1V65.285l-.133-.1-.491-.041v-.281h1.9v.281l-.445.041-.133.1v3.96h1.76l.111-.113.133-.842h.4v1.276Z" transform="translate(-45.616 -22.664)" fill="#153a33"/>
        <path id="Trazado_1679" data-name="Trazado 1679" d="M142.354,69.567v-.288l.491-.034.133-.1V65.285l-.133-.1-.491-.041v-.281h1.9v.281l-.445.041-.133.1v3.96h1.76l.111-.113.133-.842h.4v1.276Z" transform="translate(-49.74 -22.664)" fill="#153a33"/>
        <path id="Trazado_1680" data-name="Trazado 1680" d="M156.867,64.68a2.727,2.727,0,0,1,.928.154,2.421,2.421,0,0,1,.783.462,2.275,2.275,0,0,1,.6.815,2.58,2.58,0,0,1,.2,1.037,2.652,2.652,0,0,1-.1.736,2.4,2.4,0,0,1-.3.65,2.279,2.279,0,0,1-.89.8,2.658,2.658,0,0,1-1.228.286,2.793,2.793,0,0,1-.937-.155,2.352,2.352,0,0,1-.777-.448,2.27,2.27,0,0,1-.6-.818,2.79,2.79,0,0,1,0-2.088,2.244,2.244,0,0,1,.593-.811,2.446,2.446,0,0,1,.785-.461,2.774,2.774,0,0,1,.937-.155m0,.38a1.526,1.526,0,0,0-1.245.563,2.741,2.741,0,0,0,0,3.051,1.629,1.629,0,0,0,2.474,0,2.732,2.732,0,0,0,0-3.046,1.514,1.514,0,0,0-1.232-.566" transform="translate(-53.932 -22.6)" fill="#153a33"/>
        <path id="Trazado_1681" data-name="Trazado 1681" d="M168.882,69.381V68.149h.46l.091.8.1.12a1.658,1.658,0,0,0,.392.12,2.629,2.629,0,0,0,.479.041,1.451,1.451,0,0,0,.861-.228.717.717,0,0,0,.318-.614q0-.538-1.118-.965l-.186-.072a3.151,3.151,0,0,1-1.057-.58.963.963,0,0,1-.259-.7,1.164,1.164,0,0,1,.492-.973,2.115,2.115,0,0,1,1.306-.371,4.378,4.378,0,0,1,.656.05,5.291,5.291,0,0,1,.671.148v1.085h-.407l-.118-.668-.114-.116a1.29,1.29,0,0,0-.323-.111,1.88,1.88,0,0,0-.38-.036,1.2,1.2,0,0,0-.772.228.748.748,0,0,0-.285.617.616.616,0,0,0,.2.471,3.092,3.092,0,0,0,.891.45l.194.069a3.005,3.005,0,0,1,.981.506.983.983,0,0,1,.257.346,1.038,1.038,0,0,1,.085.424,1.194,1.194,0,0,1-.551,1.021,2.493,2.493,0,0,1-1.464.388,4.766,4.766,0,0,1-.766-.059,3.062,3.062,0,0,1-.637-.167" transform="translate(-59.01 -22.619)" fill="#153a33"/>
        <path id="Trazado_1682" data-name="Trazado 1682" d="M194.06,69.36a5.521,5.521,0,0,1-.783.183,5.007,5.007,0,0,1-.787.063,3.41,3.41,0,0,1-.719-.072,2.556,2.556,0,0,1-.608-.209,2.453,2.453,0,0,1-.986-.9,2.331,2.331,0,0,1-.36-1.261,2.26,2.26,0,0,1,.744-1.764,2.821,2.821,0,0,1,1.96-.669,4.759,4.759,0,0,1,.736.06,6.553,6.553,0,0,1,.8.18V66.05h-.433l-.118-.636-.1-.127a2.552,2.552,0,0,0-.437-.137,2.149,2.149,0,0,0-.434-.044,1.846,1.846,0,0,0-1.4.541,2.042,2.042,0,0,0-.517,1.472,2.15,2.15,0,0,0,.539,1.552,1.973,1.973,0,0,0,1.494.563,2.563,2.563,0,0,0,.337-.022,2.378,2.378,0,0,0,.34-.07l.122-.109.19-.781h.418Z" transform="translate(-66.324 -22.619)" fill="#153a33"/>
        <path id="Trazado_1683" data-name="Trazado 1683" d="M205.475,64.68a2.727,2.727,0,0,1,.928.154,2.421,2.421,0,0,1,.783.462,2.275,2.275,0,0,1,.6.815,2.58,2.58,0,0,1,.2,1.037,2.652,2.652,0,0,1-.1.736,2.4,2.4,0,0,1-.3.65,2.279,2.279,0,0,1-.89.8,2.658,2.658,0,0,1-1.228.286,2.793,2.793,0,0,1-.937-.155,2.351,2.351,0,0,1-.777-.448,2.27,2.27,0,0,1-.6-.818,2.79,2.79,0,0,1,0-2.088,2.245,2.245,0,0,1,.593-.811,2.446,2.446,0,0,1,.785-.461,2.774,2.774,0,0,1,.937-.155m0,.38a1.526,1.526,0,0,0-1.245.563,2.741,2.741,0,0,0,0,3.051,1.629,1.629,0,0,0,2.474,0,2.732,2.732,0,0,0,0-3.046,1.514,1.514,0,0,0-1.232-.566" transform="translate(-70.916 -22.6)" fill="#153a33"/>
        <path id="Trazado_1684" data-name="Trazado 1684" d="M217.1,69.567v-.288l.476-.055.141-.133V65.285l-.141-.1-.5-.041v-.281h1.464v.174l2.658,3.591v-3.3l-.141-.127-.468-.061v-.281h1.635v.281l-.468.061-.141.127v4.233h-.513l-2.966-3.98v3.5l.141.133.468.055v.288Z" transform="translate(-75.851 -22.664)" fill="#153a33"/>
        <path id="Trazado_1685" data-name="Trazado 1685" d="M239.512,64.864h1.814v.281l-.453.04-.083.1,1.464,3.532,1.407-3.532-.076-.1-.483-.04v-.281h1.552v.281l-.483.082L242.379,69.6h-.54l-1.829-4.374-.5-.082Z" transform="translate(-83.689 -22.665)" fill="#153a33"/>
        <path id="Trazado_1686" data-name="Trazado 1686" d="M254.016,64.775h.513l1.867,4.388.468.085v.288H255.1v-.288l.483-.034.057-.1-.563-1.338h-1.837l-.555,1.338.079.1.506.034v.288h-1.525v-.288l.449-.085Zm.122.736-.768,1.944h1.571Z" transform="translate(-87.962 -22.633)" fill="#153a33"/>
        <path id="Trazado_1687" data-name="Trazado 1687" d="M265.386,69.567v-.288l.491-.034.133-.1V65.285l-.133-.1-.491-.041v-.281h1.9v.281l-.445.041-.133.1v3.96h1.76l.111-.113.133-.842h.4v1.276Z" transform="translate(-92.729 -22.664)" fill="#153a33"/>
        <path id="Trazado_1688" data-name="Trazado 1688" d="M279.9,64.68a2.727,2.727,0,0,1,.928.154,2.42,2.42,0,0,1,.783.462,2.276,2.276,0,0,1,.6.815,2.581,2.581,0,0,1,.2,1.037,2.653,2.653,0,0,1-.1.736,2.4,2.4,0,0,1-.3.65,2.279,2.279,0,0,1-.89.8,2.658,2.658,0,0,1-1.228.286,2.793,2.793,0,0,1-.937-.155,2.352,2.352,0,0,1-.777-.448,2.27,2.27,0,0,1-.6-.818,2.79,2.79,0,0,1,0-2.088,2.244,2.244,0,0,1,.593-.811,2.446,2.446,0,0,1,.785-.461,2.774,2.774,0,0,1,.938-.155m0,.38a1.526,1.526,0,0,0-1.245.563,2.741,2.741,0,0,0,0,3.051,1.629,1.629,0,0,0,2.474,0,2.732,2.732,0,0,0,0-3.046,1.514,1.514,0,0,0-1.232-.566" transform="translate(-96.92 -22.6)" fill="#153a33"/>
        <path id="Trazado_1689" data-name="Trazado 1689" d="M291.592,64.865h1.985a2.575,2.575,0,0,1,1.414.309,1.065,1.065,0,0,1,.461.949.971.971,0,0,1-.316.747,1.9,1.9,0,0,1-.943.416,1.89,1.89,0,0,1,.491.187.927.927,0,0,1,.312.286,1.743,1.743,0,0,1,.221.553,3.7,3.7,0,0,0,.144.485.719.719,0,0,0,.323.392,1.635,1.635,0,0,0,.688.1h.068v.267c-.116.021-.224.036-.323.046a2.689,2.689,0,0,1-.281.016,1.857,1.857,0,0,1-.462-.05.891.891,0,0,1-.325-.152,1.666,1.666,0,0,1-.46-.856c-.046-.152-.083-.267-.111-.342a1.116,1.116,0,0,0-.42-.592,1.548,1.548,0,0,0-.8-.164c-.076,0-.2,0-.365.01l-.027,0v1.666l.133.1.444.034v.287h-1.852V69.28l.441-.034.133-.1v-3.86l-.133-.1-.441-.041Zm1.274.321v1.95l.224.005.2,0a1.88,1.88,0,0,0,1.051-.228.831.831,0,0,0,.329-.735.858.858,0,0,0-.338-.758,1.959,1.959,0,0,0-1.095-.236Z" transform="translate(-101.886 -22.665)" fill="#153a33"/>
      </g>
    </g>
  </g>
</svg>
