<svg xmlns="http://www.w3.org/2000/svg" xmlns:xlink="http://www.w3.org/1999/xlink" width="66.093" height="66.129" viewBox="0 0 66.093 66.129">
  <defs>
    <clipPath id="clip-path">
      <rect id="Rectángulo_156" data-name="Rectángulo 156" width="66.093" height="66.129" fill="#9e7955"/>
    </clipPath>
  </defs>
  <g id="Grupo_325" data-name="Grupo 325" clip-path="url(#clip-path)">
    <path id="Trazado_1730" data-name="Trazado 1730" d="M66.092,2.473a2.146,2.146,0,0,1-2.115,1.434,23.869,23.869,0,0,1-1.765,3.076,7.674,7.674,0,0,1-7.775,2.97,7.734,7.734,0,0,1-6.22-5.28.99.99,0,0,0-1.116-.8A12.686,12.686,0,0,0,40.769,5.03,10.406,10.406,0,0,0,35,13.9c-.023.3-.017.6-.017.9q0,23.338,0,46.676v.777c1.437,0,2.828-.017,4.218,0A1.94,1.94,0,0,1,41.132,64.7a2.355,2.355,0,0,1-1.376,1.427H26.331a5.27,5.27,0,0,1-1.207-1.081,1.886,1.886,0,0,1,1.7-2.783c1.4-.035,2.793-.007,4.284-.007v-.71q0-23.428,0-46.856a10.435,10.435,0,0,0-8.5-10.57,24.512,24.512,0,0,0-4.111-.2c-.169,0-.435.293-.5.5a8.288,8.288,0,0,1-3.554,4.51A8.166,8.166,0,0,1,3.246,6.122c-.382-.692-.662-1.439-1.008-2.2a5.874,5.874,0,0,1-.705-.078A1.939,1.939,0,0,1,0,1.874,1.944,1.944,0,0,1,1.757.034,6.954,6.954,0,0,1,2.466.02q8.84,0,17.681,0A14.3,14.3,0,0,1,32.677,6.656c.084.125.169.249.26.369.022.029.07.039.13.071.455-.613.879-1.255,1.374-1.838A14.381,14.381,0,0,1,46,.013Q54.747.049,63.491,0a2.484,2.484,0,0,1,2.6,1.438ZM6.451,3.921a4.2,4.2,0,0,0,4.3,2.278,4.107,4.107,0,0,0,3.255-2.278Zm45.725,0a3.872,3.872,0,0,0,3.28,2.292,4.071,4.071,0,0,0,4.123-2.291h-7.4" transform="translate(0 -0.001)" fill="#9e7955"/>
  </g>
</svg>
