<svg xmlns="http://www.w3.org/2000/svg" width="44" height="44" viewBox="0 0 44 44">
  <g id="Grupo_296" data-name="Grupo 296" transform="translate(-940 -7557)">
    <g id="Grupo_297" data-name="Grupo 297">
      <circle id="Elipse_24" data-name="Elipse 24" cx="22" cy="22" r="22" transform="translate(940 7557)" fill="#fff"/>
      <path id="Trazado_1716" data-name="Trazado 1716" d="M0,13.591V2.077C.01,2.038.023,2,.03,1.961A2.263,2.263,0,0,1,1.3.243,5.228,5.228,0,0,1,2.042,0H13.564c.161.041.327.07.483.126a2.325,2.325,0,0,1,1.559,2.25q0,4.686,0,9.372c0,.524.009,1.048,0,1.572a2.238,2.238,0,0,1-1.334,2.088,4.731,4.731,0,0,1-.736.228H2.042a.607.607,0,0,0-.086-.027A2.222,2.222,0,0,1,.216,14.3,5.026,5.026,0,0,1,0,13.591M9.632,7.36V7.21c0-.534,0-1.069,0-1.6a.924.924,0,0,1,1-1c.406,0,.813,0,1.219,0a.469.469,0,0,0,.523-.53c0-.265,0-.529,0-.794a.464.464,0,0,0-.513-.508q-.632,0-1.265,0A2.746,2.746,0,0,0,7.8,5.585c0,.534,0,1.069,0,1.6V7.36H7.62c-.538,0-1.077,0-1.615,0a.457.457,0,0,0-.487.488c0,.27,0,.539,0,.809a.471.471,0,0,0,.533.535H7.8v.2q0,1.916,0,3.832c0,.418.161.577.582.577h.7c.376,0,.545-.172.545-.553q0-1.939,0-3.877V9.193h.19c.711,0,1.422,0,2.133,0a.462.462,0,0,0,.505-.353q.13-.47.232-.947a.432.432,0,0,0-.3-.5.81.81,0,0,0-.24-.029c-.833,0-1.665,0-2.521,0" transform="translate(954.195 7571.924)" fill="#153a33"/>
    </g>
  </g>
</svg>
