<svg id="Grupo_393" data-name="Grupo 393" xmlns="http://www.w3.org/2000/svg" xmlns:xlink="http://www.w3.org/1999/xlink" width="61.314" height="66.9" viewBox="0 0 61.314 66.9">
  <defs>
    <clipPath id="clip-path">
      <rect id="Rectángulo_163" data-name="Rectángulo 163" width="61.314" height="66.9" fill="#9e7955"/>
    </clipPath>
  </defs>
  <g id="Grupo_333" data-name="Grupo 333" clip-path="url(#clip-path)">
    <path id="Trazado_1745" data-name="Trazado 1745" d="M46.3,32.209V50.193h-.768q-5.488,0-10.977,0a3.9,3.9,0,0,0-4.2,4.194c-.01,3.876,0,7.752,0,11.627V66.9H2.892C.952,66.9,0,65.957,0,64.023Q0,37.894,0,11.765,0,7.29,0,2.815A2.512,2.512,0,0,1,2.822,0H43.528c1.817,0,2.7.973,2.832,2.765a4.9,4.9,0,0,1-1.538,4.065,38.633,38.633,0,0,0-9.437,18.414,41.82,41.82,0,0,0-1.079,10.1c.037,2.264,0,4.529.008,6.794a1.971,1.971,0,0,0,1.954,2.208,1.994,1.994,0,0,0,1.96-2.22c.007-1.894.014-3.789-.007-5.683-.005-.453.095-.678.58-.818a30.882,30.882,0,0,0,6.826-3.067c.2-.115.408-.213.672-.35M21.845,8.734H14.859c-1.458,0-2.917-.016-4.374.008A1.918,1.918,0,0,0,8.6,10.482a1.939,1.939,0,0,0,1.5,2.081,3.652,3.652,0,0,0,.84.084q10.9.007,21.807,0a3.647,3.647,0,0,0,.966-.115,1.823,1.823,0,0,0,1.267-1.214,1.922,1.922,0,0,0-1.9-2.578c-3.743-.013-7.487,0-11.23,0M18.43,28.255c2.526,0,5.053,0,7.579,0a3.411,3.411,0,0,0,.966-.1,1.933,1.933,0,0,0,1.336-2.075,1.974,1.974,0,0,0-1.987-1.724c-1.393-.03-2.787-.009-4.181-.01q-5.652,0-11.3,0A2.078,2.078,0,0,0,8.854,25.35a1.925,1.925,0,0,0,1.735,2.9c2.613.025,5.227.007,7.841.009M15.69,43.9c1.653,0,3.305,0,4.958,0a1.968,1.968,0,1,0,.016-3.914q-4.958-.008-9.915,0a1.965,1.965,0,1,0-.016,3.913c1.653.006,3.305,0,4.958,0" transform="translate(0 -0.001)" fill="#9e7955"/>
    <path id="Trazado_1746" data-name="Trazado 1746" d="M146.255,34.044c.231-1.522.389-2.88.647-4.218a36.717,36.717,0,0,1,7.748-16.965,32.8,32.8,0,0,1,13.892-9.646c.594-.224.832-.034.725.593-.436,2.573-.878,5.145-1.351,7.711a1.037,1.037,0,0,1-.5.6c-1.349.752-2.717,1.468-4.077,2.2a4.047,4.047,0,0,0-.231,7.176l1.27.8c-5.7,4.423-11.154,9.067-18.126,11.757" transform="translate(-107.979 -2.306)" fill="#9e7955"/>
    <path id="Trazado_1747" data-name="Trazado 1747" d="M143.12,206.875l-11.981,12.693V206.875Z" transform="translate(-96.819 -152.734)" fill="#9e7955"/>
  </g>
</svg>
