<svg id="Grupo_329" data-name="Grupo 329" xmlns="http://www.w3.org/2000/svg" xmlns:xlink="http://www.w3.org/1999/xlink" width="47.303" height="66.148" viewBox="0 0 47.303 66.148">
  <defs>
    <clipPath id="clip-path">
      <rect id="Rectángulo_159" data-name="Rectángulo 159" width="47.303" height="66.148" fill="#9e7955"/>
    </clipPath>
  </defs>
  <g id="Grupo_329-2" data-name="Grupo 329" transform="translate(0)" clip-path="url(#clip-path)">
    <path id="Trazado_1741" data-name="Trazado 1741" d="M0,42.827a23.928,23.928,0,0,1,2.4-9.765,90.866,90.866,0,0,1,7.59-12.84c3.075-4.65,6.159-9.295,9.158-13.993a40.563,40.563,0,0,0,2.34-4.591A2.353,2.353,0,0,1,23.642,0a2.294,2.294,0,0,1,2.21,1.656c1.782,4.21,4.379,7.945,6.872,11.74,3.3,5.023,6.652,10.014,9.854,15.1A31.069,31.069,0,0,1,46.8,38.459a21.382,21.382,0,0,1-2.487,15.478A23.068,23.068,0,0,1,26.519,65.948,23.629,23.629,0,0,1,.4,46.449c-.188-1.2-.266-2.415-.4-3.622M40.171,41a8.74,8.74,0,0,0-.1-1.364,2.037,2.037,0,0,0-1.67-1.63,2.165,2.165,0,0,0-2.636,2.229A12.108,12.108,0,0,1,23.706,52.22a2.179,2.179,0,0,0-2.272,2.247,2.151,2.151,0,0,0,2.353,2.143,19.175,19.175,0,0,0,3.275-.355A16.52,16.52,0,0,0,40.171,41" transform="translate(0 0)" fill="#9e7955"/>
  </g>
</svg>
