<svg id="Grupo_341" data-name="Grupo 341" xmlns="http://www.w3.org/2000/svg" xmlns:xlink="http://www.w3.org/1999/xlink" width="30" height="29.992" viewBox="0 0 30 29.992">
  <defs>
    <clipPath id="clip-path">
      <rect id="Rectángulo_174" data-name="Rectángulo 174" width="30" height="29.992" fill="#9e7955"/>
    </clipPath>
  </defs>
  <g id="Grupo_340" data-name="Grupo 340" clip-path="url(#clip-path)">
    <path id="Trazado_1755" data-name="Trazado 1755" d="M18.754,105.294q0,2.752,0,5.5a3.74,3.74,0,0,1-3.862,3.859q-5.52,0-11.041,0a3.739,3.739,0,0,1-3.845-3.845q0-5.532,0-11.065a3.737,3.737,0,0,1,3.832-3.828q5.55,0,11.1,0a3.735,3.735,0,0,1,3.816,3.815q0,2.781,0,5.562" transform="translate(-0.004 -84.665)" fill="#9e7955"/>
    <path id="Trazado_1756" data-name="Trazado 1756" d="M194.265,110.36V100.251c-.141.135-.24.235-.344.33a1.266,1.266,0,0,1-1.791,0,1.242,1.242,0,0,1,.042-1.784q1.2-1.206,2.407-2.4a1.273,1.273,0,0,1,1.9,0q1.2,1.185,2.382,2.381a1.25,1.25,0,1,1-1.764,1.766,1.782,1.782,0,0,1-.205-.314l-.1.082v10.043l.082.073a2.644,2.644,0,0,1,.259-.339,1.245,1.245,0,0,1,1.764,0,1.232,1.232,0,0,1,0,1.763q-1.219,1.245-2.464,2.464a1.241,1.241,0,0,1-1.81,0q-1.243-1.221-2.465-2.464a1.232,1.232,0,0,1,0-1.783,1.248,1.248,0,0,1,1.765.021c.1.1.188.214.281.321l.063-.049" transform="translate(-169.279 -84.717)" fill="#9e7955"/>
    <path id="Trazado_1757" data-name="Trazado 1757" d="M14.468,2.413a3.006,3.006,0,0,1-.337-.263A1.248,1.248,0,0,1,14.1.387,1.232,1.232,0,0,1,15.883.376q1.254,1.231,2.482,2.488a1.246,1.246,0,0,1,0,1.791Q17.144,5.9,15.9,7.119A1.247,1.247,0,1,1,14.15,5.341a2.624,2.624,0,0,1,.319-.24L14.4,5.018H4.352L4.284,5.1a2.825,2.825,0,0,1,.338.262A1.246,1.246,0,1,1,2.857,7.122Q1.6,5.893.372,4.637a1.228,1.228,0,0,1,0-1.765Q1.616,1.605,2.883.367A1.227,1.227,0,0,1,4.644.387a1.245,1.245,0,0,1,0,1.743,3.633,3.633,0,0,1-.351.292l.059.073H14.4l.067-.081" transform="translate(0 0)" fill="#9e7955"/>
  </g>
</svg>
