<svg xmlns="http://www.w3.org/2000/svg" xmlns:xlink="http://www.w3.org/1999/xlink" width="43" height="44" viewBox="0 0 43 44">
  <defs>
    <clipPath id="clip-path">
      <rect id="Rectángulo_137" data-name="Rectángulo 137" width="19.954" height="14" fill="#153a33"/>
    </clipPath>
  </defs>
  <g id="Grupo_298" data-name="Grupo 298" transform="translate(-1162 -7557)">
    <ellipse id="Elipse_23" data-name="Elipse 23" cx="21.5" cy="22" rx="21.5" ry="22" transform="translate(1162 7557)" fill="#fff"/>
    <g id="Grupo_295" data-name="Grupo 295" transform="translate(1173.523 7572)">
      <g id="Grupo_293" data-name="Grupo 293" clip-path="url(#clip-path)">
        <path id="Trazado_1714" data-name="Trazado 1714" d="M9.939,0c2.048.08,4.1.153,6.143.246a10.7,10.7,0,0,1,1.442.173A2.516,2.516,0,0,1,19.63,2.612a23.914,23.914,0,0,1,.306,5.049c-.039,1.181-.153,2.361-.267,3.538a2.65,2.65,0,0,1-1.2,2.1,3.37,3.37,0,0,1-1.52.439,56.453,56.453,0,0,1-6.2.256c-2.077-.01-4.154-.073-6.23-.14a17.744,17.744,0,0,1-2.023-.207A2.446,2.446,0,0,1,.36,11.543c-.15-.892-.232-1.8-.3-2.7a28.807,28.807,0,0,1,.044-4.38A16.353,16.353,0,0,1,.381,2.429,2.511,2.511,0,0,1,2.677.362a54.394,54.394,0,0,1,5.847-.3c.471-.008.942,0,1.413,0l0-.063M8,10.018l5.186-2.988L8,4.044Z" transform="translate(0)" fill="#153a33"/>
      </g>
    </g>
  </g>
</svg>
