<svg xmlns="http://www.w3.org/2000/svg" width="44" height="44" viewBox="0 0 44 44">
  <g id="Grupo_299" data-name="Grupo 299" transform="translate(-829 -7557)">
    <circle id="Elipse_25" data-name="Elipse 25" cx="22" cy="22" r="22" transform="translate(829 7557)" fill="#fff"/>
    <g id="ic-contact-mail" transform="translate(841 7572)">
      <path id="Vector" d="M8.036,8.1a1,1,0,0,0,1.415,0l7.936-7.9A1.98,1.98,0,0,0,16.519,0h-16A1.98,1.98,0,0,0,0,.077Z" transform="translate(1.481)" fill="#153a33"/>
      <path id="Vector-2" data-name="Vector" d="M12.344,8.022a3,3,0,0,1-4.241,0L.072,0A1.982,1.982,0,0,0,0,.5v10a2,2,0,0,0,2,2H18a2,2,0,0,0,2-2V.5c0-.031-.008-.06-.009-.09Z" transform="translate(0 1.497)" fill="#153a33"/>
    </g>
  </g>
</svg>
