<svg xmlns="http://www.w3.org/2000/svg" width="44" height="44" viewBox="0 0 44 44">
  <g id="Grupo_295" data-name="Grupo 295" transform="translate(-715 -7557)">
    <circle id="Elipse_22" data-name="Elipse 22" cx="22" cy="22" r="22" transform="translate(715 7557)" fill="#fff"/>
    <g id="ic-contact-phone" transform="translate(728.354 7588.389) rotate(-90)">
      <path id="Vector" d="M.293,14.317l2.39,2.39a2,2,0,0,0,2.828,0l1.362-1.362a2,2,0,0,0,0-2.828l-.9-.9a16.5,16.5,0,0,1,5.641-5.653l.03-.018.9.9a2,2,0,0,0,2.828,0l1.335-1.335a2,2,0,0,0,0-2.828L14.317.293a1,1,0,0,0-1.26-.126h0A46.1,46.1,0,0,0,.167,13.056h0a1,1,0,0,0,.126,1.26Z" transform="translate(0 0)" fill="#153a33"/>
    </g>
  </g>
</svg>
