<svg xmlns="http://www.w3.org/2000/svg" xmlns:xlink="http://www.w3.org/1999/xlink" width="61.501" height="54.534" viewBox="0 0 61.501 54.534">
  <defs>
    <clipPath id="clip-path">
      <rect id="Rectángulo_194" data-name="Rectángulo 194" width="61.501" height="54.534" fill="#9e7955"/>
    </clipPath>
  </defs>
  <g id="Grupo_390" data-name="Grupo 390" clip-path="url(#clip-path)">
    <path id="Trazado_1778" data-name="Trazado 1778" d="M303.414,199.286c-.534.743-1.037,1.511-1.607,2.224q-3.506,4.383-7.046,8.738a1.855,1.855,0,0,1-2.912.4c-1.219-.873-2.433-1.753-3.7-2.664,1.307-1.047,2.583-2.07,3.86-3.09l9.286-7.418c.751-.6.768-.619,1.472.048a5.464,5.464,0,0,1,.644.916Z" transform="translate(-241.913 -165.413)" fill="#9e7955"/>
    <path id="Trazado_1779" data-name="Trazado 1779" d="M53.247,0a4.15,4.15,0,0,1,2.588.9Q64.416,7.11,73.008,13.305q8.417,6.079,16.833,12.158c1.438,1.039,1.459,2.264.07,3.373Q81.608,35.468,73.3,42.1a4.32,4.32,0,0,1-1.209.751,1.919,1.919,0,0,1-1.785-.442q-10.541-7.545-21.095-15.07Q44.7,24.109,40.182,20.88a3.608,3.608,0,0,1-.8-5.563Q44.926,8.41,50.474,1.509A3.681,3.681,0,0,1,53.247,0M77.4,28.878a1.791,1.791,0,1,0-1.78-1.812,1.8,1.8,0,0,0,1.78,1.812" transform="translate(-32.254 0)" fill="#9e7955"/>
    <path id="Trazado_1780" data-name="Trazado 1780" d="M14.269,185.947l14.619,10.441c-.49.7-.917,1.4-1.435,2.018a1.711,1.711,0,0,1-2.29.27c-.305-.19-.593-.409-.889-.613s-.594-.407-.935-.641c-5.3,5.749-11.927,8.17-19.734,7.724,0,1.114,0,2.149,0,3.184a4.592,4.592,0,0,1-.034.838,1.814,1.814,0,0,1-1.915,1.469A1.81,1.81,0,0,1,0,208.754q-.011-5.314,0-10.629,0-3.723,0-7.446a1.826,1.826,0,0,1,1.823-2.015,1.827,1.827,0,0,1,1.779,2c0,1.216,0,2.431,0,3.635a12.662,12.662,0,0,0,10.923-3c-.378-.264-.745-.516-1.108-.774a1.8,1.8,0,0,1-.5-2.664c.425-.628.873-1.24,1.35-1.916" transform="translate(0 -156.108)" fill="#9e7955"/>
  </g>
</svg>
