<svg id="Grupo_391" data-name="Grupo 391" xmlns="http://www.w3.org/2000/svg" xmlns:xlink="http://www.w3.org/1999/xlink" width="66.127" height="66.129" viewBox="0 0 66.127 66.129">
  <defs>
    <clipPath id="clip-path">
      <rect id="Rectángulo_157" data-name="Rectángulo 157" width="66.127" height="66.129" fill="#9e7955"/>
    </clipPath>
  </defs>
  <g id="Grupo_327" data-name="Grupo 327" clip-path="url(#clip-path)">
    <path id="Trazado_1731" data-name="Trazado 1731" d="M121.24,0a18.857,18.857,0,0,1,2.714.945,7.794,7.794,0,0,1,4.484,7.04c.112,5.077.032,10.158.032,15.237a1.882,1.882,0,0,1-.018.226l-3.612,1.5a1.6,1.6,0,0,0-.274-.464c-3.386-3.4-6.795-6.78-10.17-10.192a7.962,7.962,0,0,1-2.143-8.475,8.016,8.016,0,0,1,6.622-5.71,1.919,1.919,0,0,0,.3-.108Z" transform="translate(-97.349)" fill="#9e7955"/>
    <path id="Trazado_1732" data-name="Trazado 1732" d="M0,119.069a22.319,22.319,0,0,1,.659-2.215c2.12-5.178,8.9-6.9,13-3.106,3.877,3.6,7.477,7.49,11.192,11.246l-1.413,3.373h-.6q-7.1,0-14.2,0a8.283,8.283,0,0,1-8.521-7.009A.959.959,0,0,0,0,121.135v-2.066" transform="translate(0 -97.244)" fill="#9e7955"/>
    <path id="Trazado_1733" data-name="Trazado 1733" d="M279.767,0c.719.209,1.46.361,2.152.636,5.216,2.073,6.982,8.9,3.169,13.019-3.592,3.88-7.489,7.478-11.241,11.19l-3.377-1.409v-.6q0-7.1,0-14.2a8.281,8.281,0,0,1,7.009-8.52A.954.954,0,0,0,277.7,0Z" transform="translate(-235.472)" fill="#9e7955"/>
    <path id="Trazado_1734" data-name="Trazado 1734" d="M0,277.662c.13-.471.245-.947.391-1.413a8.237,8.237,0,0,1,7.721-5.808c5.014-.032,10.029-.01,15.043-.01.126,0,.252.015.293.018l1.432,3.45c-.07.076-.207.235-.354.382q-5.066,5.069-10.135,10.135a8.02,8.02,0,0,1-8.446,2.265,8.017,8.017,0,0,1-5.838-6.652,1.971,1.971,0,0,0-.108-.3v-2.066" transform="translate(0 -235.433)" fill="#9e7955"/>
    <path id="Trazado_1735" data-name="Trazado 1735" d="M318.623,273.927l1.44-3.459c.053,0,.239-.029.424-.029,4.9,0,9.806-.016,14.71,0a8.237,8.237,0,0,1,8.3,8.462,7.885,7.885,0,0,1-4.917,7.412,7.587,7.587,0,0,1-8.725-1.269c-3.878-3.591-7.527-7.429-11.229-11.119" transform="translate(-277.396 -235.441)" fill="#9e7955"/>
    <path id="Trazado_1736" data-name="Trazado 1736" d="M124.959,318.6l3.461,1.449c0,.063.025.251.025.439,0,4.9.015,9.807,0,14.71a8.3,8.3,0,0,1-15.972,3.168,7.958,7.958,0,0,1,1.709-8.95c2.366-2.5,4.852-4.88,7.284-7.314,1.185-1.185,2.367-2.372,3.5-3.5" transform="translate(-97.324 -277.373)" fill="#9e7955"/>
    <path id="Trazado_1737" data-name="Trazado 1737" d="M319.866,128.5l-1.476-3.538c.253-.224.607-.506.925-.823,3.259-3.25,6.49-6.527,9.773-9.753a8.31,8.31,0,0,1,14.019,4.053,8.257,8.257,0,0,1-7.7,10.058c-5.138.1-10.279.024-15.419.024a.381.381,0,0,1-.118-.02" transform="translate(-277.193 -97.401)" fill="#9e7955"/>
    <path id="Trazado_1738" data-name="Trazado 1738" d="M270.355,320.157l3.437-1.43c.048.042.182.142.3.259,3.468,3.466,6.958,6.911,10.394,10.409a8.313,8.313,0,0,1-4.089,14.011,8.266,8.266,0,0,1-10.041-7.73c-.086-5.117-.021-10.236-.021-15.355a.75.75,0,0,1,.021-.165" transform="translate(-235.334 -277.486)" fill="#9e7955"/>
    <path id="Trazado_1739" data-name="Trazado 1739" d="M216.437,210.6a5.809,5.809,0,1,1-5.831,5.754,5.823,5.823,0,0,1,5.831-5.754" transform="translate(-183.355 -183.353)" fill="#9e7955"/>
  </g>
</svg>
