<svg xmlns="http://www.w3.org/2000/svg" xmlns:xlink="http://www.w3.org/1999/xlink" width="63.717" height="63.687" viewBox="0 0 63.717 63.687">
  <defs>
    <clipPath id="clip-path">
      <rect id="Rectángulo_164" data-name="Rectángulo 164" width="63.717" height="63.687" fill="#9e7955"/>
    </clipPath>
  </defs>
  <g id="Grupo_334" data-name="Grupo 334" clip-path="url(#clip-path)">
    <path id="Trazado_1748" data-name="Trazado 1748" d="M18.776,52.4V10.887A5.607,5.607,0,0,1,22.082.182c3.074.807,4.449,3.345,3.908,7.275h13a1.93,1.93,0,0,1,2.2,2.209q0,7.12,0,14.24a1.932,1.932,0,0,1-2.2,2.211H22.579V52.58c4.765.749,8.963,2.338,10.973,7.37H61.329c.207,0,.415-.009.622,0a1.864,1.864,0,0,1-.006,3.724c-.165.012-.332,0-.5,0q-29.58,0-59.159,0a3.8,3.8,0,0,1-.8-.047,1.859,1.859,0,0,1,.393-3.68c1.825-.017,3.65,0,5.474-.018.2,0,.517-.135.57-.282a9.529,9.529,0,0,1,5.742-5.68c1.613-.662,3.342-1.042,5.113-1.578" transform="translate(0 0.001)" fill="#9e7955"/>
    <path id="Trazado_1749" data-name="Trazado 1749" d="M171.471,84.179c1.545,2.059,3.041,4.072,4.558,6.068a1.959,1.959,0,0,1,.356,2.244,1.983,1.983,0,0,1-1.973,1.024q-10.949-.016-21.9-.006a1.921,1.921,0,0,1-2.171-2.181c0-1.737,0-3.474,0-5.231a27.787,27.787,0,0,0,2.814-.165,5.5,5.5,0,0,0,4.643-5.361c.031-1.658.008-3.316.009-4.975,0-.224,0-.448,0-.717.243-.012.443-.03.644-.03,5.309,0,10.618.006,15.926-.008a1.928,1.928,0,0,1,1.633,3.291c-1.517,1.994-3.01,4.006-4.541,6.048" transform="translate(-112.884 -56.194)" fill="#9e7955"/>
  </g>
</svg>
