<svg id="ic-contact-map-pin" xmlns="http://www.w3.org/2000/svg" width="21.514" height="30" viewBox="0 0 21.514 30">
  <path id="Vector" d="M11.929.053Q11.35,0,10.757,0T9.585.053A10.183,10.183,0,0,0,1.35,15.2L9.56,29.337a1.308,1.308,0,0,0,.5.485,1.452,1.452,0,0,0,1.395,0,1.308,1.308,0,0,0,.5-.485L20.164,15.2A10.183,10.183,0,0,0,11.929.053ZM10.757,13.562A4.1,4.1,0,0,1,8.6,12.956a3.668,3.668,0,0,1-1.428-1.613,3.352,3.352,0,0,1-.221-2.077,3.522,3.522,0,0,1,1.061-1.84A3.98,3.98,0,0,1,10,6.442a4.161,4.161,0,0,1,2.24.2,3.829,3.829,0,0,1,1.74,1.324,3.411,3.411,0,0,1,.653,2A3.467,3.467,0,0,1,13.5,12.509a4.037,4.037,0,0,1-2.742,1.053Z" transform="translate(0)" fill="#9e7955"/>
</svg>
