<svg id="Grupo_332" data-name="Grupo 332" xmlns="http://www.w3.org/2000/svg" xmlns:xlink="http://www.w3.org/1999/xlink" width="82.259" height="100" viewBox="0 0 82.259 100">
  <defs>
    <clipPath id="clip-path">
      <rect id="Rectángulo_162" data-name="Rectángulo 162" width="82.259" height="100" fill="#9e7955"/>
    </clipPath>
  </defs>
  <g id="Grupo_332-2" data-name="Grupo 332" clip-path="url(#clip-path)">
    <path id="Trazado_1743" data-name="Trazado 1743" d="M42.345.57,62.224,24.5a1.581,1.581,0,0,1-.432,2.384l-3.986,2.27a1.581,1.581,0,0,0-.382,2.442L68.909,44.106a1.582,1.582,0,0,1-.523,2.515l-5.25,2.326a1.581,1.581,0,0,0-.449,2.591L75.823,64.029a1.582,1.582,0,0,1-.307,2.521l-3.771,2.141a1.582,1.582,0,0,0-.384,2.444L81.84,82.548A1.58,1.58,0,0,1,80.677,85.2H1.583A1.58,1.58,0,0,1,.42,82.548L10.9,71.133a1.582,1.582,0,0,0-.383-2.445l-3.9-2.213a1.582,1.582,0,0,1-.383-2.445L17.865,51.367a1.582,1.582,0,0,0-.381-2.443l-3.9-2.219a1.581,1.581,0,0,1-.381-2.443L24.836,31.6a1.582,1.582,0,0,0-.382-2.444l-4-2.272a1.579,1.579,0,0,1-.422-2.376L39.911.57a1.583,1.583,0,0,1,2.434,0" transform="translate(0 0)" fill="#9e7955"/>
    <path id="Trazado_1744" data-name="Trazado 1744" d="M90.94,230.947h8.518a1.58,1.58,0,0,1,1.58,1.58v5.632a1.58,1.58,0,0,1-1.58,1.58H90.94a1.58,1.58,0,0,1-1.58-1.58v-5.632a1.58,1.58,0,0,1,1.58-1.58" transform="translate(-54.069 -139.739)" fill="#9e7955"/>
  </g>
</svg>
