<svg id="Grupo_329" data-name="Grupo 329" xmlns="http://www.w3.org/2000/svg" xmlns:xlink="http://www.w3.org/1999/xlink" width="69.901" height="97.749" viewBox="0 0 69.901 97.749">
  <defs>
    <clipPath id="clip-path">
      <rect id="Rectángulo_159" data-name="Rectángulo 159" width="69.901" height="97.749" fill="#9e7955"/>
    </clipPath>
  </defs>
  <g id="Grupo_329-2" data-name="Grupo 329" clip-path="url(#clip-path)">
    <path id="Trazado_1741" data-name="Trazado 1741" d="M0,63.287A35.359,35.359,0,0,1,3.544,48.857C6.562,42.109,10.7,36.02,14.759,29.884c4.545-6.871,9.1-13.735,13.533-20.678a59.941,59.941,0,0,0,3.457-6.784c.662-1.4,1.56-2.408,3.187-2.423A3.39,3.39,0,0,1,38.2,2.447c2.634,6.221,6.471,11.74,10.155,17.349,4.877,7.423,9.83,14.8,14.562,22.312a45.911,45.911,0,0,1,6.239,14.723A31.6,31.6,0,0,1,65.483,79.7a34.088,34.088,0,0,1-26.3,17.75C20.962,99.907,3.426,86.771.584,68.639.307,66.868.191,65.071,0,63.287m59.362-2.7a12.915,12.915,0,0,0-.152-2.016,3.01,3.01,0,0,0-2.468-2.408,3.2,3.2,0,0,0-3.9,3.294A17.893,17.893,0,0,1,35.031,77.167a3.219,3.219,0,0,0-3.357,3.32,3.179,3.179,0,0,0,3.478,3.166,28.335,28.335,0,0,0,4.839-.524c10.968-2.41,18.477-11.217,19.371-22.543" transform="translate(0 0)" fill="#9e7955"/>
  </g>
</svg>
