<svg id="Grupo_327" data-name="Grupo 327" xmlns="http://www.w3.org/2000/svg" xmlns:xlink="http://www.w3.org/1999/xlink" width="97.717" height="97.719" viewBox="0 0 97.717 97.719">
  <defs>
    <clipPath id="clip-path">
      <rect id="Rectángulo_157" data-name="Rectángulo 157" width="97.717" height="97.719" fill="#9e7955"/>
    </clipPath>
  </defs>
  <g id="Grupo_327-2" data-name="Grupo 327" clip-path="url(#clip-path)">
    <path id="Trazado_1731" data-name="Trazado 1731" d="M125.741,0a27.865,27.865,0,0,1,4.01,1.4,11.517,11.517,0,0,1,6.626,10.4c.165,7.5.048,15.01.048,22.516a2.783,2.783,0,0,1-.027.334l-5.337,2.219a2.363,2.363,0,0,0-.4-.685c-5-5.026-10.04-10.02-15.029-15.061-3.5-3.535-4.676-7.778-3.167-12.524s4.884-7.525,9.786-8.438A2.835,2.835,0,0,0,122.688,0Z" transform="translate(-90.437)" fill="#9e7955"/>
    <path id="Trazado_1732" data-name="Trazado 1732" d="M0,122.591a32.981,32.981,0,0,1,.974-3.273c3.133-7.652,13.159-10.2,19.205-4.59,5.729,5.314,11.048,11.068,16.538,16.619l-2.089,4.984h-.888q-10.495,0-20.989,0A12.239,12.239,0,0,1,.161,125.973,1.417,1.417,0,0,0,0,125.644v-3.053" transform="translate(0 -90.34)" fill="#9e7955"/>
    <path id="Trazado_1733" data-name="Trazado 1733" d="M284.209,0c1.062.309,2.157.533,3.18.94C295.1,4,297.706,14.09,292.071,20.178c-5.308,5.734-11.066,11.051-16.611,16.536l-4.991-2.082V33.74q0-10.495,0-20.99A12.236,12.236,0,0,1,280.827.161,1.41,1.41,0,0,0,281.156,0Z" transform="translate(-218.754)" fill="#9e7955"/>
    <path id="Trazado_1734" data-name="Trazado 1734" d="M0,281.119c.191-.7.362-1.4.577-2.088a12.172,12.172,0,0,1,11.41-8.583c7.409-.047,14.819-.015,22.229-.014.186,0,.372.023.434.027l2.117,5.1c-.1.112-.305.347-.524.565q-7.486,7.49-14.977,14.976c-3.515,3.507-7.7,4.79-12.48,3.347-4.842-1.463-7.685-4.855-8.626-9.83a2.912,2.912,0,0,0-.16-.445v-3.053" transform="translate(0 -218.717)" fill="#9e7955"/>
    <path id="Trazado_1735" data-name="Trazado 1735" d="M318.623,275.6l2.129-5.112c.079-.006.353-.042.626-.042,7.246,0,14.491-.023,21.737,0a12.172,12.172,0,0,1,12.261,12.5,11.652,11.652,0,0,1-7.266,10.952c-4.625,2.071-9.205,1.541-12.893-1.875-5.73-5.307-11.122-10.978-16.593-16.431" transform="translate(-257.701 -218.724)" fill="#9e7955"/>
    <path id="Trazado_1736" data-name="Trazado 1736" d="M131.251,318.6l5.115,2.142c.006.093.037.371.037.649,0,7.246.023,14.492-.005,21.737a12.267,12.267,0,0,1-23.6,4.681,11.76,11.76,0,0,1,2.525-13.225c3.5-3.689,7.17-7.211,10.764-10.808,1.75-1.751,3.5-3.505,5.166-5.176" transform="translate(-90.414 -257.68)" fill="#9e7955"/>
    <path id="Trazado_1737" data-name="Trazado 1737" d="M320.571,136.44l-2.181-5.228c.374-.331.9-.747,1.367-1.217,4.815-4.8,9.591-9.645,14.441-14.412a12.281,12.281,0,0,1,20.717,5.99,12.2,12.2,0,0,1-11.384,14.863c-7.593.142-15.19.035-22.785.035a.563.563,0,0,1-.175-.03" transform="translate(-257.512 -90.486)" fill="#9e7955"/>
    <path id="Trazado_1738" data-name="Trazado 1738" d="M270.376,320.84l5.078-2.113c.071.061.268.21.441.383,5.125,5.122,10.282,10.213,15.36,15.382a12.285,12.285,0,0,1-6.042,20.7,12.215,12.215,0,0,1-14.837-11.422c-.127-7.561-.031-15.127-.031-22.69a1.107,1.107,0,0,1,.031-.243" transform="translate(-218.625 -257.785)" fill="#9e7955"/>
    <path id="Trazado_1739" data-name="Trazado 1739" d="M219.223,210.6a8.584,8.584,0,1,1-8.617,8.5,8.6,8.6,0,0,1,8.617-8.5" transform="translate(-170.337 -170.335)" fill="#9e7955"/>
  </g>
</svg>
