<svg xmlns="http://www.w3.org/2000/svg" xmlns:xlink="http://www.w3.org/1999/xlink" width="100.047" height="100" viewBox="0 0 100.047 100">
  <defs>
    <clipPath id="clip-path">
      <rect id="Rectángulo_164" data-name="Rectángulo 164" width="100.047" height="100" fill="#9e7955"/>
    </clipPath>
  </defs>
  <g id="Grupo_334" data-name="Grupo 334" clip-path="url(#clip-path)">
    <path id="Trazado_1748" data-name="Trazado 1748" d="M29.482,82.276V17.095c-5.594-2.381-6.754-7.78-5.2-11.608A8.829,8.829,0,0,1,34.673.286C39.5,1.554,41.659,5.539,40.81,11.71h1.07q9.67,0,19.34,0c2.348,0,3.46,1.114,3.461,3.468q0,11.179,0,22.359c0,2.355-1.113,3.472-3.459,3.472q-12.258,0-24.517,0H35.454V82.561c7.482,1.176,14.073,3.672,17.229,11.572H96.3c.325,0,.652-.014.976.008a2.927,2.927,0,0,1-.01,5.847c-.259.018-.521.008-.781.008q-46.445,0-92.891,0A5.969,5.969,0,0,1,2.33,99.92a2.919,2.919,0,0,1,.617-5.778c2.865-.027,5.73.005,8.6-.029.309,0,.813-.211.894-.442,1.574-4.43,4.844-7.206,9.016-8.918,2.533-1.039,5.248-1.637,8.028-2.477" transform="translate(0 0)" fill="#9e7955"/>
    <path id="Trazado_1749" data-name="Trazado 1749" d="M183.518,89.5c2.426,3.234,4.775,6.393,7.157,9.528a3.076,3.076,0,0,1,.559,3.523,3.113,3.113,0,0,1-3.1,1.608q-17.192-.025-34.384-.01c-2.278,0-3.406-1.137-3.409-3.424,0-2.728,0-5.455,0-8.213a43.628,43.628,0,0,0,4.419-.259,8.64,8.64,0,0,0,7.29-8.418c.048-2.6.013-5.207.014-7.811,0-.352,0-.7,0-1.126.382-.019.7-.047,1.011-.047,8.336,0,16.671.009,25.007-.013a3.027,3.027,0,0,1,2.564,5.167c-2.381,3.132-4.727,6.29-7.13,9.5" transform="translate(-91.527 -45.562)" fill="#9e7955"/>
  </g>
</svg>
