<svg id="Grupo_343" data-name="Grupo 343" xmlns="http://www.w3.org/2000/svg" xmlns:xlink="http://www.w3.org/1999/xlink" width="32.335" height="32.327" viewBox="0 0 32.335 32.327">
  <defs>
    <clipPath id="clip-path">
      <rect id="Rectángulo_174" data-name="Rectángulo 174" width="32.335" height="32.327" fill="#9e7955"/>
    </clipPath>
  </defs>
  <g id="Grupo_340" data-name="Grupo 340" clip-path="url(#clip-path)">
    <path id="Trazado_1755" data-name="Trazado 1755" d="M20.214,106.024q0,2.966,0,5.931a4.031,4.031,0,0,1-4.162,4.159q-5.95,0-11.9,0A4.03,4.03,0,0,1,.006,111.97q0-5.963,0-11.926a4.027,4.027,0,0,1,4.13-4.126q5.982,0,11.963,0a4.025,4.025,0,0,1,4.113,4.112q.005,3,0,5.994" transform="translate(-0.004 -83.79)" fill="#9e7955"/>
    <path id="Trazado_1756" data-name="Trazado 1756" d="M194.459,111.479v-10.9c-.151.146-.259.253-.371.356a1.365,1.365,0,0,1-1.931,0,1.339,1.339,0,0,1,.045-1.923q1.289-1.3,2.594-2.584a1.372,1.372,0,0,1,2.047,0q1.29,1.277,2.567,2.566a1.347,1.347,0,1,1-1.9,1.9,1.922,1.922,0,0,1-.221-.338l-.106.088v10.825l.088.079a2.849,2.849,0,0,1,.279-.365,1.341,1.341,0,0,1,1.9,0,1.328,1.328,0,0,1,0,1.9q-1.314,1.342-2.656,2.656a1.338,1.338,0,0,1-1.951-.005q-1.34-1.316-2.656-2.655a1.327,1.327,0,0,1,0-1.921,1.345,1.345,0,0,1,1.9.022c.11.106.2.23.3.346l.068-.053" transform="translate(-167.528 -83.841)" fill="#9e7955"/>
    <path id="Trazado_1757" data-name="Trazado 1757" d="M15.594,2.6a3.24,3.24,0,0,1-.363-.284A1.345,1.345,0,0,1,15.2.417,1.327,1.327,0,0,1,17.119.405q1.351,1.327,2.675,2.682a1.343,1.343,0,0,1,0,1.931q-1.312,1.343-2.656,2.655a1.344,1.344,0,1,1-1.883-1.917A2.828,2.828,0,0,1,15.6,5.5l-.075-.089H4.691L4.617,5.5a3.045,3.045,0,0,1,.365.283,1.343,1.343,0,1,1-1.9,1.9Q1.726,6.351.4,5a1.323,1.323,0,0,1,0-1.9Q1.741,1.73,3.107.4a1.322,1.322,0,0,1,1.9.021,1.342,1.342,0,0,1,0,1.878,3.915,3.915,0,0,1-.378.314l.064.079h10.83l.073-.087" transform="translate(0 0)" fill="#9e7955"/>
  </g>
</svg>
