<svg id="Grupo_336" data-name="Grupo 336" xmlns="http://www.w3.org/2000/svg" xmlns:xlink="http://www.w3.org/1999/xlink" width="59.943" height="59.934" viewBox="0 0 59.943 59.934">
  <defs>
    <clipPath id="clip-path">
      <rect id="Rectángulo_165" data-name="Rectángulo 165" width="59.943" height="59.934" fill="#9e7955"/>
    </clipPath>
  </defs>
  <g id="Grupo_335" data-name="Grupo 335" clip-path="url(#clip-path)">
    <path id="Trazado_1750" data-name="Trazado 1750" d="M13.2.01q4.124,0,8.248,0a4.6,4.6,0,0,1,4.9,4.913q.006,8.247,0,16.494A4.617,4.617,0,0,1,21.4,26.345q-8.219,0-16.438,0A4.618,4.618,0,0,1,0,21.369Q0,13.181,0,4.992a4.616,4.616,0,0,1,5-4.982q4.1,0,8.19,0" transform="translate(-0.002 -0.006)" fill="#9e7955"/>
    <path id="Trazado_1751" data-name="Trazado 1751" d="M169.64,13.234q0,4.094,0,8.188a4.606,4.606,0,0,1-4.9,4.915q-8.277.007-16.555,0a4.6,4.6,0,0,1-4.886-4.869q-.01-8.305,0-16.611A4.591,4.591,0,0,1,148.143.005q8.336-.011,16.672,0a4.578,4.578,0,0,1,4.823,4.806c.01,2.807,0,5.615,0,8.422" transform="translate(-109.7 0)" fill="#9e7955"/>
    <path id="Trazado_1752" data-name="Trazado 1752" d="M13.145,169.626q-4.124,0-8.248,0A4.6,4.6,0,0,1,0,164.712q0-8.247,0-16.494a4.609,4.609,0,0,1,4.944-4.927q8.219,0,16.438,0a4.625,4.625,0,0,1,4.957,4.976q0,8.189,0,16.377a4.622,4.622,0,0,1-5.007,4.982q-4.1,0-8.19,0" transform="translate(0 -109.694)" fill="#9e7955"/>
    <path id="Trazado_1753" data-name="Trazado 1753" d="M169.643,156.488q0,4.094,0,8.188a4.6,4.6,0,0,1-4.923,4.943q-8.248,0-16.5,0a4.6,4.6,0,0,1-4.919-4.892q-.007-8.276,0-16.552a4.6,4.6,0,0,1,4.868-4.888q8.307-.01,16.614,0a4.593,4.593,0,0,1,4.855,4.837c.008,2.788,0,5.576,0,8.364" transform="translate(-109.702 -109.688)" fill="#9e7955"/>
  </g>
</svg>
