<svg xmlns="http://www.w3.org/2000/svg" xmlns:xlink="http://www.w3.org/1999/xlink" width="22" height="28.661" viewBox="0 0 22 28.661">
  <defs>
    <clipPath id="clip-path">
      <rect id="Rectángulo_4" data-name="Rectángulo 4" width="22" height="28.661" fill="#9e7955"/>
    </clipPath>
  </defs>
  <g id="Grupo_11" data-name="Grupo 11" transform="translate(0 0)">
    <g id="Grupo_10" data-name="Grupo 10" transform="translate(0 0)" clip-path="url(#clip-path)">
      <path id="Trazado_89" data-name="Trazado 89" d="M17.455,23.046c-.023-.056.014-.108.08-.151-.044-.082-.082-.154-.121-.232a.11.11,0,0,1,0-.09c.019-.067.085-.134.063-.2s-.011-.131-.033-.194-.06-.12-.023-.191c.012-.025-.027-.049-.041-.072s-.03-.04-.015-.055c.08-.085-.01-.153.03-.232a1.252,1.252,0,0,1-.068-.338l-.034-.2a2.841,2.841,0,0,1-.052-.387,1.7,1.7,0,0,0-.07-.5.052.052,0,0,1,0-.057c.059-.064.018-.109-.023-.154a.4.4,0,0,1-.076-.135c-.041-.094-.025-.2-.089-.288-.034-.048.027-.093.06-.142l-.1-.109L17,19.253c-.033-.06-.094-.113-.083-.173a.567.567,0,0,0-.023-.168.239.239,0,0,0-.115-.217c.023-.025.059-.046.057-.061-.005-.068.045-.146-.034-.2-.019-.014-.038-.033-.03-.049.023-.053-.014-.09-.031-.134s-.072-.094-.031-.157a.032.032,0,0,0-.007-.044c-.089-.064-.086-.151-.11-.23a.293.293,0,0,1-.01-.254.111.111,0,0,0-.038-.13.617.617,0,0,1-.1-.151c-.03-.045-.025-.087.044-.136.052-.04.064-.08.015-.112a.072.072,0,0,1-.037-.1c.03-.074-.044-.134.007-.209.008-.014-.016-.027-.023-.042a.167.167,0,0,1-.03-.075c.008-.154-.131-.278-.09-.439,0-.007-.008-.014-.011-.02a.482.482,0,0,1-.042-.132,1.184,1.184,0,0,0-.034-.24c-.012-.05-.048-.1.01-.161.02-.023,0-.037-.022-.05s-.035-.022-.037-.037a2.322,2.322,0,0,1-.018-.323.384.384,0,0,0-.046-.245.125.125,0,0,1-.011-.08c.007-.067.037-.136-.01-.2a.034.034,0,0,1,0-.034c.052-.1-.011-.192-.022-.286-.018-.159-.116-.305-.079-.476l0-.011c-.071-.042-.031-.109-.049-.162a1.384,1.384,0,0,0-.049-.189.671.671,0,0,0-.115-.194c-.018-.018-.014-.045-.015-.068-.007-.087,0-.179-.01-.266a2.955,2.955,0,0,0-.067-.361c-.02-.074-.042-.147-.068-.221-.005-.018-.03-.029-.046-.045l.089-.094c-.015-.038-.025-.067-.037-.1-.031-.067-.063-.134-.1-.2a.147.147,0,0,1,0-.17c.01-.015.014-.038,0-.042-.1-.027-.031-.11-.1-.149-.01,0,0-.025.01-.034.042-.033.022-.052,0-.075-.034-.04-.063-.079-.091-.119a.058.058,0,0,1-.008-.023l.065-.042c-.01-.045-.029-.078-.019-.112a.782.782,0,0,0-.059-.455c-.031-.108-.053-.217-.075-.324-.011-.06,0-.124-.055-.172a.039.039,0,0,1,0-.044.19.19,0,0,0-.012-.191.08.08,0,0,1-.01-.09.124.124,0,0,0-.052-.183c-.025-.014-.027-.041-.053-.056-.106-.06-.055-.154-.056-.237.055-.052.015-.086-.016-.12s-.049-.029-.031-.059c.065-.112-.056-.2.023-.314.011-.016-.014-.035-.02-.055l-.023-.067a.409.409,0,0,0-.015-.179.794.794,0,0,1-.056-.236,1.443,1.443,0,0,0-.038-.228l-.127-.444c-.026-.089-.045-.179-.065-.269l-.019-.091c-.034-.187-.067-.375-.1-.563a.37.37,0,0,0,0-.04.364.364,0,0,0-.011-.065.127.127,0,0,0-.026-.078L14.467,6.6l.005-.033a.29.29,0,0,0-.055-.224.133.133,0,0,1-.044-.1.432.432,0,0,0-.016-.1l-.019-.161c0-.027,0-.055-.008-.08-.015-.067-.035-.132-.055-.2l0,0-.007-.01a1.17,1.17,0,0,1-.048-.215,1.83,1.83,0,0,0-.023-.194l-.018-.08a.041.041,0,0,0-.01-.038l-.093-.41a.124.124,0,0,0-.018-.08l-.007-.033c-.023-.13-.061-.256-.1-.383V4.21c0-.019.011-.044,0-.056a.054.054,0,0,1-.023-.023l-.01-.04c0-.015,0-.03,0-.045l-.033-.151c0-.02-.005-.041-.01-.064a.053.053,0,0,0-.005-.025l0-.031a1.252,1.252,0,0,0-.042-.222.488.488,0,0,1-.015-.149c-.005-.072.031-.153-.046-.21-.023-.019-.015-.052-.022-.078l-.067-.327a.519.519,0,0,1-.01-.091.437.437,0,0,0-.075-.251c-.02-.035-.049-.064-.02-.109.015-.023,0-.046,0-.07a.226.226,0,0,1-.015-.067.314.314,0,0,0-.1-.292c-.018-.015-.007-.044-.007-.067a1.251,1.251,0,0,0,.007-.247,2.441,2.441,0,0,0-.091-.309,1.53,1.53,0,0,1-.108-.33.049.049,0,0,0-.008-.034A.292.292,0,0,1,13.179.7c0-.07-.044-.132-.042-.2a.3.3,0,0,0-.049-.165l-.072.015V.338A.193.193,0,0,1,13,.2c.031-.119,0-.15-.13-.2-.055.034-.112.065-.16.1a.4.4,0,0,0-.059.072.128.128,0,0,1-.127.042.1.1,0,0,0-.093.029c-.035.04-.1.012-.139.041-.063.085-.136.168-.127.254,0,.031-.031.074-.068.108s-.053.07-.037.1.031.08.048.123l.207.011c.019.034.037.068.06.112a.528.528,0,0,1-.1.007c-.03-.005-.056-.025-.093,0a.075.075,0,0,0-.034.057.353.353,0,0,0,.034.086c.012.029.025.056.04.085a.441.441,0,0,0,.063.1c.035.035.055.07.012.121s-.026.11.019.154a.7.7,0,0,0,.079.055.15.15,0,0,0-.042.218c.029.056.05.113.074.172a.371.371,0,0,1,.025.075c.005.033.038.064-.018.1.025.033.053.064.074.1a.069.069,0,0,1,.011.056c-.014.049.044.076.057.115a.526.526,0,0,1,0,.139.079.079,0,0,0,.022.042l.1.138a.417.417,0,0,0-.045.1c-.008.048-.023.1,0,.138a.406.406,0,0,1,.061.15,3.409,3.409,0,0,1,.083.454c.01.139.094.263.07.409l.005.011c.031.063.065.125.093.189a.132.132,0,0,1,0,.07c0,.019-.023.045-.011.059.05.056.02.128.041.191a.849.849,0,0,1,.041.228,1.546,1.546,0,0,0,.1.466l.132.014a.66.66,0,0,0,.059.121.925.925,0,0,1,.05.128l0,.005.005,0a.239.239,0,0,1,.008.082.587.587,0,0,0,.019.184.253.253,0,0,1,.014.079.266.266,0,0,0,.031.158l-.061.031c-.005.041.035.057.065.079s.022.05.044.065a.68.68,0,0,0,.05.233.609.609,0,0,1,.041.143l.007.1a.153.153,0,0,0,.007.1l.008.143a.079.079,0,0,0,.026.053c.079.071.068.162.068.252a.205.205,0,0,0,.048.176l.011.015a.137.137,0,0,0,0,.041l.005.005v0a1.1,1.1,0,0,0,.04.249.761.761,0,0,1,.038.259.315.315,0,0,0,.035.157.576.576,0,0,1,.082.312.221.221,0,0,0,.03.132h0c-.011.03.008.06.018.089s.016.08.012.123a.142.142,0,0,0,0,.034L14,8.892a.2.2,0,0,1,.04.011c.012.071.04.138.057.207.01.041.007.087.04.12a.172.172,0,0,1,.041.131c0,.059-.029.127.005.174.07.09.029.206.116.29a.044.044,0,0,1,0,.046.245.245,0,0,0,.031.248.064.064,0,0,1,.012.056.138.138,0,0,0,.052.14.06.06,0,0,1,.022.064c-.053.134.033.245-.01.375a.027.027,0,0,0,.011.033c.061.033.046.078.031.128a.153.153,0,0,0,.034.157.071.071,0,0,1,.019.064c-.014.06.016.1.075.143.034.023.072.059.059.089a.205.205,0,0,0,.005.228c0,.005,0,.015,0,.023-.023.045,0,.076.041.1a.092.092,0,0,1,.02.12c-.033.089-.055.179.044.243a.026.026,0,0,1,.014.031c-.037.067.018.12,0,.184-.012.046.016.091.019.136,0,.1.1.176.01.271.025.042.064.071.055.1-.029.1.04.187.059.281,0,.014.022.025.035.037a.162.162,0,0,1,.056.2.287.287,0,0,0,.005.274.2.2,0,0,1,.042.154.438.438,0,0,0,.023.3,2.714,2.714,0,0,1,.068.326l.048.154c.02.07.044.138.059.209.005.02-.02.049-.015.07a.955.955,0,0,0,.064.281.215.215,0,0,1,.045.2.055.055,0,0,0,.016.064c.068.048.063.109.057.173a.562.562,0,0,0,0,.127l.064.352a.271.271,0,0,0,.1.187c.026.019.055.05.038.071-.056.074-.016.135-.033.2a.59.59,0,0,0,.015.289.613.613,0,0,1,.049.305.176.176,0,0,0,.029.158c.055.059.026.134.076.192.018.022.007.053.008.08,0,.065.005.131.007.2,0,.1.068.18.076.278a1.229,1.229,0,0,0,.064.384c.016.04.033.08.046.12a.332.332,0,0,1,.019.089.74.74,0,0,0,.027.274.489.489,0,0,1,.046.214.27.27,0,0,0,.053.2c.037.049.074.1.038.165-.018.033.01.068.015.1.012.059.063.112.027.18a.027.027,0,0,0,.005.033c.063.064.038.14.007.217a.078.078,0,0,0,.025.109c.038.025.041.059.053.091a.488.488,0,0,1,.026.286.843.843,0,0,0,.052.329.577.577,0,0,0,.059.2c.031.053.072.1.016.166a.047.047,0,0,0,0,.046l.091.391a1.01,1.01,0,0,1,.035.434.189.189,0,0,0,.026.146.237.237,0,0,1,.041.177c-.011.082-.035.166.041.234.019.016.012.044.012.067s-.019.044-.008.059c.063.079.026.174.03.262a.274.274,0,0,0,.17.237l.54-.085c.019-.018.061-.041.056-.053" transform="translate(4.377 -0.001)" fill="#9e7955"/>
      <path id="Trazado_90" data-name="Trazado 90" d="M17.615,20.5c-.035-.027-.018-.079.029-.14-.06-.037-.113-.071-.169-.1-.023-.012-.02-.037-.022-.064,0-.053.037-.13,0-.165s-.045-.085-.08-.117-.086-.053-.074-.12c0-.02-.037-.019-.055-.029s-.038-.014-.03-.03c.049-.1-.049-.1-.035-.172a.659.659,0,0,1-.151-.2l-.085-.123a1.525,1.525,0,0,1-.151-.241.861.861,0,0,0-.2-.311c-.01-.011-.02-.023-.011-.042.034-.071-.014-.083-.061-.094a.27.27,0,0,1-.1-.059c-.06-.045-.074-.125-.153-.157-.042-.016,0-.075.015-.124l-.121-.027.03-.063c-.044-.026-.112-.034-.119-.08s-.045-.07-.064-.1a.149.149,0,0,0-.16-.1c.015-.027.041-.059.035-.068-.023-.045,0-.121-.083-.123-.02,0-.042-.005-.04-.02.007-.046-.035-.055-.063-.076s-.089-.031-.068-.094a.019.019,0,0,0-.018-.026c-.1,0-.115-.065-.158-.109s-.094-.08-.075-.169c.01-.041-.025-.065-.067-.072a.366.366,0,0,1-.13-.057c-.038-.016-.044-.049,0-.115s.037-.085-.015-.083-.06-.018-.057-.049c.008-.064-.072-.072-.048-.147,0-.014-.022-.011-.031-.018s-.041-.019-.046-.038c-.033-.11-.188-.132-.192-.262,0-.007-.011-.007-.016-.01-.025-.023-.059-.04-.071-.071a.586.586,0,0,0-.093-.15c-.023-.03-.068-.048-.033-.116.012-.026-.008-.026-.033-.025s-.037,0-.041-.01a1.19,1.19,0,0,1-.1-.215.208.208,0,0,0-.1-.149.065.065,0,0,1-.029-.049c-.012-.049,0-.112-.059-.132-.01,0-.012-.012-.01-.023.018-.1-.06-.128-.093-.188-.059-.1-.181-.158-.192-.293l-.007-.005c-.072,0-.056-.061-.086-.09s-.048-.08-.091-.108a.408.408,0,0,0-.15-.083c-.02,0-.023-.025-.031-.04-.029-.057-.042-.124-.075-.18a1.619,1.619,0,0,0-.153-.219,1.372,1.372,0,0,0-.115-.121c-.01-.01-.035-.008-.053-.011.019-.038.04-.078.053-.106-.022-.019-.038-.034-.057-.048-.044-.033-.089-.065-.136-.1a.085.085,0,0,1-.046-.116c0-.015,0-.034-.01-.03-.1.029-.056-.063-.127-.057-.01,0-.008-.015,0-.027.029-.042.005-.048-.018-.055a1.163,1.163,0,0,1-.11-.04l-.012-.012c.018-.023.037-.048.046-.059-.019-.027-.045-.041-.045-.07a.432.432,0,0,0-.168-.29,1.779,1.779,0,0,1-.149-.189c-.026-.037-.029-.089-.093-.1-.012,0-.015-.015-.015-.027.005-.061-.007-.1-.059-.127-.023-.011-.04-.025-.031-.057.018-.071-.014-.1-.093-.1-.025,0-.034-.016-.06-.015-.109.007-.087-.082-.11-.138.035-.063-.008-.067-.045-.076-.019-.005-.05,0-.042-.027.029-.108-.1-.112-.06-.228.005-.018-.022-.019-.031-.029l-.038-.035a.214.214,0,0,0-.059-.117.394.394,0,0,1-.109-.138.886.886,0,0,0-.091-.14l-.226-.251c-.045-.05-.085-.1-.125-.157l-.041-.053c-.076-.116-.154-.23-.232-.346a.159.159,0,0,0-.008-.027.143.143,0,0,0-.027-.041.068.068,0,0,0-.042-.042l-.041-.034,0-.025a.158.158,0,0,0-.1-.131c-.033-.01-.059-.022-.065-.053s-.027-.041-.041-.063l-.057-.1c-.01-.018-.016-.037-.027-.053a1.276,1.276,0,0,0-.1-.11V9.979l-.008,0a.579.579,0,0,1-.1-.127,1.025,1.025,0,0,0-.071-.125l-.037-.046c0-.012-.007-.018-.018-.022l-.187-.243a.07.07,0,0,0-.037-.048l-.014-.019a2.394,2.394,0,0,0-.184-.221L9.642,9.1c0-.014,0-.035-.019-.035A.054.054,0,0,1,9.6,9.058l-.019-.022a.307.307,0,0,0-.015-.03L9.5,8.916c-.008-.014-.019-.026-.026-.04l-.011-.015-.012-.019a.655.655,0,0,0-.1-.135c-.029-.023-.035-.063-.052-.1s-.012-.12-.094-.125c-.026,0-.027-.027-.04-.044l-.145-.195a.249.249,0,0,1-.031-.06.255.255,0,0,0-.131-.139c-.029-.014-.061-.019-.048-.065.007-.022-.011-.033-.019-.045s-.027-.023-.031-.041A.178.178,0,0,0,8.6,7.742c-.02,0-.019-.027-.025-.044a.739.739,0,0,0-.059-.173,1.21,1.21,0,0,0-.162-.172c-.06-.06-.14-.1-.181-.179,0-.007-.005-.016-.015-.019a.161.161,0,0,1-.121-.124c-.016-.049-.072-.071-.09-.12a.157.157,0,0,0-.087-.09L7.8,6.865l0,0a.106.106,0,0,1-.05-.085c0-.1-.042-.1-.168-.08-.037.049-.079.1-.112.147a.431.431,0,0,0-.031.076.162.162,0,0,1-.1.09.134.134,0,0,0-.074.064c-.019.044-.085.057-.11.094-.031.089-.074.18-.042.234.012.02-.007.065-.03.106s-.029.074,0,.09a.749.749,0,0,1,.072.061l.184-.091.082.049a.72.72,0,0,1-.086.053c-.027.011-.056.01-.08.042a.057.057,0,0,0-.014.056.174.174,0,0,0,.05.044c.019.012.037.027.057.038a.256.256,0,0,0,.082.041c.04.008.065.022.041.078s.008.089.059.1a.532.532,0,0,0,.083,0c-.063.1-.03.139.02.17a1.1,1.1,0,0,1,.109.083.194.194,0,0,1,.041.041c.014.02.049.027.011.08a.536.536,0,0,1,.09.031A.041.041,0,0,1,7.9,8.51c0,.04.057.031.079.052s.025.064.038.1c0,.011.018.014.03.019l.128.046a.365.365,0,0,0-.015.089c.007.037.007.079.041.093a.219.219,0,0,1,.091.075,1.74,1.74,0,0,1,.191.275c.045.091.15.138.168.251l.007,0c.044.03.09.057.131.089a.081.081,0,0,1,.02.046c0,.015-.008.042.005.046.059.015.052.078.085.113A.441.441,0,0,1,9,9.941a.808.808,0,0,0,.213.274l.119-.052c.019.026.056.037.082.057a.531.531,0,0,1,.079.065l0,0h.007a.155.155,0,0,1,.029.053.319.319,0,0,0,.063.119.13.13,0,0,1,.033.048.141.141,0,0,0,.068.1c-.016.018-.031.034-.045.05,0,.031.045.023.078.025s.031.026.055.026a.345.345,0,0,0,.1.138.31.31,0,0,1,.072.08l.031.063a.08.08,0,0,0,.03.064l.044.1a.049.049,0,0,0,.037.025c.087.014.1.082.124.143.016.044.025.091.087.1l.012.007a.082.082,0,0,0,.011.027h.007v0a.612.612,0,0,0,.1.155.385.385,0,0,1,.1.162.163.163,0,0,0,.071.091.319.319,0,0,1,.151.179.122.122,0,0,0,.06.079c0,.027.023.038.04.053.007.031.034.049.041.08a.092.092,0,0,0,.008.023l-.018.052a.374.374,0,0,1,.037-.01,1.4,1.4,0,0,0,.1.117c.019.023.029.057.065.065s.056.041.07.072.008.1.05.117c.083.031.076.131.176.149.012,0,.015.018.014.031a.139.139,0,0,0,.093.157.039.039,0,0,1,.025.033c0,.045.03.067.08.074.022,0,.038.015.035.035-.012.116.091.154.087.264a.017.017,0,0,0,.018.018c.063-.005.061.031.061.074a.084.084,0,0,0,.07.093.039.039,0,0,1,.033.035c0,.048.041.064.1.065.035,0,.079.008.074.034-.015.079,0,.131.064.155.005,0,0,.011,0,.019-.01.041.023.05.064.053s.052.033.048.074c-.007.076,0,.15.1.149.012,0,.023.005.02.016-.014.061.046.074.048.127s.037.056.05.086c.029.064.135.075.078.184.033.018.075.019.076.045,0,.086.082.113.123.168.005.01.025.01.04.011.078.008.109.048.1.115a.169.169,0,0,0,.075.187c.038.02.078.04.078.087a.244.244,0,0,0,.1.2c.068.05.086.136.143.194l.08.085c.037.04.074.076.106.119.01.012-.005.042.005.055.045.052.057.13.128.165.049.023.1.052.091.116a.031.031,0,0,0,.03.037c.072,0,.083.048.1.094a.285.285,0,0,0,.035.086l.147.215a.162.162,0,0,0,.138.082c.027,0,.061.01.052.031-.029.076.022.1.025.154a.312.312,0,0,0,.089.192c.048.057.116.1.123.188a.1.1,0,0,0,.067.1c.063.016.057.082.116.1.022.007.02.034.029.052l.057.132c.027.065.108.093.14.155A.632.632,0,0,0,15,18a.763.763,0,0,1,.071.061.164.164,0,0,1,.041.052.391.391,0,0,0,.1.176.264.264,0,0,1,.1.125.152.152,0,0,0,.1.113c.046.016.093.033.079.1-.007.03.026.042.041.061.025.035.083.049.071.112a.015.015,0,0,0,.014.02c.072.015.071.079.063.146,0,.038.007.063.052.063s.052.022.072.038a.267.267,0,0,1,.1.185c.011.09.089.135.135.2a.3.3,0,0,0,.106.108c.041.023.09.035.057.108-.007.015,0,.025.01.033l.187.226a.551.551,0,0,1,.149.281.1.1,0,0,0,.063.087.125.125,0,0,1,.085.1c.014.061.015.13.1.14.02,0,.022.025.029.04s0,.04.01.044c.076.025.071.108.1.165s.1.1.214.083l.45-.309c.014-.022.044-.056.035-.063" transform="translate(2.565 2.429)" fill="#9e7955"/>
      <path id="Trazado_91" data-name="Trazado 91" d="M18.449,20.728c-.05-.026-.053-.087-.029-.162-.083-.034-.157-.063-.233-.087-.029-.011-.04-.038-.052-.068-.029-.059-.022-.151-.08-.184s-.091-.083-.147-.112-.12-.04-.14-.115c-.007-.025-.05-.014-.075-.02s-.048,0-.046-.025c0-.113-.106-.1-.131-.177a1.172,1.172,0,0,1-.273-.173l-.159-.108a2.833,2.833,0,0,1-.3-.209,1.409,1.409,0,0,0-.39-.262.047.047,0,0,1-.035-.038c-.005-.085-.064-.082-.12-.078a.365.365,0,0,1-.142-.026c-.09-.026-.151-.1-.251-.109-.056,0-.045-.078-.057-.132l-.143.015c0-.031,0-.056-.005-.075-.06-.011-.136,0-.169-.042s-.087-.055-.13-.085a.2.2,0,0,0-.219-.044c0-.033.008-.074,0-.082-.049-.038-.07-.123-.157-.1-.02.007-.046.01-.053-.007-.019-.05-.07-.045-.109-.059s-.11,0-.125-.071a.027.027,0,0,0-.034-.022c-.1.029-.157-.029-.226-.057s-.145-.053-.176-.149a.094.094,0,0,0-.112-.05.509.509,0,0,1-.168-.016c-.049,0-.075-.034-.064-.117.007-.063-.011-.1-.064-.079a.064.064,0,0,1-.089-.031c-.03-.068-.117-.049-.135-.135,0-.015-.029,0-.042-.007s-.053-.007-.071-.025c-.1-.1-.271-.072-.352-.2,0-.007-.014,0-.02-.005a.338.338,0,0,1-.116-.049,1.012,1.012,0,0,0-.183-.121c-.041-.023-.1-.027-.1-.108,0-.03-.023-.025-.046-.015s-.038.012-.049.005a2.11,2.11,0,0,1-.226-.189.334.334,0,0,0-.195-.117.1.1,0,0,1-.059-.04c-.041-.048-.068-.113-.138-.116a.027.027,0,0,1-.023-.02c-.035-.1-.135-.112-.2-.162-.119-.086-.278-.1-.368-.237l-.01,0c-.074.026-.093-.044-.14-.063a.9.9,0,0,0-.157-.082.551.551,0,0,0-.2-.035c-.023,0-.038-.018-.055-.031-.063-.049-.116-.113-.181-.159a2.638,2.638,0,0,0-.284-.174c-.063-.031-.125-.063-.191-.089-.015-.007-.04,0-.06.007,0-.046,0-.091-.005-.125-.034-.012-.06-.025-.087-.031-.064-.019-.13-.038-.2-.053s-.1-.03-.115-.1c0-.016-.016-.035-.027-.029-.086.06-.093-.046-.164-.016-.01,0-.018-.015-.016-.03.007-.052-.02-.049-.049-.049-.048,0-.093,0-.139-.007a.04.04,0,0,1-.018-.007c0-.03.011-.061.014-.076-.035-.022-.07-.026-.086-.056a.648.648,0,0,0-.339-.243c-.091-.045-.177-.1-.264-.149-.045-.029-.078-.08-.149-.068-.014,0-.025-.01-.031-.023a.165.165,0,0,0-.134-.112.064.064,0,0,1-.065-.049c-.02-.076-.072-.1-.154-.075-.026.008-.045-.007-.072,0-.11.042-.138-.056-.194-.106,0-.074-.046-.067-.089-.065-.023,0-.052.019-.061-.014-.03-.119-.166-.082-.189-.214,0-.019-.033-.012-.049-.018l-.06-.027a.331.331,0,0,0-.127-.1.593.593,0,0,1-.192-.108,1.325,1.325,0,0,0-.174-.115l-.376-.187c-.075-.038-.147-.08-.221-.123l-.072-.041L5.794,12.7a.246.246,0,0,0-.025-.027.308.308,0,0,0-.052-.034.105.105,0,0,0-.068-.03l-.061-.022a.138.138,0,0,1-.018-.025.241.241,0,0,0-.183-.1.112.112,0,0,1-.1-.034.328.328,0,0,0-.078-.053l-.119-.087a.665.665,0,0,0-.059-.045c-.053-.031-.109-.057-.165-.083v-.005H4.857a.945.945,0,0,1-.172-.1,1.767,1.767,0,0,0-.143-.106l-.065-.037a.033.033,0,0,0-.031-.018l-.33-.191a.1.1,0,0,0-.064-.038l-.026-.016c-.1-.064-.209-.116-.316-.17l-.026-.023c-.011-.014-.02-.035-.04-.031a.05.05,0,0,1-.031,0L3.581,11.4a.293.293,0,0,0-.033-.025l-.12-.072-.048-.034-.02-.012-.023-.015a.967.967,0,0,0-.174-.11.415.415,0,0,1-.108-.083c-.05-.042-.079-.119-.168-.1-.027.007-.044-.02-.065-.033l-.259-.157a.4.4,0,0,1-.067-.052.374.374,0,0,0-.214-.1c-.037-.007-.075,0-.086-.055-.005-.025-.029-.03-.046-.041s-.04-.015-.053-.031a.266.266,0,0,0-.256-.113c-.022,0-.034-.023-.049-.038a1.1,1.1,0,0,0-.158-.161,1.734,1.734,0,0,0-.263-.127,1.31,1.31,0,0,1-.288-.131c-.008-.005-.016-.015-.027-.015a.247.247,0,0,1-.2-.093C.815,9.757.744,9.751.7,9.706a.244.244,0,0,0-.14-.068L.519,9.7h0a.17.17,0,0,1-.1-.074c-.057-.1-.1-.093-.219-.033-.014.061-.031.125-.04.183a.316.316,0,0,0,.008.09.137.137,0,0,1-.057.121.112.112,0,0,0-.042.087c0,.05-.059.083-.065.128.015.1.02.207.083.255.023.018.029.07.026.119s.011.085.044.093.072.029.112.044c.046-.049.094-.1.145-.149l.113.027a.517.517,0,0,1-.063.079c-.023.019-.053.027-.061.067a.068.068,0,0,0,.015.063.249.249,0,0,0,.079.029c.026.008.053.018.08.025a.4.4,0,0,0,.108.018c.048,0,.083,0,.087.067s.056.09.116.085A.834.834,0,0,0,.971,11c-.011.121.046.153.115.169a1.618,1.618,0,0,1,.162.055.257.257,0,0,1,.065.029c.026.018.067.014.056.08a1.015,1.015,0,0,1,.113.005.063.063,0,0,1,.044.027c.023.041.079.016.113.03s.06.06.093.087a.066.066,0,0,0,.041.011l.161.01a.356.356,0,0,0,.034.1c.026.035.05.08.094.083a.347.347,0,0,1,.138.05,2.636,2.636,0,0,1,.353.226c.1.08.236.1.315.207l.011,0c.061.016.125.031.185.052a.115.115,0,0,1,.048.041c.012.014.015.046.031.046.071,0,.1.065.153.091a.73.73,0,0,1,.176.113,1.336,1.336,0,0,0,.376.218l.1-.09a.816.816,0,0,0,.12.034.707.707,0,0,1,.117.042v.005h.005a.216.216,0,0,1,.06.045.449.449,0,0,0,.132.1.2.2,0,0,1,.06.041.228.228,0,0,0,.127.076c-.007.023-.015.045-.02.065.023.031.061.011.1,0s.046.016.072.011a.557.557,0,0,0,.187.109.52.52,0,0,1,.12.06l.068.056a.134.134,0,0,0,.067.056l.1.085a.067.067,0,0,0,.052.015c.1-.014.153.052.211.108.041.04.078.086.147.076a.021.021,0,0,1,.016,0,.1.1,0,0,0,.029.025h.01a.942.942,0,0,0,.191.13.583.583,0,0,1,.195.135.258.258,0,0,0,.127.072.479.479,0,0,1,.259.136.185.185,0,0,0,.108.061h0c.012.029.045.033.071.044.025.03.063.04.087.07.007.008.015.014.022.02s.008.041.011.06a.141.141,0,0,1,.034-.022c.055.035.116.057.173.089.034.018.063.05.1.046a.142.142,0,0,1,.113.052c.04.037.065.1.119.1.106.007.155.11.269.1.016,0,.026.012.033.026a.211.211,0,0,0,.185.134.051.051,0,0,1,.045.026.118.118,0,0,0,.127.05.051.051,0,0,1,.057.023c.052.123.183.131.241.243a.02.02,0,0,0,.027.012c.063-.025.083.015.106.057a.124.124,0,0,0,.125.074.06.06,0,0,1,.055.026c.031.048.08.053.145.034.038-.01.087-.018.1.014A.175.175,0,0,0,9,15.606c.007,0,.011.011.014.018.014.046.052.045.1.035s.072.016.093.061c.035.079.082.153.189.119.011,0,.026,0,.029.01.02.07.091.061.123.116.023.038.071.045.1.072.067.055.184.033.187.162.044.008.089,0,.1.023.049.087.149.089.224.132.011.007.031,0,.048,0a.139.139,0,0,1,.172.085.247.247,0,0,0,.185.168.161.161,0,0,1,.131.064.363.363,0,0,0,.214.169c.1.03.168.112.26.153l.134.06c.06.029.121.055.179.086.018.01.019.046.037.055.079.04.135.115.229.127a.181.181,0,0,1,.162.09.046.046,0,0,0,.053.027c.076-.022.115.022.153.064a.425.425,0,0,0,.087.078l.277.17a.233.233,0,0,0,.192.04c.029-.008.068-.011.072.014.012.089.079.1.113.15a.473.473,0,0,0,.2.166c.083.044.18.065.237.153a.145.145,0,0,0,.124.076c.075-.005.106.063.179.061.026,0,.04.027.059.044l.138.115c.067.059.166.06.237.113a.985.985,0,0,0,.3.188c.038.012.075.023.11.038a.26.26,0,0,1,.074.041.611.611,0,0,0,.2.147.391.391,0,0,1,.174.1.233.233,0,0,0,.169.08c.056,0,.113,0,.136.071.011.034.052.035.079.05.048.027.116.022.139.09a.023.023,0,0,0,.026.016c.083-.01.12.056.15.127.018.04.042.061.089.046a.133.133,0,0,1,.1.016.4.4,0,0,1,.207.157c.061.089.166.108.251.161a.5.5,0,0,0,.169.078c.055.01.113.008.119.091,0,.018.016.025.027.031l.311.177a.776.776,0,0,1,.294.254.159.159,0,0,0,.106.075.187.187,0,0,1,.136.086c.04.061.072.132.166.127.023,0,.034.02.048.035s.011.042.027.044c.093.011.117.1.17.157a.236.236,0,0,0,.258.053l.364-.408c.005-.026.023-.07.012-.075" transform="translate(0 3.469)" fill="#9e7955"/>
      <path id="Trazado_92" data-name="Trazado 92" d="M16.933,19.866c-.041.008-.065-.041-.076-.116-.063.019-.119.035-.176.056-.022.007-.038-.011-.056-.029-.038-.035-.064-.116-.112-.112s-.086-.025-.13-.019-.09.026-.127-.029c-.012-.018-.037.015-.056.02s-.031.019-.038,0c-.033-.1-.1-.031-.138-.09a.6.6,0,0,1-.23-.025l-.138-.023a1.19,1.19,0,0,1-.256-.053.772.772,0,0,0-.334-.068.029.029,0,0,1-.035-.02c-.025-.074-.064-.046-.1-.019a.243.243,0,0,1-.1.037c-.07.012-.131-.033-.2,0-.038.02-.05-.052-.074-.1-.031.023-.064.046-.1.071-.01-.027-.016-.049-.023-.065-.045.014-.094.059-.128.033s-.075-.016-.112-.026a.132.132,0,0,0-.165.05c-.01-.029-.014-.07-.025-.072-.044-.014-.079-.083-.135-.023-.012.014-.03.026-.038.015-.026-.038-.06-.012-.091-.008s-.078.044-.106-.014a.018.018,0,0,0-.03-.005c-.063.067-.116.038-.172.042s-.116.011-.162-.063c-.02-.034-.059-.027-.09,0s-.082.035-.123.055-.06,0-.074-.08c-.011-.06-.033-.083-.065-.045s-.05.031-.07.007c-.038-.049-.094,0-.128-.067-.007-.011-.022.01-.033.012s-.038.015-.055.005c-.094-.052-.21.046-.3-.04l-.016,0a.2.2,0,0,1-.093,0,.589.589,0,0,0-.158-.035c-.035,0-.076.016-.1-.056-.008-.026-.022-.012-.037.005s-.023.029-.033.026a1.179,1.179,0,0,1-.206-.078.182.182,0,0,0-.166-.026.058.058,0,0,1-.052-.014c-.04-.025-.076-.074-.125-.048-.007,0-.015,0-.02-.01-.052-.08-.124-.046-.185-.063-.1-.029-.221.02-.318-.064h-.007c-.046.056-.076,0-.115,0s-.085-.022-.131-.008a.364.364,0,0,0-.153.052c-.016.012-.031,0-.046-.005a1.506,1.506,0,0,0-.168-.071,1.457,1.457,0,0,0-.243-.042,1.477,1.477,0,0,0-.155,0c-.012,0-.027.02-.042.031-.012-.042-.025-.082-.033-.112-.029,0-.049,0-.07.007-.05.01-.1.019-.151.033a.078.078,0,0,1-.108-.046c-.005-.014-.019-.026-.026-.015-.045.09-.076,0-.12.052-.005.007-.015-.005-.018-.019-.008-.05-.027-.037-.046-.026a1,1,0,0,1-.1.052.028.028,0,0,1-.015,0c0-.029-.008-.06-.01-.075-.03-.005-.055,0-.074-.015a.373.373,0,0,0-.3-.082A1.52,1.52,0,0,1,8.47,18.4c-.04-.005-.075-.04-.121,0-.01.007-.02,0-.027-.01-.037-.046-.072-.065-.121-.046a.04.04,0,0,1-.059-.018c-.034-.061-.076-.063-.128-.005-.016.019-.033.014-.049.033-.068.083-.112.005-.164-.018-.015-.068-.048-.04-.078-.022s-.033.038-.046.014c-.05-.1-.139-.008-.187-.116-.007-.016-.026,0-.04,0H7.4a.193.193,0,0,0-.113-.04.326.326,0,0,1-.162-.018.653.653,0,0,0-.151-.033l-.312-.015c-.061,0-.123-.012-.184-.019l-.061-.01c-.125-.025-.252-.048-.376-.076a.119.119,0,0,0-.025-.015.155.155,0,0,0-.044-.008.055.055,0,0,0-.056,0l-.049.005-.019-.016a.134.134,0,0,0-.153-.016c-.029.016-.055.026-.078.01s-.045-.011-.068-.016l-.1-.03a.331.331,0,0,0-.052-.018c-.045-.005-.091-.007-.138-.008v0l-.008,0a.531.531,0,0,1-.146-.02.862.862,0,0,0-.128-.038l-.053-.007a.021.021,0,0,0-.027,0l-.279-.038a.066.066,0,0,0-.055-.008l-.023,0a2.12,2.12,0,0,0-.264-.026l-.023-.011c-.012-.007-.025-.023-.035-.011a.063.063,0,0,1-.022.015l-.027,0a.236.236,0,0,0-.029-.01l-.1-.016c-.014,0-.029-.005-.042-.011l-.018,0-.02,0a.561.561,0,0,0-.15-.029c-.033,0-.064-.019-.1-.031s-.085-.075-.143-.02c-.018.016-.035,0-.055,0l-.221-.037a.174.174,0,0,1-.059-.019.217.217,0,0,0-.177-.005c-.029.01-.055.027-.074-.014-.01-.02-.029-.015-.044-.019s-.031,0-.045-.005a.156.156,0,0,0-.209,0c-.015.012-.03-.005-.044-.014a.764.764,0,0,0-.15-.08,1.055,1.055,0,0,0-.218-.008.712.712,0,0,1-.234,0c-.008,0-.015-.007-.023,0a.139.139,0,0,1-.161,0c-.042-.023-.1,0-.138-.022a.137.137,0,0,0-.116,0l-.012.071h0a.092.092,0,0,1-.087-.026c-.064-.064-.093-.042-.165.061,0,.061.007.125.015.181a.306.306,0,0,0,.027.078.186.186,0,0,1-.012.132.138.138,0,0,0-.01.1c.012.044-.023.1-.018.143.034.085.063.179.119.2.02.005.037.052.046.1s.027.072.053.067a.631.631,0,0,1,.09-.008c.022-.061.044-.125.068-.192l.086-.022a.927.927,0,0,1-.025.1.138.138,0,0,0-.029.086c0,.027.014.046.026.05a.168.168,0,0,0,.063-.005c.02,0,.042-.007.063-.012a.218.218,0,0,0,.082-.029c.033-.023.059-.03.078.026s.061.059.1.029a.809.809,0,0,0,.057-.059c.019.115.068.12.121.106a1.008,1.008,0,0,1,.127-.016.147.147,0,0,1,.055,0c.022.005.05-.015.059.049a.762.762,0,0,1,.082-.041.036.036,0,0,1,.038.008c.026.026.059-.019.087-.019s.057.027.086.041c.01,0,.022,0,.033-.008l.116-.057a.349.349,0,0,0,.048.072c.027.022.055.052.086.038a.185.185,0,0,1,.11-.011,1.549,1.549,0,0,1,.305.059c.089.033.189-.008.273.06h.008c.048-.011.1-.025.145-.031a.07.07,0,0,1,.044.019c.012.007.022.035.034.027.049-.03.085.02.13.022a.362.362,0,0,1,.151.03.737.737,0,0,0,.32.042c.019-.05.034-.089.046-.12a.462.462,0,0,0,.093-.018.453.453,0,0,1,.094-.011l0,.005,0,0a.106.106,0,0,1,.053.016.266.266,0,0,0,.119.04.12.12,0,0,1,.053.011.122.122,0,0,0,.108.018v.067c.023.019.045-.015.068-.037s.037,0,.053-.02a.3.3,0,0,0,.159.022.3.3,0,0,1,.1.005l.061.023a.076.076,0,0,0,.061.023l.091.035a.04.04,0,0,0,.04-.008c.068-.053.121-.015.176.012.038.019.076.046.123.008l.012-.005a.075.075,0,0,0,.026.012l.005,0h0a.5.5,0,0,0,.166.038.338.338,0,0,1,.172.042.144.144,0,0,0,.106.014.261.261,0,0,1,.217.018.1.1,0,0,0,.091.011c.016.02.04.012.061.011.025.016.055.008.078.026l.022.011.022.049a.151.151,0,0,1,.019-.034,1,1,0,0,0,.145.008c.027,0,.056.02.086,0s.063-.012.093,0,.07.064.109.045c.076-.037.136.037.214-.02.01-.008.02,0,.029.01a.124.124,0,0,0,.164.045.031.031,0,0,1,.038.005c.03.029.064.025.1-.007.016-.014.035-.016.048,0,.067.089.161.042.229.121a.014.014,0,0,0,.023,0c.038-.048.061-.02.089.008a.072.072,0,0,0,.106.015.039.039,0,0,1,.046,0c.033.031.07.015.11-.027.025-.026.056-.052.071-.029.041.064.087.087.143.063.005,0,.01,0,.014.01.022.037.048.019.076-.007s.056-.016.08.016c.045.057.1.1.164.031.008-.01.018-.012.023,0,.031.055.079.018.115.055s.061.011.09.023c.061.023.138-.046.172.071.034-.011.063-.041.08-.022.056.057.127.018.191.027.01,0,.022-.011.033-.022.056-.049.1-.045.142.007a.149.149,0,0,0,.173.075c.037-.014.075-.029.108,0a.2.2,0,0,0,.192.065c.079-.014.147.033.222.033H11c.049,0,.1,0,.146,0,.015,0,.026.034.041.035.064,0,.123.048.192.019.048-.019.1-.031.136.015a.027.027,0,0,0,.045,0c.048-.049.086-.026.124,0a.234.234,0,0,0,.08.035l.237.041a.148.148,0,0,0,.145-.044c.019-.019.046-.038.055-.016.031.074.08.053.117.089a.276.276,0,0,0,.185.067c.07.005.143-.015.206.041a.086.086,0,0,0,.106.019c.05-.035.091.012.14-.019.019-.011.035.01.053.015l.125.049c.061.026.131-.015.195,0a.548.548,0,0,0,.259.048.632.632,0,0,1,.087-.01.148.148,0,0,1,.06.005.337.337,0,0,0,.18.05.223.223,0,0,1,.146.015.131.131,0,0,0,.139,0c.041-.022.082-.044.115.008.016.027.045.011.068.014.041.005.086-.029.12.025a.016.016,0,0,0,.023,0c.056-.044.1,0,.138.052.023.03.046.04.075.005s.048-.022.072-.025a.231.231,0,0,1,.187.055c.068.053.147.027.221.038a.273.273,0,0,0,.14,0c.042-.015.082-.041.109.03.005.016.019.015.029.016l.271.018a.481.481,0,0,1,.284.08.09.09,0,0,0,.1.014.114.114,0,0,1,.123.007c.049.033.1.076.158.022.015-.014.031,0,.046.005s.022.03.034.023c.067-.04.117.02.174.04s.124-.005.192-.1l.075-.541c-.007-.025-.011-.07-.02-.068" transform="translate(0.482 6.309)" fill="#9e7955"/>
      <path id="Trazado_93" data-name="Trazado 93" d="M20.689,7.971c-.072.007-.121-.042-.151-.119l-.305.053a.164.164,0,0,1-.1-.029c-.072-.037-.134-.12-.218-.117s-.158-.016-.237-.008-.155.035-.233-.015c-.026-.016-.063.019-.1.026s-.053.022-.067.005c-.083-.1-.184-.022-.27-.076a2.051,2.051,0,0,1-.419.026l-.251.008c-.158,0-.316.02-.473.019a2.444,2.444,0,0,0-.615.048.088.088,0,0,1-.07-.005c-.072-.059-.131-.016-.187.027a.611.611,0,0,1-.168.08,1.811,1.811,0,0,0-.349.1c-.059.035-.11-.027-.17-.056-.045.04-.089.08-.132.117l-.067-.046c-.072.038-.135.106-.206.1a.825.825,0,0,0-.2.04.31.31,0,0,0-.254.139c-.03-.019-.057-.052-.076-.048-.079.015-.174-.02-.236.067-.014.02-.035.044-.056.038-.064-.015-.106.03-.157.053s-.1.089-.183.057a.044.044,0,0,0-.052.015.539.539,0,0,1-.258.162.417.417,0,0,1-.3.067.152.152,0,0,0-.146.07.944.944,0,0,1-.164.136c-.045.044-.1.05-.165,0-.053-.041-.1-.041-.13.018a.1.1,0,0,1-.1.064c-.09-.007-.146.083-.244.056-.016-.005-.027.025-.042.035a.257.257,0,0,1-.083.052c-.18.04-.288.228-.48.244-.01,0-.014.012-.022.018a.649.649,0,0,1-.139.089,1.223,1.223,0,0,0-.263.124c-.053.033-.1.089-.183.059-.031-.011-.042.015-.05.042s-.015.044-.03.05a3.317,3.317,0,0,1-.357.154.491.491,0,0,0-.258.158.17.17,0,0,1-.083.048c-.075.027-.162.033-.211.1a.045.045,0,0,1-.037.016c-.134,0-.209.1-.308.162-.165.1-.281.274-.478.334a.013.013,0,0,0-.011.01c-.016.089-.1.089-.153.135a1.015,1.015,0,0,0-.179.155.913.913,0,0,0-.151.222c-.011.026-.04.038-.063.055-.087.059-.187.1-.273.169a2.813,2.813,0,0,0-.33.294c-.065.067-.128.135-.188.206a.207.207,0,0,0-.022.071l-.139-.014c-.031.038-.056.065-.076.1-.048.075-.1.15-.14.229a.2.2,0,0,1-.162.125c-.019,0-.045.015-.041.029.03.108-.09.106-.087.192,0,.012-.022.019-.038.016-.055-.012-.063.02-.075.053-.019.059-.038.112-.057.166a.1.1,0,0,1-.015.022c-.03-.007-.061-.016-.076-.02-.037.041-.055.083-.091.1a1.15,1.15,0,0,0-.386.4c-.074.113-.154.219-.236.324-.044.059-.11.1-.116.185,0,.018-.018.03-.035.038a.269.269,0,0,0-.158.166.113.113,0,0,1-.068.086.167.167,0,0,0-.116.2c0,.031-.018.056-.012.087.022.134-.091.174-.158.248-.08,0-.082.064-.089.116-.005.027.011.063-.026.076-.132.052-.115.219-.26.266-.022.007-.019.042-.029.063l-.037.079a.606.606,0,0,0-.13.173,1.423,1.423,0,0,1-.136.259,2.614,2.614,0,0,0-.139.24c-.078.169-.159.337-.225.511l-.136.3-.046.1c-.106.2-.2.416-.293.624-.008.012-.019.025-.027.038a.733.733,0,0,0-.033.075.182.182,0,0,0-.029.094l-.02.083-.026.03a.371.371,0,0,0-.091.262A.2.2,0,0,1,4.7,18.3a.571.571,0,0,0-.046.116l-.078.177c-.014.03-.031.059-.042.089-.026.078-.049.157-.068.237l-.005,0v.014a1.805,1.805,0,0,1-.075.254,2.284,2.284,0,0,0-.086.219l-.027.1a.06.06,0,0,0-.012.046c-.05.161-.087.326-.128.489a.207.207,0,0,0-.025.1l-.01.041c-.041.153-.074.308-.1.465l-.016.041c-.008.022-.029.044-.019.064a.11.11,0,0,1,.011.037l-.01.048a.433.433,0,0,0-.015.052l-.038.183-.019.075a.119.119,0,0,0-.007.03l-.01.037a1.743,1.743,0,0,0-.059.266.728.728,0,0,1-.044.174c-.023.083-.089.159-.04.256.015.03-.005.063-.01.1-.02.132-.045.264-.063.4a.594.594,0,0,1-.022.109.665.665,0,0,0-.015.315c.008.048.026.09-.016.134-.02.02-.018.052-.022.079a.327.327,0,0,1-.008.082.424.424,0,0,0,.005.369c.014.025-.005.055-.012.08a1.8,1.8,0,0,0-.076.285,2.178,2.178,0,0,0,.005.389,2.244,2.244,0,0,1,.027.416.083.083,0,0,0,0,.041.414.414,0,0,1,.015.286c-.016.082.018.166.005.248a.408.408,0,0,0,.018.206l.074,0v.007a.288.288,0,0,1-.008.162c-.052.132-.023.177.091.266.059-.027.123-.055.176-.086.031-.019.045-.048.071-.071a.11.11,0,0,1,.131-.023.09.09,0,0,0,.1-.014c.041-.037.1.007.145-.018.076-.085.164-.161.17-.26,0-.035.044-.076.086-.1s.065-.067.055-.108-.016-.1-.025-.147l-.2-.06-.031-.14a.664.664,0,0,1,.1.016c.027.014.049.041.089.025a.079.079,0,0,0,.046-.056.385.385,0,0,0-.012-.1c-.005-.034-.011-.068-.019-.1a.552.552,0,0,0-.038-.128c-.026-.049-.037-.093.016-.138a.122.122,0,0,0,.016-.176.7.7,0,0,0-.061-.083.182.182,0,0,0,.1-.226c-.012-.071-.015-.14-.022-.211a.5.5,0,0,1,0-.09c0-.038-.018-.082.046-.108-.015-.044-.034-.086-.045-.13a.087.087,0,0,1,.008-.064c.029-.049-.015-.1-.016-.145a.638.638,0,0,1,.045-.151.1.1,0,0,0-.007-.053c-.016-.061-.035-.124-.053-.187a.453.453,0,0,0,.075-.09.235.235,0,0,0,.041-.151.458.458,0,0,1,0-.183,4.44,4.44,0,0,1,.1-.518,1.664,1.664,0,0,1,.1-.461v-.014c0-.08-.005-.161,0-.24a.174.174,0,0,1,.027-.074c.01-.02.04-.038.034-.057-.022-.082.037-.143.049-.217a1.193,1.193,0,0,1,.072-.254,2.252,2.252,0,0,0,.131-.53c-.045-.031-.079-.056-.108-.078a1.116,1.116,0,0,0,.014-.154,1.036,1.036,0,0,1,.023-.157l0,0,0-.005a.309.309,0,0,1,.035-.087.736.736,0,0,0,.08-.2.356.356,0,0,1,.03-.086.366.366,0,0,0,.063-.176h.07c.03-.037,0-.075-.01-.113s.011-.061,0-.09a.852.852,0,0,0,.09-.258.956.956,0,0,1,.048-.165c.016-.033.035-.064.053-.1a.208.208,0,0,0,.055-.1l.082-.143a.089.089,0,0,0,.011-.065.392.392,0,0,1,.1-.282.293.293,0,0,0,.075-.2.052.052,0,0,1,0-.02.221.221,0,0,0,.027-.038v-.01l0,0a1.494,1.494,0,0,0,.135-.258.943.943,0,0,1,.142-.263.508.508,0,0,0,.08-.166.749.749,0,0,1,.159-.333.308.308,0,0,0,.072-.14c.03-.02.037-.06.049-.093.034-.034.045-.083.08-.115.01-.01.016-.02.025-.03L6.769,16a.136.136,0,0,1-.019-.037c.045-.068.075-.145.115-.217.023-.042.061-.08.063-.131a.214.214,0,0,1,.07-.14c.044-.05.113-.089.127-.153.026-.123.146-.188.154-.323a.055.055,0,0,1,.034-.04.319.319,0,0,0,.176-.226.084.084,0,0,1,.037-.056.179.179,0,0,0,.082-.149.078.078,0,0,1,.041-.067c.145-.063.184-.215.32-.284a.033.033,0,0,0,.019-.033c-.011-.074.035-.1.087-.123a.2.2,0,0,0,.116-.142.093.093,0,0,1,.045-.063.164.164,0,0,0,.082-.164c0-.045.007-.1.042-.112a.266.266,0,0,0,.2-.17c0-.007.014-.011.022-.014.053-.014.067-.056.072-.106s.044-.08.1-.1c.1-.031.194-.074.2-.2a.032.032,0,0,1,.02-.033c.082-.015.1-.1.169-.125.049-.02.074-.074.117-.1.089-.063.116-.2.254-.176.029-.048.035-.1.071-.112.115-.04.158-.151.239-.225a.125.125,0,0,0,.02-.052.208.208,0,0,1,.174-.166.376.376,0,0,0,.269-.159.25.25,0,0,1,.132-.127.613.613,0,0,0,.293-.176,3.441,3.441,0,0,1,.3-.228l.138-.123c.064-.05.13-.1.2-.15.022-.014.06,0,.079-.018.087-.065.2-.1.27-.188a.275.275,0,0,1,.192-.131.071.071,0,0,0,.064-.041c.029-.082.1-.1.168-.121a.9.9,0,0,0,.135-.053l.357-.2a.337.337,0,0,0,.177-.161c.014-.031.041-.071.068-.063.093.03.15-.029.228-.035a.793.793,0,0,0,.309-.109.835.835,0,0,1,.329-.132.217.217,0,0,0,.168-.07c.056-.071.143-.063.2-.128.02-.025.059-.019.089-.026l.219-.049c.108-.022.191-.106.3-.135a2.362,2.362,0,0,0,.425-.132,1.453,1.453,0,0,1,.131-.064.415.415,0,0,1,.1-.033.973.973,0,0,0,.307-.067.551.551,0,0,1,.24-.067.351.351,0,0,0,.224-.07c.055-.041.11-.083.187-.052.037.015.075-.015.115-.025.067-.018.127-.07.2-.034a.036.036,0,0,0,.038-.007.233.233,0,0,1,.247-.008.1.1,0,0,0,.124-.029.2.2,0,0,1,.106-.055.546.546,0,0,1,.327-.019,1.129,1.129,0,0,0,.376-.035.809.809,0,0,0,.232-.049c.064-.03.123-.065.189,0a.059.059,0,0,0,.052.008l.457-.041a1.067,1.067,0,0,1,.493.037.241.241,0,0,0,.169,0,.309.309,0,0,1,.207-.005.319.319,0,0,0,.269.012c.023-.014.052,0,.078.005s.042.031.061.023c.1-.04.2.023.3.042a.339.339,0,0,0,.312-.1l.074-.541c-.014-.025-.027-.071-.042-.07" transform="translate(1.268 2.794)" fill="#9e7955"/>
    </g>
  </g>
</svg>
