<svg xmlns="http://www.w3.org/2000/svg" xmlns:xlink="http://www.w3.org/1999/xlink" width="97.666" height="97.72" viewBox="0 0 97.666 97.72">
  <defs>
    <clipPath id="clip-path">
      <rect id="Rectángulo_156" data-name="Rectángulo 156" width="97.666" height="97.72" fill="#9e7955"/>
    </clipPath>
  </defs>
  <g id="Grupo_325" data-name="Grupo 325" clip-path="url(#clip-path)">
    <path id="Trazado_1730" data-name="Trazado 1730" d="M97.666,3.653c-.692,1.385-1.717,2.252-3.125,2.119a35.271,35.271,0,0,1-2.608,4.546,11.339,11.339,0,0,1-11.489,4.389,11.428,11.428,0,0,1-9.191-7.8A1.462,1.462,0,0,0,69.6,5.722c-3.241-.031-6.425.134-9.359,1.711a15.377,15.377,0,0,0-8.528,13.109c-.034.443-.025.89-.025,1.335q0,34.487,0,68.973V92c2.123,0,4.179-.025,6.233.007a2.866,2.866,0,0,1,2.858,3.607,3.48,3.48,0,0,1-2.033,2.109H38.91a7.788,7.788,0,0,1-1.784-1.6,2.787,2.787,0,0,1,2.512-4.112C41.7,91.96,43.764,92,45.968,92V90.95q0-34.62,0-69.24c0-7.839-5.056-14.2-12.568-15.62a36.222,36.222,0,0,0-6.074-.3c-.25,0-.643.433-.744.74a12.248,12.248,0,0,1-5.251,6.664C15.9,16.661,7.905,14.684,4.8,9.046c-.564-1.022-.979-2.127-1.49-3.254a8.681,8.681,0,0,1-1.042-.115A2.865,2.865,0,0,1,0,2.769,2.873,2.873,0,0,1,2.6.05,10.276,10.276,0,0,1,3.644.029q13.064,0,26.127,0A21.128,21.128,0,0,1,48.287,9.836c.124.184.25.368.384.545.033.043.1.058.192.1.673-.905,1.3-1.855,2.031-2.716A21.25,21.25,0,0,1,67.981.019Q80.9.072,93.822,0c1.772-.012,3.083.474,3.844,2.126ZM9.533,5.794A6.2,6.2,0,0,0,15.89,9.161,6.069,6.069,0,0,0,20.7,5.794ZM77.1,5.8c.45,1.648,2.736,3.246,4.846,3.387A6.016,6.016,0,0,0,88.04,5.8c-3.659,0-7.3,0-10.939,0" transform="translate(0 -0.001)" fill="#9e7955"/>
  </g>
</svg>
