<svg xmlns="http://www.w3.org/2000/svg" width="262.561" height="52.984" viewBox="0 0 262.561 52.984">
  <g id="Grupo_2" data-name="Grupo 2" transform="translate(0 -98.072)">
    <g id="Grupo_239" data-name="Grupo 239">
      <path id="Trazado_16" data-name="Trazado 16" d="M111.109,389.6a3.482,3.482,0,0,1,2.259.654,2.246,2.246,0,0,1,.8,1.844,2.574,2.574,0,0,1-.261,1.179,2.288,2.288,0,0,1-.775.865,2.448,2.448,0,0,1-.821.355,5.446,5.446,0,0,1-1.2.107h-2.044V394.3l.469-.036.142-.106v-4.108l-.142-.106-.469-.044v-.3Zm-.688.342v4.321h.656a2.362,2.362,0,0,0,1.694-.538,2.641,2.641,0,0,0,0-3.249,2.376,2.376,0,0,0-1.7-.534Z" transform="translate(-68.213 -243.673)" fill="#153a33"/>
      <path id="Trazado_17" data-name="Trazado 17" d="M134.711,394.608V394.3l.469-.036.142-.106v-4.109l-.142-.105-.469-.044v-.3h3.97v1.089h-.465l-.117-.634-.114-.112h-1.918v1.887h1.36l.118-.106.081-.543h.392v1.643h-.392l-.081-.539-.118-.113h-1.36v2.092h2.222l.118-.121.141-.754h.429v1.217Z" transform="translate(-84.253 -243.672)" fill="#153a33"/>
      <path id="Trazado_18" data-name="Trazado 18" d="M158.368,394.307V393h.49l.1.856.109.128a1.74,1.74,0,0,0,.417.127,2.749,2.749,0,0,0,.51.044,1.552,1.552,0,0,0,.917-.242.767.767,0,0,0,.338-.655q0-.571-1.19-1.026c-.087-.034-.152-.06-.2-.077a3.37,3.37,0,0,1-1.125-.617,1.023,1.023,0,0,1-.275-.741,1.238,1.238,0,0,1,.524-1.036,2.25,2.25,0,0,1,1.39-.4,4.637,4.637,0,0,1,.7.054,5.541,5.541,0,0,1,.714.158v1.155h-.433l-.125-.71-.122-.125a1.408,1.408,0,0,0-.344-.118,2.036,2.036,0,0,0-.4-.038,1.28,1.28,0,0,0-.822.242.8.8,0,0,0-.3.658.654.654,0,0,0,.212.5,3.3,3.3,0,0,0,.95.479c.046.017.114.041.206.073a3.226,3.226,0,0,1,1.044.54,1.038,1.038,0,0,1,.273.367,1.112,1.112,0,0,1,.091.452,1.272,1.272,0,0,1-.587,1.087,2.653,2.653,0,0,1-1.558.413,5.111,5.111,0,0,1-.815-.062,3.245,3.245,0,0,1-.678-.179" transform="translate(-99.049 -243.52)" fill="#153a33"/>
      <path id="Trazado_19" data-name="Trazado 19" d="M181.905,389.437h.546l1.987,4.67.5.091v.307h-1.882V394.2l.514-.036.061-.105-.6-1.424h-1.955l-.591,1.424.085.105.538.036v.307h-1.623V394.2l.478-.091Zm.13.783-.817,2.07h1.671Z" transform="translate(-112.257 -243.568)" fill="#153a33"/>
      <path id="Trazado_20" data-name="Trazado 20" d="M204.85,389.6h2.113a2.738,2.738,0,0,1,1.506.329,1.132,1.132,0,0,1,.49,1.01,1.036,1.036,0,0,1-.336.8,2.025,2.025,0,0,1-1,.442,1.964,1.964,0,0,1,.522.2.972.972,0,0,1,.332.3,1.838,1.838,0,0,1,.234.59,3.912,3.912,0,0,0,.154.515.766.766,0,0,0,.344.418,1.749,1.749,0,0,0,.733.111h.073v.285c-.124.021-.239.038-.344.049s-.2.016-.3.016a2.025,2.025,0,0,1-.492-.052.954.954,0,0,1-.346-.163,1.773,1.773,0,0,1-.49-.911q-.073-.244-.118-.363a1.183,1.183,0,0,0-.447-.631,1.647,1.647,0,0,0-.852-.175c-.081,0-.21,0-.388.012l-.028,0v1.774l.142.106.473.036v.306H204.85V394.3l.469-.036.142-.106v-4.108l-.142-.106-.469-.044Zm1.356.342v2.076l.239.006.218,0a2,2,0,0,0,1.119-.244.886.886,0,0,0,.35-.781.915.915,0,0,0-.36-.808,2.09,2.09,0,0,0-1.165-.251Z" transform="translate(-128.121 -243.673)" fill="#153a33"/>
      <path id="Trazado_21" data-name="Trazado 21" d="M229.459,389.6h2.113a2.738,2.738,0,0,1,1.506.329,1.132,1.132,0,0,1,.49,1.01,1.036,1.036,0,0,1-.336.8,2.025,2.025,0,0,1-1,.442,1.964,1.964,0,0,1,.522.2.972.972,0,0,1,.332.3,1.839,1.839,0,0,1,.234.59,3.92,3.92,0,0,0,.154.515.766.766,0,0,0,.344.418,1.749,1.749,0,0,0,.733.111h.073v.285c-.124.021-.239.038-.344.049s-.2.016-.3.016a2.025,2.025,0,0,1-.492-.052.955.955,0,0,1-.346-.163,1.772,1.772,0,0,1-.49-.911q-.073-.244-.118-.363a1.183,1.183,0,0,0-.447-.631,1.647,1.647,0,0,0-.852-.175c-.081,0-.21,0-.388.012l-.028,0v1.774l.142.106.473.036v.306h-1.971V394.3l.469-.036.142-.106v-4.108l-.142-.106-.469-.044Zm1.356.342v2.076l.239.006.218,0a2,2,0,0,0,1.119-.244.886.886,0,0,0,.35-.781.915.915,0,0,0-.36-.808,2.09,2.09,0,0,0-1.165-.251Z" transform="translate(-143.512 -243.673)" fill="#153a33"/>
      <path id="Trazado_22" data-name="Trazado 22" d="M256.963,389.264a2.906,2.906,0,0,1,.988.163,2.615,2.615,0,0,1,.834.491,2.429,2.429,0,0,1,.637.867,2.743,2.743,0,0,1,.216,1.1,2.835,2.835,0,0,1-.1.783,2.559,2.559,0,0,1-.316.693,2.415,2.415,0,0,1-.947.846,2.827,2.827,0,0,1-1.307.3,2.974,2.974,0,0,1-1-.165,2.5,2.5,0,0,1-.828-.476A2.416,2.416,0,0,1,254.5,393a2.97,2.97,0,0,1,0-2.222,2.388,2.388,0,0,1,.631-.864,2.611,2.611,0,0,1,.836-.49,2.949,2.949,0,0,1,1-.165m0,.4a1.627,1.627,0,0,0-1.326.6,2.919,2.919,0,0,0,0,3.247,1.624,1.624,0,0,0,1.322.6,1.607,1.607,0,0,0,1.311-.606,2.908,2.908,0,0,0,0-3.242,1.611,1.611,0,0,0-1.311-.6" transform="translate(-159.039 -243.46)" fill="#153a33"/>
      <path id="Trazado_23" data-name="Trazado 23" d="M280.416,394.608V394.3l.522-.036.142-.106v-4.109l-.142-.105-.522-.044v-.3h2.024v.3l-.474.044-.142.105v4.215H283.7l.117-.121.142-.9h.429v1.359Z" transform="translate(-175.382 -243.672)" fill="#153a33"/>
      <path id="Trazado_24" data-name="Trazado 24" d="M302.236,394.608V394.3l.522-.036.142-.106v-4.109l-.142-.105-.522-.044v-.3h2.024v.3l-.474.044-.142.105v4.215h1.874l.117-.121.142-.9h.429v1.359Z" transform="translate(-189.03 -243.672)" fill="#153a33"/>
      <path id="Trazado_25" data-name="Trazado 25" d="M327.092,389.264a2.9,2.9,0,0,1,.988.163,2.614,2.614,0,0,1,.834.491,2.429,2.429,0,0,1,.637.867,2.743,2.743,0,0,1,.216,1.1,2.835,2.835,0,0,1-.1.783,2.551,2.551,0,0,1-.316.693,2.414,2.414,0,0,1-.947.846,2.827,2.827,0,0,1-1.307.3,2.973,2.973,0,0,1-1-.165,2.5,2.5,0,0,1-.828-.476,2.416,2.416,0,0,1-.637-.871,2.97,2.97,0,0,1,0-2.222,2.389,2.389,0,0,1,.631-.864,2.61,2.61,0,0,1,.836-.49,2.948,2.948,0,0,1,1-.165m0,.4a1.627,1.627,0,0,0-1.326.6,2.919,2.919,0,0,0,0,3.247,1.624,1.624,0,0,0,1.322.6,1.607,1.607,0,0,0,1.311-.606,2.908,2.908,0,0,0,0-3.242,1.611,1.611,0,0,0-1.311-.6" transform="translate(-202.9 -243.46)" fill="#153a33"/>
      <path id="Trazado_26" data-name="Trazado 26" d="M351.28,394.307V393h.49l.1.856.109.128a1.739,1.739,0,0,0,.417.127,2.746,2.746,0,0,0,.51.044,1.553,1.553,0,0,0,.917-.242.767.767,0,0,0,.338-.655q0-.571-1.19-1.026c-.086-.034-.152-.06-.2-.077a3.371,3.371,0,0,1-1.125-.617,1.024,1.024,0,0,1-.275-.741,1.238,1.238,0,0,1,.524-1.036,2.25,2.25,0,0,1,1.39-.4,4.638,4.638,0,0,1,.7.054,5.541,5.541,0,0,1,.714.158v1.155h-.433l-.125-.71-.122-.125a1.407,1.407,0,0,0-.344-.118,2.036,2.036,0,0,0-.4-.038,1.28,1.28,0,0,0-.822.242.8.8,0,0,0-.3.658.654.654,0,0,0,.212.5,3.3,3.3,0,0,0,.95.479c.046.017.114.041.206.073a3.226,3.226,0,0,1,1.044.54,1.037,1.037,0,0,1,.273.367,1.112,1.112,0,0,1,.091.452,1.272,1.272,0,0,1-.587,1.087,2.653,2.653,0,0,1-1.558.413,5.111,5.111,0,0,1-.815-.062,3.245,3.245,0,0,1-.678-.179" transform="translate(-219.704 -243.52)" fill="#153a33"/>
      <path id="Trazado_27" data-name="Trazado 27" d="M394.5,394.284a5.957,5.957,0,0,1-.834.2,5.344,5.344,0,0,1-.838.067,3.6,3.6,0,0,1-.765-.077,2.722,2.722,0,0,1-.647-.222,2.616,2.616,0,0,1-1.051-.957,2.492,2.492,0,0,1-.382-1.342,2.4,2.4,0,0,1,.791-1.877,3,3,0,0,1,2.087-.713,5.041,5.041,0,0,1,.783.064,7.115,7.115,0,0,1,.856.191v1.148h-.461l-.125-.678-.109-.135a2.7,2.7,0,0,0-.466-.145,2.26,2.26,0,0,0-.461-.047,1.963,1.963,0,0,0-1.489.575,2.174,2.174,0,0,0-.551,1.567,2.29,2.29,0,0,0,.575,1.652,2.1,2.1,0,0,0,1.59.6,2.812,2.812,0,0,0,.358-.024,2.653,2.653,0,0,0,.363-.075l.129-.117.2-.83h.445Z" transform="translate(-243.909 -243.52)" fill="#153a33"/>
      <path id="Trazado_28" data-name="Trazado 28" d="M416.957,389.264a2.905,2.905,0,0,1,.988.163,2.615,2.615,0,0,1,.834.491,2.429,2.429,0,0,1,.637.867,2.742,2.742,0,0,1,.217,1.1,2.835,2.835,0,0,1-.1.783,2.557,2.557,0,0,1-.316.693,2.414,2.414,0,0,1-.947.846,2.827,2.827,0,0,1-1.307.3,2.974,2.974,0,0,1-1-.165,2.5,2.5,0,0,1-.828-.476,2.415,2.415,0,0,1-.637-.871,2.97,2.97,0,0,1,0-2.222,2.387,2.387,0,0,1,.631-.864,2.61,2.61,0,0,1,.836-.49,2.949,2.949,0,0,1,1-.165m0,.4a1.627,1.627,0,0,0-1.326.6,2.919,2.919,0,0,0,0,3.247,1.623,1.623,0,0,0,1.322.6,1.607,1.607,0,0,0,1.311-.606,2.908,2.908,0,0,0,0-3.242,1.611,1.611,0,0,0-1.311-.6" transform="translate(-259.105 -243.46)" fill="#153a33"/>
      <path id="Trazado_29" data-name="Trazado 29" d="M440.411,394.608V394.3l.506-.058.15-.143v-4.05l-.15-.105-.53-.044v-.3h1.558v.187l2.829,3.821V390.1l-.149-.135-.5-.066v-.3h1.74v.3l-.5.066-.149.135v4.506h-.546l-3.156-4.236v3.73l.149.143.5.058v.306Z" transform="translate(-275.435 -243.672)" fill="#153a33"/>
      <path id="Trazado_30" data-name="Trazado 30" d="M481.857,389.6h1.93v.3l-.481.043-.089.106,1.558,3.759,1.5-3.759-.081-.106-.514-.043v-.3h1.651v.3l-.514.087-1.906,4.656h-.575l-1.947-4.656-.53-.087Z" transform="translate(-301.371 -243.672)" fill="#153a33"/>
      <path id="Trazado_31" data-name="Trazado 31" d="M506.886,389.437h.546l1.987,4.67.5.091v.307h-1.882V394.2l.514-.036.061-.105-.6-1.424h-1.955l-.591,1.424.085.105.538.036v.307h-1.623V394.2l.478-.091Zm.13.783-.817,2.07h1.671Z" transform="translate(-315.511 -243.568)" fill="#153a33"/>
      <path id="Trazado_32" data-name="Trazado 32" d="M529.69,394.608V394.3l.522-.036.141-.106v-4.109l-.141-.105-.522-.044v-.3h2.024v.3l-.474.044-.142.105v4.215h1.874l.117-.121.142-.9h.429v1.359Z" transform="translate(-331.288 -243.672)" fill="#153a33"/>
      <path id="Trazado_33" data-name="Trazado 33" d="M554.546,389.264a2.9,2.9,0,0,1,.988.163,2.618,2.618,0,0,1,.834.491,2.429,2.429,0,0,1,.637.867,2.742,2.742,0,0,1,.217,1.1,2.84,2.84,0,0,1-.1.783,2.559,2.559,0,0,1-.316.693,2.414,2.414,0,0,1-.947.846,2.827,2.827,0,0,1-1.307.3,2.973,2.973,0,0,1-1-.165,2.5,2.5,0,0,1-.828-.476,2.418,2.418,0,0,1-.637-.871,2.97,2.97,0,0,1,0-2.222,2.389,2.389,0,0,1,.631-.864,2.609,2.609,0,0,1,.836-.49,2.949,2.949,0,0,1,1-.165m0,.4a1.626,1.626,0,0,0-1.326.6,2.917,2.917,0,0,0,0,3.247,1.623,1.623,0,0,0,1.322.6,1.607,1.607,0,0,0,1.311-.606,2.909,2.909,0,0,0,0-3.242,1.611,1.611,0,0,0-1.311-.6" transform="translate(-345.158 -243.46)" fill="#153a33"/>
      <path id="Trazado_34" data-name="Trazado 34" d="M578.139,389.6h2.113a2.738,2.738,0,0,1,1.506.329,1.133,1.133,0,0,1,.49,1.01,1.036,1.036,0,0,1-.336.8,2.025,2.025,0,0,1-1,.442,1.962,1.962,0,0,1,.522.2.971.971,0,0,1,.332.3,1.855,1.855,0,0,1,.234.59,3.855,3.855,0,0,0,.154.515.766.766,0,0,0,.344.418,1.749,1.749,0,0,0,.733.111h.073v.285c-.124.021-.239.038-.344.049s-.2.016-.3.016a2.023,2.023,0,0,1-.492-.052.954.954,0,0,1-.346-.163,1.769,1.769,0,0,1-.49-.911q-.073-.244-.118-.363a1.184,1.184,0,0,0-.447-.631,1.647,1.647,0,0,0-.853-.175c-.08,0-.21,0-.388.012l-.029,0v1.774l.142.106.474.036v.306h-1.971V394.3l.469-.036.142-.106v-4.108l-.142-.106-.469-.044Zm1.356.342v2.076l.239.006.218,0a2,2,0,0,0,1.119-.244.885.885,0,0,0,.35-.781.915.915,0,0,0-.36-.808,2.09,2.09,0,0,0-1.165-.251Z" transform="translate(-361.59 -243.673)" fill="#153a33"/>
      <path id="Trazado_35" data-name="Trazado 35" d="M2.755,261.93h12.99v2.756H2.755V278.85H13.728v2.756H2.755v5.125H15.746v2.756H0V261.93Z" transform="translate(0 -163.821)" fill="#153a33"/>
      <path id="Trazado_36" data-name="Trazado 36" d="M67.913,261.93v24.8H80.9v2.756H65.158V261.93Z" transform="translate(-40.752 -163.821)" fill="#153a33"/>
      <path id="Trazado_37" data-name="Trazado 37" d="M193.706,265.911l-1.963,1.935a10.879,10.879,0,0,0-11.94-2.43,11.1,11.1,0,0,0-.032,20.449,10.88,10.88,0,0,0,11.947-2.392l1.957,1.941a13.662,13.662,0,0,1-14.968,2.994,13.856,13.856,0,0,1,.04-25.537,13.654,13.654,0,0,1,14.958,3.041" transform="translate(-106.483 -163.759)" fill="#153a33"/>
      <path id="Trazado_38" data-name="Trazado 38" d="M275.908,275.709a13.68,13.68,0,1,1-13.679-13.778,13.749,13.749,0,0,1,13.679,13.778m-24.6,0a10.924,10.924,0,1,0,10.923-11.022,10.952,10.952,0,0,0-10.923,11.022" transform="translate(-155.452 -163.821)" fill="#153a33"/>
      <path id="Trazado_39" data-name="Trazado 39" d="M362.463,261.93v27.556h0l-2.754-3.218-14.448-16.881v20.1H342.5V261.93l2.755,3.22,14.448,16.881v-20.1Z" transform="translate(-214.215 -163.821)" fill="#153a33"/>
      <path id="Trazado_40" data-name="Trazado 40" d="M421.66,262.032h2.068a13.778,13.778,0,0,1,0,27.555H418.9V262.032Zm0,24.8h2.068a11.023,11.023,0,0,0,.006-22.045H421.66Z" transform="translate(-261.998 -163.885)" fill="#153a33"/>
      <path id="Trazado_41" data-name="Trazado 41" d="M489.8,265.481l10.107,24.005h-2.989l-1.744-4.143H481.442l-1.744,4.143h-2.99l11.6-27.556Zm-7.2,17.107h11.415l-5.707-13.557Z" transform="translate(-298.151 -163.821)" fill="#153a33"/>
      <path id="Trazado_42" data-name="Trazado 42" d="M560.282,262.032h2.068a13.778,13.778,0,0,1,0,27.555h-4.824V262.032Zm0,24.8h2.068a11.023,11.023,0,0,0,.006-22.045h-2.074Z" transform="translate(-348.698 -163.885)" fill="#153a33"/>
      <path id="Trazado_43" data-name="Trazado 43" d="M655.3,275.709a13.68,13.68,0,1,1-13.679-13.778A13.749,13.749,0,0,1,655.3,275.709m-24.6,0a10.924,10.924,0,1,0,10.923-11.022A10.952,10.952,0,0,0,630.7,275.709" transform="translate(-392.737 -163.821)" fill="#153a33"/>
      <path id="Trazado_59" data-name="Trazado 59" d="M111.109,389.6a3.482,3.482,0,0,1,2.259.654,2.246,2.246,0,0,1,.8,1.844,2.574,2.574,0,0,1-.261,1.179,2.288,2.288,0,0,1-.775.865,2.448,2.448,0,0,1-.821.355,5.446,5.446,0,0,1-1.2.107h-2.044V394.3l.469-.036.142-.106v-4.108l-.142-.106-.469-.044v-.3Zm-.688.342v4.321h.656a2.362,2.362,0,0,0,1.694-.538,2.641,2.641,0,0,0,0-3.249,2.376,2.376,0,0,0-1.7-.534Z" transform="translate(-68.213 -243.673)" fill="#153a33"/>
      <path id="Trazado_60" data-name="Trazado 60" d="M134.711,394.608V394.3l.469-.036.142-.106v-4.109l-.142-.105-.469-.044v-.3h3.97v1.089h-.465l-.117-.634-.114-.112h-1.918v1.887h1.36l.118-.106.081-.543h.392v1.643h-.392l-.081-.539-.118-.113h-1.36v2.092h2.222l.118-.121.141-.754h.429v1.217Z" transform="translate(-84.253 -243.672)" fill="#153a33"/>
      <path id="Trazado_61" data-name="Trazado 61" d="M158.368,394.307V393h.49l.1.856.109.128a1.74,1.74,0,0,0,.417.127,2.749,2.749,0,0,0,.51.044,1.552,1.552,0,0,0,.917-.242.767.767,0,0,0,.338-.655q0-.571-1.19-1.026c-.087-.034-.152-.06-.2-.077a3.37,3.37,0,0,1-1.125-.617,1.023,1.023,0,0,1-.275-.741,1.238,1.238,0,0,1,.524-1.036,2.25,2.25,0,0,1,1.39-.4,4.637,4.637,0,0,1,.7.054,5.541,5.541,0,0,1,.714.158v1.155h-.433l-.125-.71-.122-.125a1.408,1.408,0,0,0-.344-.118,2.036,2.036,0,0,0-.4-.038,1.28,1.28,0,0,0-.822.242.8.8,0,0,0-.3.658.654.654,0,0,0,.212.5,3.3,3.3,0,0,0,.95.479c.046.017.114.041.206.073a3.226,3.226,0,0,1,1.044.54,1.038,1.038,0,0,1,.273.367,1.112,1.112,0,0,1,.091.452,1.272,1.272,0,0,1-.587,1.087,2.653,2.653,0,0,1-1.558.413,5.111,5.111,0,0,1-.815-.062,3.245,3.245,0,0,1-.678-.179" transform="translate(-99.049 -243.52)" fill="#153a33"/>
      <path id="Trazado_62" data-name="Trazado 62" d="M181.905,389.437h.546l1.987,4.67.5.091v.307h-1.882V394.2l.514-.036.061-.105-.6-1.424h-1.955l-.591,1.424.085.105.538.036v.307h-1.623V394.2l.478-.091Zm.13.783-.817,2.07h1.671Z" transform="translate(-112.257 -243.568)" fill="#153a33"/>
      <path id="Trazado_63" data-name="Trazado 63" d="M204.85,389.6h2.113a2.738,2.738,0,0,1,1.506.329,1.132,1.132,0,0,1,.49,1.01,1.036,1.036,0,0,1-.336.8,2.025,2.025,0,0,1-1,.442,1.964,1.964,0,0,1,.522.2.972.972,0,0,1,.332.3,1.838,1.838,0,0,1,.234.59,3.912,3.912,0,0,0,.154.515.766.766,0,0,0,.344.418,1.749,1.749,0,0,0,.733.111h.073v.285c-.124.021-.239.038-.344.049s-.2.016-.3.016a2.025,2.025,0,0,1-.492-.052.954.954,0,0,1-.346-.163,1.773,1.773,0,0,1-.49-.911q-.073-.244-.118-.363a1.183,1.183,0,0,0-.447-.631,1.647,1.647,0,0,0-.852-.175c-.081,0-.21,0-.388.012l-.028,0v1.774l.142.106.473.036v.306H204.85V394.3l.469-.036.142-.106v-4.108l-.142-.106-.469-.044Zm1.356.342v2.076l.239.006.218,0a2,2,0,0,0,1.119-.244.886.886,0,0,0,.35-.781.915.915,0,0,0-.36-.808,2.09,2.09,0,0,0-1.165-.251Z" transform="translate(-128.121 -243.673)" fill="#153a33"/>
      <path id="Trazado_64" data-name="Trazado 64" d="M229.459,389.6h2.113a2.738,2.738,0,0,1,1.506.329,1.132,1.132,0,0,1,.49,1.01,1.036,1.036,0,0,1-.336.8,2.025,2.025,0,0,1-1,.442,1.964,1.964,0,0,1,.522.2.972.972,0,0,1,.332.3,1.839,1.839,0,0,1,.234.59,3.92,3.92,0,0,0,.154.515.766.766,0,0,0,.344.418,1.749,1.749,0,0,0,.733.111h.073v.285c-.124.021-.239.038-.344.049s-.2.016-.3.016a2.025,2.025,0,0,1-.492-.052.955.955,0,0,1-.346-.163,1.772,1.772,0,0,1-.49-.911q-.073-.244-.118-.363a1.183,1.183,0,0,0-.447-.631,1.647,1.647,0,0,0-.852-.175c-.081,0-.21,0-.388.012l-.028,0v1.774l.142.106.473.036v.306h-1.971V394.3l.469-.036.142-.106v-4.108l-.142-.106-.469-.044Zm1.356.342v2.076l.239.006.218,0a2,2,0,0,0,1.119-.244.886.886,0,0,0,.35-.781.915.915,0,0,0-.36-.808,2.09,2.09,0,0,0-1.165-.251Z" transform="translate(-143.512 -243.673)" fill="#153a33"/>
      <path id="Trazado_65" data-name="Trazado 65" d="M256.963,389.264a2.906,2.906,0,0,1,.988.163,2.615,2.615,0,0,1,.834.491,2.429,2.429,0,0,1,.637.867,2.743,2.743,0,0,1,.216,1.1,2.835,2.835,0,0,1-.1.783,2.559,2.559,0,0,1-.316.693,2.415,2.415,0,0,1-.947.846,2.827,2.827,0,0,1-1.307.3,2.974,2.974,0,0,1-1-.165,2.5,2.5,0,0,1-.828-.476A2.416,2.416,0,0,1,254.5,393a2.97,2.97,0,0,1,0-2.222,2.388,2.388,0,0,1,.631-.864,2.611,2.611,0,0,1,.836-.49,2.949,2.949,0,0,1,1-.165m0,.4a1.627,1.627,0,0,0-1.326.6,2.919,2.919,0,0,0,0,3.247,1.624,1.624,0,0,0,1.322.6,1.607,1.607,0,0,0,1.311-.606,2.908,2.908,0,0,0,0-3.242,1.611,1.611,0,0,0-1.311-.6" transform="translate(-159.039 -243.46)" fill="#153a33"/>
      <path id="Trazado_66" data-name="Trazado 66" d="M280.416,394.608V394.3l.522-.036.142-.106v-4.109l-.142-.105-.522-.044v-.3h2.024v.3l-.474.044-.142.105v4.215H283.7l.117-.121.142-.9h.429v1.359Z" transform="translate(-175.382 -243.672)" fill="#153a33"/>
      <path id="Trazado_67" data-name="Trazado 67" d="M302.236,394.608V394.3l.522-.036.142-.106v-4.109l-.142-.105-.522-.044v-.3h2.024v.3l-.474.044-.142.105v4.215h1.874l.117-.121.142-.9h.429v1.359Z" transform="translate(-189.03 -243.672)" fill="#153a33"/>
      <path id="Trazado_68" data-name="Trazado 68" d="M327.092,389.264a2.9,2.9,0,0,1,.988.163,2.614,2.614,0,0,1,.834.491,2.429,2.429,0,0,1,.637.867,2.743,2.743,0,0,1,.216,1.1,2.835,2.835,0,0,1-.1.783,2.551,2.551,0,0,1-.316.693,2.414,2.414,0,0,1-.947.846,2.827,2.827,0,0,1-1.307.3,2.973,2.973,0,0,1-1-.165,2.5,2.5,0,0,1-.828-.476,2.416,2.416,0,0,1-.637-.871,2.97,2.97,0,0,1,0-2.222,2.389,2.389,0,0,1,.631-.864,2.61,2.61,0,0,1,.836-.49,2.948,2.948,0,0,1,1-.165m0,.4a1.627,1.627,0,0,0-1.326.6,2.919,2.919,0,0,0,0,3.247,1.624,1.624,0,0,0,1.322.6,1.607,1.607,0,0,0,1.311-.606,2.908,2.908,0,0,0,0-3.242,1.611,1.611,0,0,0-1.311-.6" transform="translate(-202.9 -243.46)" fill="#153a33"/>
      <path id="Trazado_69" data-name="Trazado 69" d="M351.28,394.307V393h.49l.1.856.109.128a1.739,1.739,0,0,0,.417.127,2.746,2.746,0,0,0,.51.044,1.553,1.553,0,0,0,.917-.242.767.767,0,0,0,.338-.655q0-.571-1.19-1.026c-.086-.034-.152-.06-.2-.077a3.371,3.371,0,0,1-1.125-.617,1.024,1.024,0,0,1-.275-.741,1.238,1.238,0,0,1,.524-1.036,2.25,2.25,0,0,1,1.39-.4,4.638,4.638,0,0,1,.7.054,5.541,5.541,0,0,1,.714.158v1.155h-.433l-.125-.71-.122-.125a1.407,1.407,0,0,0-.344-.118,2.036,2.036,0,0,0-.4-.038,1.28,1.28,0,0,0-.822.242.8.8,0,0,0-.3.658.654.654,0,0,0,.212.5,3.3,3.3,0,0,0,.95.479c.046.017.114.041.206.073a3.226,3.226,0,0,1,1.044.54,1.037,1.037,0,0,1,.273.367,1.112,1.112,0,0,1,.091.452,1.272,1.272,0,0,1-.587,1.087,2.653,2.653,0,0,1-1.558.413,5.111,5.111,0,0,1-.815-.062,3.245,3.245,0,0,1-.678-.179" transform="translate(-219.704 -243.52)" fill="#153a33"/>
      <path id="Trazado_70" data-name="Trazado 70" d="M394.5,394.284a5.957,5.957,0,0,1-.834.2,5.344,5.344,0,0,1-.838.067,3.6,3.6,0,0,1-.765-.077,2.722,2.722,0,0,1-.647-.222,2.616,2.616,0,0,1-1.051-.957,2.492,2.492,0,0,1-.382-1.342,2.4,2.4,0,0,1,.791-1.877,3,3,0,0,1,2.087-.713,5.041,5.041,0,0,1,.783.064,7.115,7.115,0,0,1,.856.191v1.148h-.461l-.125-.678-.109-.135a2.7,2.7,0,0,0-.466-.145,2.26,2.26,0,0,0-.461-.047,1.963,1.963,0,0,0-1.489.575,2.174,2.174,0,0,0-.551,1.567,2.29,2.29,0,0,0,.575,1.652,2.1,2.1,0,0,0,1.59.6,2.812,2.812,0,0,0,.358-.024,2.653,2.653,0,0,0,.363-.075l.129-.117.2-.83h.445Z" transform="translate(-243.909 -243.52)" fill="#153a33"/>
      <path id="Trazado_71" data-name="Trazado 71" d="M416.957,389.264a2.905,2.905,0,0,1,.988.163,2.615,2.615,0,0,1,.834.491,2.429,2.429,0,0,1,.637.867,2.742,2.742,0,0,1,.217,1.1,2.835,2.835,0,0,1-.1.783,2.557,2.557,0,0,1-.316.693,2.414,2.414,0,0,1-.947.846,2.827,2.827,0,0,1-1.307.3,2.974,2.974,0,0,1-1-.165,2.5,2.5,0,0,1-.828-.476,2.415,2.415,0,0,1-.637-.871,2.97,2.97,0,0,1,0-2.222,2.387,2.387,0,0,1,.631-.864,2.61,2.61,0,0,1,.836-.49,2.949,2.949,0,0,1,1-.165m0,.4a1.627,1.627,0,0,0-1.326.6,2.919,2.919,0,0,0,0,3.247,1.623,1.623,0,0,0,1.322.6,1.607,1.607,0,0,0,1.311-.606,2.908,2.908,0,0,0,0-3.242,1.611,1.611,0,0,0-1.311-.6" transform="translate(-259.105 -243.46)" fill="#153a33"/>
      <path id="Trazado_72" data-name="Trazado 72" d="M440.411,394.608V394.3l.506-.058.15-.143v-4.05l-.15-.105-.53-.044v-.3h1.558v.187l2.829,3.821V390.1l-.149-.135-.5-.066v-.3h1.74v.3l-.5.066-.149.135v4.506h-.546l-3.156-4.236v3.73l.149.143.5.058v.306Z" transform="translate(-275.435 -243.672)" fill="#153a33"/>
      <path id="Trazado_73" data-name="Trazado 73" d="M481.857,389.6h1.93v.3l-.481.043-.089.106,1.558,3.759,1.5-3.759-.081-.106-.514-.043v-.3h1.651v.3l-.514.087-1.906,4.656h-.575l-1.947-4.656-.53-.087Z" transform="translate(-301.371 -243.672)" fill="#153a33"/>
      <path id="Trazado_74" data-name="Trazado 74" d="M506.886,389.437h.546l1.987,4.67.5.091v.307h-1.882V394.2l.514-.036.061-.105-.6-1.424h-1.955l-.591,1.424.085.105.538.036v.307h-1.623V394.2l.478-.091Zm.13.783-.817,2.07h1.671Z" transform="translate(-315.511 -243.568)" fill="#153a33"/>
      <path id="Trazado_75" data-name="Trazado 75" d="M529.69,394.608V394.3l.522-.036.141-.106v-4.109l-.141-.105-.522-.044v-.3h2.024v.3l-.474.044-.142.105v4.215h1.874l.117-.121.142-.9h.429v1.359Z" transform="translate(-331.288 -243.672)" fill="#153a33"/>
      <path id="Trazado_76" data-name="Trazado 76" d="M554.546,389.264a2.9,2.9,0,0,1,.988.163,2.618,2.618,0,0,1,.834.491,2.429,2.429,0,0,1,.637.867,2.742,2.742,0,0,1,.217,1.1,2.84,2.84,0,0,1-.1.783,2.559,2.559,0,0,1-.316.693,2.414,2.414,0,0,1-.947.846,2.827,2.827,0,0,1-1.307.3,2.973,2.973,0,0,1-1-.165,2.5,2.5,0,0,1-.828-.476,2.418,2.418,0,0,1-.637-.871,2.97,2.97,0,0,1,0-2.222,2.389,2.389,0,0,1,.631-.864,2.609,2.609,0,0,1,.836-.49,2.949,2.949,0,0,1,1-.165m0,.4a1.626,1.626,0,0,0-1.326.6,2.917,2.917,0,0,0,0,3.247,1.623,1.623,0,0,0,1.322.6,1.607,1.607,0,0,0,1.311-.606,2.909,2.909,0,0,0,0-3.242,1.611,1.611,0,0,0-1.311-.6" transform="translate(-345.158 -243.46)" fill="#153a33"/>
      <path id="Trazado_77" data-name="Trazado 77" d="M578.139,389.6h2.113a2.738,2.738,0,0,1,1.506.329,1.133,1.133,0,0,1,.49,1.01,1.036,1.036,0,0,1-.336.8,2.025,2.025,0,0,1-1,.442,1.962,1.962,0,0,1,.522.2.971.971,0,0,1,.332.3,1.855,1.855,0,0,1,.234.59,3.855,3.855,0,0,0,.154.515.766.766,0,0,0,.344.418,1.749,1.749,0,0,0,.733.111h.073v.285c-.124.021-.239.038-.344.049s-.2.016-.3.016a2.023,2.023,0,0,1-.492-.052.954.954,0,0,1-.346-.163,1.769,1.769,0,0,1-.49-.911q-.073-.244-.118-.363a1.184,1.184,0,0,0-.447-.631,1.647,1.647,0,0,0-.853-.175c-.08,0-.21,0-.388.012l-.029,0v1.774l.142.106.474.036v.306h-1.971V394.3l.469-.036.142-.106v-4.108l-.142-.106-.469-.044Zm1.356.342v2.076l.239.006.218,0a2,2,0,0,0,1.119-.244.885.885,0,0,0,.35-.781.915.915,0,0,0-.36-.808,2.09,2.09,0,0,0-1.165-.251Z" transform="translate(-361.59 -243.673)" fill="#153a33"/>
      <path id="Trazado_78" data-name="Trazado 78" d="M2.755,261.93h12.99v2.756H2.755V278.85H13.728v2.756H2.755v5.125H15.746v2.756H0V261.93Z" transform="translate(0 -163.821)" fill="#153a33"/>
      <path id="Trazado_79" data-name="Trazado 79" d="M67.913,261.93v24.8H80.9v2.756H65.158V261.93Z" transform="translate(-40.752 -163.821)" fill="#153a33"/>
      <path id="Trazado_80" data-name="Trazado 80" d="M193.706,265.911l-1.963,1.935a10.879,10.879,0,0,0-11.94-2.43,11.1,11.1,0,0,0-.032,20.449,10.88,10.88,0,0,0,11.947-2.392l1.957,1.941a13.662,13.662,0,0,1-14.968,2.994,13.856,13.856,0,0,1,.04-25.537,13.654,13.654,0,0,1,14.958,3.041" transform="translate(-106.483 -163.759)" fill="#153a33"/>
      <path id="Trazado_81" data-name="Trazado 81" d="M275.908,275.709a13.68,13.68,0,1,1-13.679-13.778,13.749,13.749,0,0,1,13.679,13.778m-24.6,0a10.924,10.924,0,1,0,10.923-11.022,10.952,10.952,0,0,0-10.923,11.022" transform="translate(-155.452 -163.821)" fill="#153a33"/>
      <path id="Trazado_82" data-name="Trazado 82" d="M362.463,261.93v27.556h0l-2.754-3.218-14.448-16.881v20.1H342.5V261.93l2.755,3.22,14.448,16.881v-20.1Z" transform="translate(-214.215 -163.821)" fill="#153a33"/>
      <path id="Trazado_83" data-name="Trazado 83" d="M421.66,262.032h2.068a13.778,13.778,0,0,1,0,27.555H418.9V262.032Zm0,24.8h2.068a11.023,11.023,0,0,0,.006-22.045H421.66Z" transform="translate(-261.998 -163.885)" fill="#153a33"/>
      <path id="Trazado_84" data-name="Trazado 84" d="M489.8,265.481l10.107,24.005h-2.989l-1.744-4.143H481.442l-1.744,4.143h-2.99l11.6-27.556Zm-7.2,17.107h11.415l-5.707-13.557Z" transform="translate(-298.151 -163.821)" fill="#153a33"/>
      <path id="Trazado_85" data-name="Trazado 85" d="M560.282,262.032h2.068a13.778,13.778,0,0,1,0,27.555h-4.824V262.032Zm0,24.8h2.068a11.023,11.023,0,0,0,.006-22.045h-2.074Z" transform="translate(-348.698 -163.885)" fill="#153a33"/>
      <path id="Trazado_86" data-name="Trazado 86" d="M655.3,275.709a13.68,13.68,0,1,1-13.679-13.778A13.749,13.749,0,0,1,655.3,275.709m-24.6,0a10.924,10.924,0,1,0,10.923-11.022A10.952,10.952,0,0,0,630.7,275.709" transform="translate(-392.737 -163.821)" fill="#153a33"/>
    </g>
  </g>
</svg>
