<svg id="Grupo_342" data-name="Grupo 342" xmlns="http://www.w3.org/2000/svg" xmlns:xlink="http://www.w3.org/1999/xlink" width="33.573" height="33.589" viewBox="0 0 33.573 33.589">
  <defs>
    <clipPath id="clip-path">
      <rect id="Rectángulo_173" data-name="Rectángulo 173" width="33.573" height="33.589" fill="#9e7955"/>
    </clipPath>
  </defs>
  <g id="Grupo_338" data-name="Grupo 338" clip-path="url(#clip-path)">
    <path id="Trazado_1754" data-name="Trazado 1754" d="M15.266,27.47H14.8c-1.872,0-3.743.012-5.615,0a7.578,7.578,0,0,1-7.523-6.228A8.691,8.691,0,0,1,1.537,19.6q-.013-8.028-.005-16.056V3.081A1.65,1.65,0,0,1,.284,2.419,1.518,1.518,0,0,1,1.227.045,2.439,2.439,0,0,1,1.688,0Q16.78,0,31.872,0a1.57,1.57,0,0,1,1.534.85,1.517,1.517,0,0,1-.9,2.138c-.136.042-.277.065-.461.107v.441c0,5.388.019,10.776-.007,16.163a7.449,7.449,0,0,1-4.58,7.14,7.173,7.173,0,0,1-3.162.633c-1.848-.009-3.7,0-5.543,0h-.436c0,.707-.008,1.382.009,2.056,0,.1.125.192.2.282A2.288,2.288,0,1,1,14.5,31.186a2.429,2.429,0,0,1,.56-1.4.992.992,0,0,0,.2-.533c.025-.57.009-1.142.009-1.781m1.506-15.255c2.526,0,5.052,0,7.577,0a1.522,1.522,0,0,0,1.52-1.983A1.564,1.564,0,0,0,24.236,9.16q-6.755,0-13.51,0c-.512,0-1.025-.009-1.537,0A1.537,1.537,0,0,0,7.712,10.2a1.521,1.521,0,0,0,1.483,2.011c2.526.008,5.051,0,7.577,0m.013,3.06H11.6c-.846,0-1.692-.018-2.537.01A1.5,1.5,0,0,0,7.692,17.2,1.522,1.522,0,0,0,9.32,18.312q7.469,0,14.938,0c.083,0,.167,0,.25-.005a1.516,1.516,0,0,0-.147-3.029c-2.525-.009-5.051,0-7.576,0" transform="translate(0 0)" fill="#9e7955"/>
  </g>
</svg>
