<svg xmlns="http://www.w3.org/2000/svg" width="44" height="44" viewBox="0 0 44 44">
  <g id="Grupo_297" data-name="Grupo 297" transform="translate(-1053 -7557)">
    <circle id="Elipse_26" data-name="Elipse 26" cx="22" cy="22" r="22" transform="translate(1053 7557)" fill="#fff"/>
    <path id="Trazado_1717" data-name="Trazado 1717" d="M3.643,0h8.521a8.608,8.608,0,0,1,.886.192,3.942,3.942,0,0,1,2.755,3.786q.011,3.928,0,7.856a3.811,3.811,0,0,1-.732,2.3,3.907,3.907,0,0,1-3.319,1.676q-3.82,0-7.64,0a4.521,4.521,0,0,1-.8-.06A3.841,3.841,0,0,1,.281,13.279,7.966,7.966,0,0,1,0,12.164V3.643c.02-.11.038-.221.059-.331A3.863,3.863,0,0,1,2.514.286,7.886,7.886,0,0,1,3.643,0M7.9,11.2A3.294,3.294,0,1,0,4.61,7.9,3.3,3.3,0,0,0,7.9,11.2m4.286-6.592a.986.986,0,1,0-.988-.987.989.989,0,0,0,.988.987" transform="translate(1067.095 7571.096)" fill="#153a33"/>
  </g>
</svg>
