<svg xmlns="http://www.w3.org/2000/svg" xmlns:xlink="http://www.w3.org/1999/xlink" width="96.567" height="85.629" viewBox="0 0 96.567 85.629">
  <defs>
    <clipPath id="clip-path">
      <rect id="Rectángulo_155" data-name="Rectángulo 155" width="96.567" height="85.629" fill="#9e7955"/>
    </clipPath>
  </defs>
  <g id="Grupo_324" data-name="Grupo 324" clip-path="url(#clip-path)">
    <path id="Trazado_1727" data-name="Trazado 1727" d="M312.116,200.573c-.839,1.166-1.628,2.372-2.524,3.492q-5.5,6.882-11.064,13.72c-1.392,1.723-2.784,1.916-4.572.636-1.914-1.371-3.82-2.752-5.8-4.182,2.052-1.644,4.056-3.25,6.061-4.853q7.289-5.825,14.58-11.647c1.179-.942,1.207-.972,2.312.076a8.579,8.579,0,0,1,1.011,1.439Z" transform="translate(-215.548 -147.386)" fill="#9e7955"/>
    <path id="Trazado_1728" data-name="Trazado 1728" d="M61.7,0a6.516,6.516,0,0,1,4.063,1.412q13.473,9.752,26.964,19.48,13.216,9.545,26.431,19.09c2.258,1.631,2.29,3.555.109,5.3Q106.234,55.691,93.2,66.1a6.784,6.784,0,0,1-1.9,1.179,3.013,3.013,0,0,1-2.8-.694Q71.943,54.738,55.371,42.921q-7.094-5.066-14.183-10.136c-3.165-2.266-3.667-5.722-1.25-8.735Q48.636,13.2,57.348,2.37A5.779,5.779,0,0,1,61.7,0M99.624,45.344A2.812,2.812,0,1,0,96.829,42.5a2.832,2.832,0,0,0,2.795,2.844" transform="translate(-28.738 0)" fill="#9e7955"/>
    <path id="Trazado_1729" data-name="Trazado 1729" d="M22.406,185.947,45.36,202.342c-.769,1.095-1.439,2.192-2.254,3.168a2.686,2.686,0,0,1-3.6.424c-.479-.3-.931-.641-1.4-.962s-.932-.639-1.468-1.006c-8.317,9.027-18.727,12.829-30.986,12.128,0,1.75,0,3.374,0,5a7.21,7.21,0,0,1-.054,1.316A2.849,2.849,0,0,1,2.6,224.714a2.842,2.842,0,0,1-2.591-2.956q-.018-8.345,0-16.689,0-5.846,0-11.692a2.867,2.867,0,0,1,2.862-3.165,2.868,2.868,0,0,1,2.793,3.14c.008,1.909,0,3.817,0,5.708,6.462,1.117,13.109-.69,17.151-4.7-.593-.414-1.17-.81-1.739-1.216a2.826,2.826,0,0,1-.786-4.184c.667-.986,1.37-1.947,2.12-3.008" transform="translate(0 -139.095)" fill="#9e7955"/>
  </g>
</svg>
