<svg id="Grupo_333" data-name="Grupo 333" xmlns="http://www.w3.org/2000/svg" xmlns:xlink="http://www.w3.org/1999/xlink" width="90.604" height="98.86" viewBox="0 0 90.604 98.86">
  <defs>
    <clipPath id="clip-path">
      <rect id="Rectángulo_163" data-name="Rectángulo 163" width="90.604" height="98.86" fill="#9e7955"/>
    </clipPath>
  </defs>
  <g id="Grupo_333-2" data-name="Grupo 333" clip-path="url(#clip-path)">
    <path id="Trazado_1745" data-name="Trazado 1745" d="M68.417,47.6V74.171H67.283q-8.11,0-16.221,0c-3.827,0-6.2,2.358-6.21,6.2-.015,5.727,0,11.455,0,17.182V98.86H4.274C1.407,98.859,0,97.466,0,94.608Q0,56,0,17.384,0,10.772,0,4.16C.008,1.423,1.435,0,4.17,0Q34.246,0,64.323,0c2.685,0,3.99,1.437,4.185,4.086a7.246,7.246,0,0,1-2.272,6.006C58.947,17.771,54.645,27.06,52.29,37.3A61.8,61.8,0,0,0,50.7,52.23c.055,3.346.005,6.693.012,10.039,0,1.975,1.158,3.269,2.887,3.263s2.889-1.311,2.9-3.281c.01-2.8.021-5.6-.01-8.4-.008-.67.14-1,.857-1.209a45.635,45.635,0,0,0,10.087-4.532c.294-.17.6-.314.993-.517M32.28,12.906H21.957c-2.155,0-4.31-.024-6.464.012a2.834,2.834,0,0,0-2.784,2.569,2.865,2.865,0,0,0,2.216,3.075,5.4,5.4,0,0,0,1.241.125q16.112.01,32.224,0a5.389,5.389,0,0,0,1.427-.17,2.694,2.694,0,0,0,1.872-1.794,2.84,2.84,0,0,0-2.814-3.809c-5.531-.019-11.063-.006-16.595-.007M27.234,41.753c3.733,0,7.467.005,11.2-.006a5.04,5.04,0,0,0,1.428-.152,2.856,2.856,0,0,0,1.974-3.066A2.917,2.917,0,0,0,38.9,35.981c-2.059-.044-4.119-.014-6.179-.014q-8.352,0-16.7,0a3.071,3.071,0,0,0-2.933,1.5,2.845,2.845,0,0,0,2.564,4.28c3.862.038,7.724.01,11.586.013M23.185,64.867c2.442,0,4.884,0,7.326,0a2.909,2.909,0,1,0,.024-5.784q-7.326-.012-14.652,0a2.9,2.9,0,1,0-.024,5.782c2.442.009,4.884,0,7.326,0" transform="translate(0 0)" fill="#9e7955"/>
    <path id="Trazado_1746" data-name="Trazado 1746" d="M146.255,48.814c.341-2.249.574-4.256.956-6.233a54.257,54.257,0,0,1,11.449-25.069A48.461,48.461,0,0,1,179.19,3.258c.877-.331,1.229-.05,1.072.876-.644,3.8-1.3,7.6-2,11.4a1.532,1.532,0,0,1-.735.879c-1.993,1.111-4.015,2.17-6.025,3.25a5.98,5.98,0,0,0-.341,10.6c.568.358,1.137.715,1.876,1.179-8.43,6.535-16.482,13.4-26.786,17.373" transform="translate(-89.694 -1.916)" fill="#9e7955"/>
    <path id="Trazado_1747" data-name="Trazado 1747" d="M148.844,206.875l-17.7,18.756V206.875Z" transform="translate(-80.424 -126.87)" fill="#9e7955"/>
  </g>
</svg>
